{"glyphs":{"0":{"ha":822,"x_min":0,"x_max":0,"o":"m 411 944 b 78 467 213 944 78 744 b 411 -11 78 189 211 -11 b 744 467 608 -11 744 189 b 411 944 744 744 608 944 z m 411 78 b 167 467 276 78 167 238 b 411 856 167 696 276 856 b 656 467 546 856 656 696 b 411 78 656 238 546 78 z "},"1":{"ha":467,"x_min":0,"x_max":0,"o":"m 100 856 l 100 769 l 256 828 l 256 0 l 344 0 l 344 956 z "},"2":{"ha":822,"x_min":0,"x_max":0,"o":"m 100 656 l 189 639 b 400 856 199 760 267 856 b 611 647 525 856 611 775 b 453 369 611 549 544 460 l 78 0 l 744 0 l 744 89 l 286 89 l 500 294 b 700 656 632 422 700 508 b 400 944 700 832 572 944 b 100 656 217 944 110 804 z "},"3":{"ha":800,"x_min":0,"x_max":0,"o":"m 544 492 b 700 700 656 529 700 619 b 400 944 700 804 610 944 b 99 667 211 944 111 822 l 182 650 b 408 856 192 739 225 856 b 611 689 521 856 611 794 b 344 528 611 567 447 529 l 344 439 b 633 267 507 439 633 392 b 408 78 633 182 560 78 b 163 294 226 78 175 203 l 78 278 b 400 -11 90 111 206 -11 b 722 275 613 -11 722 136 b 544 492 722 382 647 472 z "},"4":{"ha":822,"x_min":0,"x_max":0,"o":"m 633 267 l 633 956 l 33 178 l 544 178 l 544 0 l 633 0 l 633 178 l 744 178 l 744 267 z m 544 267 l 206 267 l 544 711 z "},"5":{"ha":800,"x_min":0,"x_max":0,"o":"m 428 622 b 200 522 304 622 229 561 l 247 844 l 633 844 l 633 933 l 179 933 l 99 378 l 190 378 b 421 533 239 465 306 533 b 633 311 550 533 633 438 b 400 78 633 171 536 78 b 168 278 261 78 178 169 l 78 267 b 400 -11 89 108 221 -11 b 722 315 572 -11 722 122 b 428 622 722 514 581 622 z "},"6":{"ha":822,"x_min":0,"x_max":0,"o":"m 425 644 b 200 563 296 644 232 590 b 622 933 300 863 622 933 l 431 933 b 78 350 174 813 78 558 b 411 -11 78 129 217 -11 b 744 340 604 -11 744 132 b 425 644 744 506 611 644 z m 411 78 b 167 324 267 78 167 188 b 411 556 167 457 269 556 b 656 324 563 556 656 460 b 411 78 656 188 556 78 z "},"7":{"ha":711,"x_min":0,"x_max":0,"o":"m 78 933 l 78 844 l 567 844 l 189 0 l 289 0 l 700 933 z "},"8":{"ha":822,"x_min":0,"x_max":0,"o":"m 597 513 b 701 694 663 553 701 628 b 411 944 701 844 571 944 b 121 694 250 944 121 844 b 224 513 121 628 158 551 b 78 282 146 478 78 378 b 411 -11 78 101 228 -11 b 744 282 594 -11 744 101 b 597 513 744 378 676 479 z m 411 856 b 611 697 522 856 611 789 b 411 553 611 606 522 553 b 211 697 300 553 211 606 b 411 856 211 789 300 856 z m 411 78 b 167 278 276 78 167 163 b 411 469 167 393 276 469 b 656 278 546 469 656 393 b 411 78 656 163 546 78 z "},"9":{"ha":822,"x_min":0,"x_max":0,"o":"m 397 289 b 622 371 526 289 590 343 b 200 0 522 71 200 0 l 392 0 b 744 583 649 121 744 375 b 411 944 744 804 606 944 b 78 593 218 944 78 801 b 397 289 78 428 211 289 z m 411 856 b 656 610 556 856 656 746 b 411 378 656 476 553 378 b 167 610 260 378 167 474 b 411 856 167 746 267 856 z "}," ":{"ha":444,"x_min":0,"x_max":0,"o":""},"A":{"ha":911,"x_min":0,"x_max":0,"o":"m 800 0 l 900 0 l 456 956 l 11 0 l 111 0 l 203 200 l 708 200 z m 243 289 l 456 756 l 668 289 z "},"Á":{"ha":911,"x_min":0,"x_max":0,"o":"m 389 1022 l 456 1022 l 611 1200 l 500 1200 z m 800 0 l 900 0 l 456 956 l 11 0 l 111 0 l 203 200 l 708 200 z m 243 289 l 456 756 l 668 289 z "},"Ă":{"ha":911,"x_min":0,"x_max":0,"o":"m 561 1194 b 456 1089 561 1136 514 1089 b 350 1194 397 1089 350 1136 l 283 1194 b 456 1022 283 1099 360 1022 b 628 1194 551 1022 628 1099 z m 800 0 l 900 0 l 456 956 l 11 0 l 111 0 l 203 200 l 708 200 z m 243 289 l 456 756 l 668 289 z "},"Â":{"ha":911,"x_min":0,"x_max":0,"o":"m 551 1022 l 656 1022 l 456 1211 l 256 1022 l 360 1022 l 456 1122 z m 800 0 l 900 0 l 456 956 l 11 0 l 111 0 l 203 200 l 708 200 z m 243 289 l 456 756 l 668 289 z "},"Ä":{"ha":911,"x_min":0,"x_max":0,"o":"m 344 1022 b 411 1089 382 1022 411 1051 b 344 1156 411 1126 382 1156 b 278 1089 307 1156 278 1126 b 344 1022 278 1051 307 1022 z m 567 1022 b 633 1089 604 1022 633 1051 b 567 1156 633 1126 604 1156 b 500 1089 529 1156 500 1126 b 567 1022 500 1051 529 1022 z m 800 0 l 900 0 l 456 956 l 11 0 l 111 0 l 203 200 l 708 200 z m 243 289 l 456 756 l 668 289 z "},"À":{"ha":911,"x_min":0,"x_max":0,"o":"m 522 1022 l 411 1200 l 300 1200 l 456 1022 z m 800 0 l 900 0 l 456 956 l 11 0 l 111 0 l 203 200 l 708 200 z m 243 289 l 456 756 l 668 289 z "},"Ā":{"ha":911,"x_min":0,"x_max":0,"o":"m 633 1044 l 633 1111 l 278 1111 l 278 1044 z m 800 0 l 900 0 l 456 956 l 11 0 l 111 0 l 203 200 l 708 200 z m 243 289 l 456 756 l 668 289 z "},"Ą":{"ha":911,"x_min":0,"x_max":0,"o":"m 933 -208 b 789 -122 871 -240 789 -208 b 900 0 789 -44 851 0 l 456 956 l 11 0 l 111 0 l 203 200 l 708 200 l 793 17 b 722 -122 758 -6 722 -58 b 881 -289 722 -221 782 -289 b 956 -267 906 -289 936 -281 z m 243 289 l 456 756 l 668 289 z "},"Å":{"ha":911,"x_min":0,"x_max":0,"o":"m 456 1289 b 311 1144 375 1289 311 1225 b 456 1000 311 1064 375 1000 b 600 1144 536 1000 600 1064 b 456 1289 600 1225 536 1289 z m 456 1067 b 378 1144 413 1067 378 1101 b 456 1222 378 1188 413 1222 b 533 1144 499 1222 533 1188 b 456 1067 533 1101 499 1067 z m 800 0 l 900 0 l 456 956 l 11 0 l 111 0 l 203 200 l 708 200 z m 243 289 l 456 756 l 668 289 z "},"Ǻ":{"ha":911,"x_min":0,"x_max":0,"o":"m 389 1333 l 456 1333 l 611 1511 l 500 1511 z m 456 1289 b 311 1144 375 1289 311 1225 b 456 1000 311 1064 375 1000 b 600 1144 536 1000 600 1064 b 456 1289 600 1225 536 1289 z m 456 1067 b 378 1144 413 1067 378 1101 b 456 1222 378 1188 413 1222 b 533 1144 499 1222 533 1188 b 456 1067 533 1101 499 1067 z m 800 0 l 900 0 l 456 956 l 11 0 l 111 0 l 203 200 l 708 200 z m 243 289 l 456 756 l 668 289 z "},"Ã":{"ha":911,"x_min":0,"x_max":0,"o":"m 607 1138 b 464 1114 578 1081 531 1085 b 375 1138 435 1125 410 1138 b 233 1046 326 1138 272 1118 l 304 1022 b 444 1047 333 1072 379 1075 b 539 1022 474 1036 504 1022 b 678 1117 586 1022 640 1040 z m 800 0 l 900 0 l 456 956 l 11 0 l 111 0 l 203 200 l 708 200 z m 243 289 l 456 756 l 668 289 z "},"Æ":{"ha":1089,"x_min":0,"x_max":0,"o":"m 1011 844 l 1011 933 l 500 933 l 11 0 l 111 0 l 214 200 l 500 200 l 500 0 l 1011 0 l 1011 89 l 589 89 l 589 422 l 944 422 l 944 511 l 589 511 l 589 844 z m 260 289 l 500 756 l 500 289 z "},"Ǽ":{"ha":1089,"x_min":0,"x_max":0,"o":"m 522 1022 l 589 1022 l 744 1200 l 633 1200 z m 1011 844 l 1011 933 l 500 933 l 11 0 l 111 0 l 214 200 l 500 200 l 500 0 l 1011 0 l 1011 89 l 589 89 l 589 422 l 944 422 l 944 511 l 589 511 l 589 844 z m 260 289 l 500 756 l 500 289 z "},"B":{"ha":778,"x_min":0,"x_max":0,"o":"m 567 501 b 678 689 628 525 678 607 b 346 933 678 850 547 933 l 100 933 l 100 0 l 422 0 b 722 281 610 0 722 119 b 567 501 722 374 663 482 z m 189 844 l 378 844 b 589 689 513 844 589 796 b 378 533 589 582 513 533 l 189 533 z m 400 89 l 189 89 l 189 444 l 400 444 b 633 265 542 444 633 388 b 400 89 633 144 542 89 z "},"C":{"ha":889,"x_min":0,"x_max":0,"o":"m 533 78 b 144 467 318 78 144 251 b 533 856 144 682 318 856 b 797 754 640 856 728 818 l 833 835 b 539 944 757 906 640 944 b 56 467 272 944 56 731 b 539 -11 56 203 272 -11 b 833 99 640 -11 757 28 l 797 179 b 533 78 729 115 640 78 z "},"Ć":{"ha":889,"x_min":0,"x_max":0,"o":"m 456 1022 l 522 1022 l 678 1200 l 567 1200 z m 533 78 b 144 467 318 78 144 251 b 533 856 144 682 318 856 b 797 754 640 856 728 818 l 833 835 b 539 944 757 906 640 944 b 56 467 272 944 56 731 b 539 -11 56 203 272 -11 b 833 99 640 -11 757 28 l 797 179 b 533 78 729 115 640 78 z "},"Č":{"ha":889,"x_min":0,"x_max":0,"o":"m 607 1200 l 511 1100 l 415 1200 l 311 1200 l 511 1011 l 711 1200 z m 533 78 b 144 467 318 78 144 251 b 533 856 144 682 318 856 b 797 754 640 856 728 818 l 833 835 b 539 944 757 906 640 944 b 56 467 272 944 56 731 b 539 -11 56 203 272 -11 b 833 99 640 -11 757 28 l 797 179 b 533 78 729 115 640 78 z "},"Ç":{"ha":889,"x_min":0,"x_max":0,"o":"m 833 99 l 797 179 b 533 78 729 115 640 78 b 144 467 318 78 144 251 b 533 856 144 682 318 856 b 797 754 640 856 728 818 l 833 835 b 539 944 757 906 640 944 b 56 467 272 944 56 731 b 483 -8 56 221 243 19 l 407 -89 l 451 -156 b 544 -122 474 -137 504 -122 b 656 -221 611 -122 656 -165 b 522 -344 656 -285 603 -344 b 406 -278 458 -344 421 -310 l 344 -335 b 513 -422 375 -381 428 -422 b 722 -222 638 -422 722 -336 b 514 -71 722 -118 629 -43 l 571 -10 b 833 99 664 -3 765 35 z "},"Ċ":{"ha":889,"x_min":0,"x_max":0,"o":"m 533 1000 b 622 1089 583 1000 622 1039 b 533 1178 622 1139 583 1178 b 444 1089 483 1178 444 1139 b 533 1000 444 1039 483 1000 z m 533 78 b 144 467 318 78 144 251 b 533 856 144 682 318 856 b 797 754 640 856 728 818 l 833 835 b 539 944 757 906 640 944 b 56 467 272 944 56 731 b 539 -11 56 203 272 -11 b 833 99 640 -11 757 28 l 797 179 b 533 78 729 115 640 78 z "},"D":{"ha":889,"x_min":0,"x_max":0,"o":"m 357 933 l 100 933 l 100 0 l 357 0 b 833 467 661 0 833 208 b 357 933 833 725 668 933 z m 365 89 l 189 89 l 189 844 l 365 844 b 744 467 600 844 744 686 b 365 89 744 247 600 89 z "},"Ð":{"ha":911,"x_min":0,"x_max":0,"o":"m 379 933 l 122 933 l 122 500 l 33 500 l 33 433 l 122 433 l 122 0 l 379 0 b 856 467 683 0 856 208 b 379 933 856 725 690 933 z m 388 89 l 211 89 l 211 433 l 300 433 l 300 500 l 211 500 l 211 844 l 388 844 b 767 467 622 844 767 686 b 388 89 767 247 622 89 z "},"Ď":{"ha":889,"x_min":0,"x_max":0,"o":"m 496 1200 l 400 1100 l 304 1200 l 200 1200 l 400 1011 l 600 1200 z m 357 933 l 100 933 l 100 0 l 357 0 b 833 467 661 0 833 208 b 357 933 833 725 668 933 z m 365 89 l 189 89 l 189 844 l 365 844 b 744 467 600 844 744 686 b 365 89 744 247 600 89 z "},"Đ":{"ha":911,"x_min":0,"x_max":0,"o":"m 379 933 l 122 933 l 122 500 l 33 500 l 33 433 l 122 433 l 122 0 l 379 0 b 856 467 683 0 856 208 b 379 933 856 725 690 933 z m 388 89 l 211 89 l 211 433 l 300 433 l 300 500 l 211 500 l 211 844 l 388 844 b 767 467 622 844 767 686 b 388 89 767 247 622 89 z "},"E":{"ha":689,"x_min":0,"x_max":0,"o":"m 611 844 l 611 933 l 100 933 l 100 0 l 611 0 l 611 89 l 189 89 l 189 422 l 544 422 l 544 511 l 189 511 l 189 844 z "},"É":{"ha":689,"x_min":0,"x_max":0,"o":"m 267 1022 l 333 1022 l 489 1200 l 378 1200 z m 611 844 l 611 933 l 100 933 l 100 0 l 611 0 l 611 89 l 189 89 l 189 422 l 544 422 l 544 511 l 189 511 l 189 844 z "},"Ě":{"ha":689,"x_min":0,"x_max":0,"o":"m 440 1200 l 344 1100 l 249 1200 l 144 1200 l 344 1011 l 544 1200 z m 611 844 l 611 933 l 100 933 l 100 0 l 611 0 l 611 89 l 189 89 l 189 422 l 544 422 l 544 511 l 189 511 l 189 844 z "},"Ê":{"ha":689,"x_min":0,"x_max":0,"o":"m 440 1022 l 544 1022 l 344 1211 l 144 1022 l 249 1022 l 344 1122 z m 611 844 l 611 933 l 100 933 l 100 0 l 611 0 l 611 89 l 189 89 l 189 422 l 544 422 l 544 511 l 189 511 l 189 844 z "},"Ë":{"ha":689,"x_min":0,"x_max":0,"o":"m 233 1022 b 300 1089 271 1022 300 1051 b 233 1156 300 1126 271 1156 b 167 1089 196 1156 167 1126 b 233 1022 167 1051 196 1022 z m 456 1022 b 522 1089 493 1022 522 1051 b 456 1156 522 1126 493 1156 b 389 1089 418 1156 389 1126 b 456 1022 389 1051 418 1022 z m 611 844 l 611 933 l 100 933 l 100 0 l 611 0 l 611 89 l 189 89 l 189 422 l 544 422 l 544 511 l 189 511 l 189 844 z "},"Ė":{"ha":689,"x_min":0,"x_max":0,"o":"m 344 1000 b 433 1089 394 1000 433 1039 b 344 1178 433 1139 394 1178 b 256 1089 294 1178 256 1139 b 344 1000 256 1039 294 1000 z m 611 844 l 611 933 l 100 933 l 100 0 l 611 0 l 611 89 l 189 89 l 189 422 l 544 422 l 544 511 l 189 511 l 189 844 z "},"È":{"ha":689,"x_min":0,"x_max":0,"o":"m 444 1022 l 333 1200 l 222 1200 l 378 1022 z m 611 844 l 611 933 l 100 933 l 100 0 l 611 0 l 611 89 l 189 89 l 189 422 l 544 422 l 544 511 l 189 511 l 189 844 z "},"Ē":{"ha":689,"x_min":0,"x_max":0,"o":"m 522 1044 l 522 1111 l 167 1111 l 167 1044 z m 611 844 l 611 933 l 100 933 l 100 0 l 611 0 l 611 89 l 189 89 l 189 422 l 544 422 l 544 511 l 189 511 l 189 844 z "},"Ę":{"ha":689,"x_min":0,"x_max":0,"o":"m 644 -208 b 500 -122 582 -240 500 -208 b 611 0 500 -44 563 0 l 611 89 l 189 89 l 189 422 l 544 422 l 544 511 l 189 511 l 189 844 l 611 844 l 611 933 l 100 933 l 100 0 l 483 0 b 433 -122 457 -26 433 -71 b 592 -289 433 -221 493 -289 b 667 -267 617 -289 647 -281 z "},"F":{"ha":667,"x_min":0,"x_max":0,"o":"m 100 0 l 189 0 l 189 422 l 544 422 l 544 511 l 189 511 l 189 844 l 611 844 l 611 933 l 100 933 z "},"G":{"ha":1044,"x_min":0,"x_max":0,"o":"m 989 489 l 500 489 l 500 400 l 894 400 b 533 78 867 217 725 78 b 144 467 318 78 144 251 b 533 856 144 682 318 856 b 856 658 678 856 796 776 l 946 683 b 533 944 867 839 722 944 b 56 467 269 944 56 731 b 533 -11 56 203 269 -11 b 989 467 797 -11 989 203 z "},"Ğ":{"ha":1044,"x_min":0,"x_max":0,"o":"m 628 1194 b 522 1089 628 1136 581 1089 b 417 1194 464 1089 417 1136 l 350 1194 b 522 1022 350 1099 426 1022 b 694 1194 618 1022 694 1099 z m 989 489 l 500 489 l 500 400 l 894 400 b 533 78 867 217 725 78 b 144 467 318 78 144 251 b 533 856 144 682 318 856 b 856 658 678 856 796 776 l 946 683 b 533 944 867 839 722 944 b 56 467 269 944 56 731 b 533 -11 56 203 269 -11 b 989 467 797 -11 989 203 z "},"Ģ":{"ha":1044,"x_min":0,"x_max":0,"o":"m 989 489 l 500 489 l 500 400 l 894 400 b 533 78 867 217 725 78 b 144 467 318 78 144 251 b 533 856 144 682 318 856 b 856 658 678 856 796 776 l 946 683 b 533 944 867 839 722 944 b 56 467 269 944 56 731 b 533 -11 56 203 269 -11 b 989 467 797 -11 989 203 z m 433 -244 l 489 -244 l 589 -89 l 478 -89 z "},"Ġ":{"ha":1044,"x_min":0,"x_max":0,"o":"m 522 1000 b 611 1089 572 1000 611 1039 b 522 1178 611 1139 572 1178 b 433 1089 472 1178 433 1139 b 522 1000 433 1039 472 1000 z m 989 489 l 500 489 l 500 400 l 894 400 b 533 78 867 217 725 78 b 144 467 318 78 144 251 b 533 856 144 682 318 856 b 856 658 678 856 796 776 l 946 683 b 533 944 867 839 722 944 b 56 467 269 944 56 731 b 533 -11 56 203 269 -11 b 989 467 797 -11 989 203 z "},"H":{"ha":867,"x_min":0,"x_max":0,"o":"m 678 933 l 678 511 l 189 511 l 189 933 l 100 933 l 100 0 l 189 0 l 189 422 l 678 422 l 678 0 l 767 0 l 767 933 z "},"Ħ":{"ha":867,"x_min":0,"x_max":0,"o":"m 833 794 l 767 794 l 767 933 l 678 933 l 678 794 l 189 794 l 189 933 l 100 933 l 100 794 l 33 794 l 33 739 l 100 739 l 100 0 l 189 0 l 189 422 l 678 422 l 678 0 l 767 0 l 767 739 l 833 739 z m 678 511 l 189 511 l 189 739 l 678 739 z "},"I":{"ha":289,"x_min":0,"x_max":0,"o":"m 189 0 l 189 933 l 100 933 l 100 0 z "},"Ĳ":{"ha":911,"x_min":0,"x_max":0,"o":"m 189 0 l 189 933 l 100 933 l 100 0 z m 744 933 l 744 344 b 544 78 744 178 692 78 b 400 147 479 78 425 108 l 344 75 b 544 -11 378 32 464 -11 b 833 356 725 -11 833 101 l 833 933 z "},"Í":{"ha":289,"x_min":0,"x_max":0,"o":"m 100 1022 l 167 1022 l 322 1200 l 211 1200 z m 189 0 l 189 933 l 100 933 l 100 0 z "},"Î":{"ha":289,"x_min":0,"x_max":0,"o":"m 240 1022 l 344 1022 l 144 1211 l -56 1022 l 49 1022 l 144 1122 z m 189 0 l 189 933 l 100 933 l 100 0 z "},"Ï":{"ha":289,"x_min":0,"x_max":0,"o":"m 33 1022 b 100 1089 71 1022 100 1051 b 33 1156 100 1126 71 1156 b -33 1089 -4 1156 -33 1126 b 33 1022 -33 1051 -4 1022 z m 256 1022 b 322 1089 293 1022 322 1051 b 256 1156 322 1126 293 1156 b 189 1089 218 1156 189 1126 b 256 1022 189 1051 218 1022 z m 189 0 l 189 933 l 100 933 l 100 0 z "},"İ":{"ha":289,"x_min":0,"x_max":0,"o":"m 144 1000 b 233 1089 194 1000 233 1039 b 144 1178 233 1139 194 1178 b 56 1089 94 1178 56 1139 b 144 1000 56 1039 94 1000 z m 189 0 l 189 933 l 100 933 l 100 0 z "},"Ì":{"ha":289,"x_min":0,"x_max":0,"o":"m 189 1022 l 78 1200 l -33 1200 l 122 1022 z m 100 0 l 189 0 l 189 933 l 100 933 z "},"Ī":{"ha":289,"x_min":0,"x_max":0,"o":"m 322 1044 l 322 1111 l -33 1111 l -33 1044 z m 100 0 l 189 0 l 189 933 l 100 933 z "},"Į":{"ha":289,"x_min":0,"x_max":0,"o":"m 222 -208 b 78 -122 160 -240 78 -208 b 189 0 78 -44 140 0 l 189 933 l 100 933 l 100 33 b 11 -122 65 11 11 -42 b 169 -289 11 -221 71 -289 b 244 -267 194 -289 225 -281 z "},"J":{"ha":622,"x_min":0,"x_max":0,"o":"m 456 933 l 456 344 b 256 78 456 178 403 78 b 111 147 190 78 136 108 l 56 75 b 256 -11 89 32 175 -11 b 544 356 436 -11 544 101 l 544 933 z "},"K":{"ha":733,"x_min":0,"x_max":0,"o":"m 267 471 l 678 933 l 556 933 l 189 511 l 189 933 l 100 933 l 100 0 l 189 0 l 189 422 l 578 0 l 700 0 z "},"Ķ":{"ha":733,"x_min":0,"x_max":0,"o":"m 267 471 l 678 933 l 556 933 l 189 511 l 189 933 l 100 933 l 100 0 l 189 0 l 189 422 l 578 0 l 700 0 z m 244 -244 l 300 -244 l 400 -89 l 289 -89 z "},"L":{"ha":644,"x_min":0,"x_max":0,"o":"m 189 89 l 189 933 l 100 933 l 100 0 l 589 0 l 589 89 z "},"Ĺ":{"ha":644,"x_min":0,"x_max":0,"o":"m 100 1022 l 167 1022 l 322 1200 l 211 1200 z m 189 89 l 189 933 l 100 933 l 100 0 l 589 0 l 589 89 z "},"Ľ":{"ha":667,"x_min":0,"x_max":0,"o":"m 189 89 l 189 933 l 100 933 l 100 0 l 589 0 l 589 89 z m 433 778 l 489 778 l 589 933 l 478 933 z "},"Ļ":{"ha":644,"x_min":0,"x_max":0,"o":"m 189 89 l 189 933 l 100 933 l 100 0 l 589 0 l 589 89 z m 233 -244 l 289 -244 l 389 -89 l 278 -89 z "},"Ŀ":{"ha":667,"x_min":0,"x_max":0,"o":"m 189 89 l 189 933 l 100 933 l 100 0 l 589 0 l 589 89 z m 522 433 b 611 522 572 433 611 472 b 522 611 611 572 572 611 b 433 522 472 611 433 572 b 522 433 433 472 472 433 z "},"Ł":{"ha":667,"x_min":0,"x_max":0,"o":"m 211 89 l 211 454 l 300 479 l 300 535 l 211 510 l 211 933 l 122 933 l 122 486 l 33 461 l 33 406 l 122 431 l 122 0 l 611 0 l 611 89 z "},"M":{"ha":1156,"x_min":0,"x_max":0,"o":"m 578 -22 l 903 664 l 1008 0 l 1100 0 l 942 956 l 578 172 l 214 956 l 56 0 l 147 0 l 253 664 z "},"N":{"ha":933,"x_min":0,"x_max":0,"o":"m 833 -22 l 833 933 l 744 933 l 744 211 l 100 956 l 100 0 l 189 0 l 189 722 z "},"Ń":{"ha":933,"x_min":0,"x_max":0,"o":"m 378 1022 l 444 1022 l 600 1200 l 489 1200 z m 833 -22 l 833 933 l 744 933 l 744 211 l 100 956 l 100 0 l 189 0 l 189 722 z "},"Ň":{"ha":933,"x_min":0,"x_max":0,"o":"m 563 1200 l 467 1100 l 371 1200 l 267 1200 l 467 1011 l 667 1200 z m 833 -22 l 833 933 l 744 933 l 744 211 l 100 956 l 100 0 l 189 0 l 189 722 z "},"Ņ":{"ha":933,"x_min":0,"x_max":0,"o":"m 833 -22 l 833 933 l 744 933 l 744 211 l 100 956 l 100 0 l 189 0 l 189 722 z m 367 -244 l 422 -244 l 522 -89 l 411 -89 z "},"Ŋ":{"ha":933,"x_min":0,"x_max":0,"o":"m 744 933 l 744 211 l 100 956 l 100 0 l 189 0 l 189 722 l 744 81 l 744 -61 b 611 -286 744 -208 704 -267 l 633 -367 b 833 -47 715 -354 833 -326 l 833 933 z "},"Ñ":{"ha":933,"x_min":0,"x_max":0,"o":"m 618 1138 b 475 1114 589 1081 542 1085 b 386 1138 446 1125 421 1138 b 244 1046 338 1138 283 1118 l 315 1022 b 456 1047 344 1072 390 1075 b 550 1022 485 1036 515 1022 b 689 1117 597 1022 651 1040 z m 833 -22 l 833 933 l 744 933 l 744 211 l 100 956 l 100 0 l 189 0 l 189 722 z "},"O":{"ha":1067,"x_min":0,"x_max":0,"o":"m 533 944 b 56 467 269 944 56 731 b 533 -11 56 203 269 -11 b 1011 467 797 -11 1011 203 b 533 944 1011 731 797 944 z m 533 78 b 144 467 317 78 144 250 b 533 856 144 683 317 856 b 922 467 750 856 922 683 b 533 78 922 250 750 78 z "},"Ó":{"ha":1067,"x_min":0,"x_max":0,"o":"m 467 1022 l 533 1022 l 689 1200 l 578 1200 z m 533 944 b 56 467 269 944 56 731 b 533 -11 56 203 269 -11 b 1011 467 797 -11 1011 203 b 533 944 1011 731 797 944 z m 533 78 b 144 467 317 78 144 250 b 533 856 144 683 317 856 b 922 467 750 856 922 683 b 533 78 922 250 750 78 z "},"Ô":{"ha":1067,"x_min":0,"x_max":0,"o":"m 629 1022 l 733 1022 l 533 1211 l 333 1022 l 438 1022 l 533 1122 z m 533 944 b 56 467 269 944 56 731 b 533 -11 56 203 269 -11 b 1011 467 797 -11 1011 203 b 533 944 1011 731 797 944 z m 533 78 b 144 467 317 78 144 250 b 533 856 144 683 317 856 b 922 467 750 856 922 683 b 533 78 922 250 750 78 z "},"Ö":{"ha":1067,"x_min":0,"x_max":0,"o":"m 422 1022 b 489 1089 460 1022 489 1051 b 422 1156 489 1126 460 1156 b 356 1089 385 1156 356 1126 b 422 1022 356 1051 385 1022 z m 644 1022 b 711 1089 682 1022 711 1051 b 644 1156 711 1126 682 1156 b 578 1089 607 1156 578 1126 b 644 1022 578 1051 607 1022 z m 533 944 b 56 467 269 944 56 731 b 533 -11 56 203 269 -11 b 1011 467 797 -11 1011 203 b 533 944 1011 731 797 944 z m 533 78 b 144 467 317 78 144 250 b 533 856 144 683 317 856 b 922 467 750 856 922 683 b 533 78 922 250 750 78 z "},"Ò":{"ha":1067,"x_min":0,"x_max":0,"o":"m 600 1022 l 489 1200 l 378 1200 l 533 1022 z m 533 944 b 56 467 269 944 56 731 b 533 -11 56 203 269 -11 b 1011 467 797 -11 1011 203 b 533 944 1011 731 797 944 z m 533 78 b 144 467 317 78 144 250 b 533 856 144 683 317 856 b 922 467 750 856 922 683 b 533 78 922 250 750 78 z "},"Ő":{"ha":1067,"x_min":0,"x_max":0,"o":"m 333 1022 l 400 1022 l 500 1178 l 378 1178 z m 644 1022 l 711 1022 l 811 1178 l 689 1178 z m 533 944 b 56 467 269 944 56 731 b 533 -11 56 203 269 -11 b 1011 467 797 -11 1011 203 b 533 944 1011 731 797 944 z m 533 78 b 144 467 317 78 144 250 b 533 856 144 683 317 856 b 922 467 750 856 922 683 b 533 78 922 250 750 78 z "},"Ō":{"ha":1067,"x_min":0,"x_max":0,"o":"m 711 1044 l 711 1111 l 356 1111 l 356 1044 z m 533 944 b 56 467 269 944 56 731 b 533 -11 56 203 269 -11 b 1011 467 797 -11 1011 203 b 533 944 1011 731 797 944 z m 533 78 b 144 467 317 78 144 250 b 533 856 144 683 317 856 b 922 467 750 856 922 683 b 533 78 922 250 750 78 z "},"Ø":{"ha":1067,"x_min":0,"x_max":0,"o":"m 863 813 l 967 933 l 900 933 l 825 846 b 533 944 744 907 643 944 b 56 467 269 944 56 731 b 204 121 56 331 113 208 l 100 0 l 167 0 l 242 88 b 533 -11 322 26 424 -11 b 1011 467 797 -11 1011 203 b 863 813 1011 603 954 725 z m 144 467 b 533 856 144 683 317 856 b 767 779 622 856 703 826 l 261 188 b 144 467 189 258 144 357 z m 533 78 b 300 154 444 78 364 107 l 806 746 b 922 467 878 675 922 576 b 533 78 922 250 750 78 z "},"Õ":{"ha":1067,"x_min":0,"x_max":0,"o":"m 685 1138 b 542 1114 656 1081 608 1085 b 453 1138 513 1125 488 1138 b 311 1046 404 1138 350 1118 l 382 1022 b 522 1047 411 1072 457 1075 b 617 1022 551 1036 582 1022 b 756 1117 664 1022 718 1040 z m 533 944 b 56 467 269 944 56 731 b 533 -11 56 203 269 -11 b 1011 467 797 -11 1011 203 b 533 944 1011 731 797 944 z m 533 78 b 144 467 317 78 144 250 b 533 856 144 683 317 856 b 922 467 750 856 922 683 b 533 78 922 250 750 78 z "},"Œ":{"ha":1511,"x_min":0,"x_max":0,"o":"m 1433 844 l 1433 933 l 922 933 l 922 744 b 533 944 836 865 693 944 b 56 467 269 944 56 731 b 533 -11 56 203 269 -11 b 922 189 693 -11 836 68 l 922 0 l 1433 0 l 1433 89 l 1011 89 l 1011 422 l 1367 422 l 1367 511 l 1011 511 l 1011 844 z m 533 78 b 144 467 317 78 144 250 b 533 856 144 683 317 856 b 922 467 750 856 922 683 b 533 78 922 250 750 78 z "},"P":{"ha":778,"x_min":0,"x_max":0,"o":"m 367 933 l 100 933 l 100 0 l 189 0 l 189 333 l 411 333 b 722 640 608 333 722 465 b 367 933 722 817 610 933 z m 411 422 l 189 422 l 189 844 l 404 844 b 633 632 525 844 633 785 b 411 422 633 479 532 422 z "},"Þ":{"ha":778,"x_min":0,"x_max":0,"o":"m 367 789 l 189 789 l 189 978 l 100 978 l 100 0 l 189 0 l 189 189 l 411 189 b 722 496 608 189 722 321 b 367 789 722 672 610 789 z m 411 278 l 189 278 l 189 700 l 404 700 b 633 488 525 700 633 640 b 411 278 633 335 532 278 z "},"Q":{"ha":1067,"x_min":0,"x_max":0,"o":"m 1011 467 b 533 944 1011 731 797 944 b 56 467 269 944 56 731 b 533 -11 56 203 269 -11 b 815 81 639 -11 736 24 l 889 0 l 1011 0 l 881 139 b 1011 467 961 225 1011 340 z m 533 78 b 144 467 317 78 144 250 b 533 856 144 683 317 856 b 922 467 750 856 922 683 b 821 203 922 364 883 272 l 678 356 l 567 356 l 756 147 b 533 78 693 103 617 78 z "},"R":{"ha":800,"x_min":0,"x_max":0,"o":"m 744 0 l 486 340 b 722 640 638 369 722 489 b 367 933 722 817 610 933 l 100 933 l 100 0 l 189 0 l 189 333 l 388 333 l 639 0 z m 189 844 l 404 844 b 633 632 525 844 633 785 b 411 422 633 479 532 422 l 189 422 z "},"Ŕ":{"ha":800,"x_min":0,"x_max":0,"o":"m 278 1022 l 344 1022 l 500 1200 l 389 1200 z m 744 0 l 486 340 b 722 640 638 369 722 489 b 367 933 722 817 610 933 l 100 933 l 100 0 l 189 0 l 189 333 l 388 333 l 639 0 z m 189 844 l 404 844 b 633 632 525 844 633 785 b 411 422 633 479 532 422 l 189 422 z "},"Ř":{"ha":800,"x_min":0,"x_max":0,"o":"m 451 1200 l 356 1100 l 260 1200 l 156 1200 l 356 1011 l 556 1200 z m 744 0 l 486 340 b 722 640 638 369 722 489 b 367 933 722 817 610 933 l 100 933 l 100 0 l 189 0 l 189 333 l 388 333 l 639 0 z m 189 844 l 404 844 b 633 632 525 844 633 785 b 411 422 633 479 532 422 l 189 422 z "},"Ŗ":{"ha":800,"x_min":0,"x_max":0,"o":"m 744 0 l 486 340 b 722 640 638 369 722 489 b 367 933 722 817 610 933 l 100 933 l 100 0 l 189 0 l 189 333 l 388 333 l 639 0 z m 189 844 l 404 844 b 633 632 525 844 633 785 b 411 422 633 479 532 422 l 189 422 z m 278 -244 l 333 -244 l 433 -89 l 322 -89 z "},"S":{"ha":778,"x_min":0,"x_max":0,"o":"m 408 528 b 178 701 249 560 178 604 b 399 856 178 801 278 856 b 636 757 507 856 590 807 l 678 833 b 400 944 572 940 438 944 b 89 696 210 944 89 833 b 399 439 89 571 147 485 b 633 257 579 406 633 343 b 394 78 633 157 525 78 b 100 219 257 78 157 144 l 56 140 b 392 -11 72 117 181 -11 b 722 251 585 -11 722 111 b 408 528 722 408 638 482 z "},"Ś":{"ha":778,"x_min":0,"x_max":0,"o":"m 322 1022 l 389 1022 l 544 1200 l 433 1200 z m 408 528 b 178 701 249 560 178 604 b 399 856 178 801 278 856 b 636 757 507 856 590 807 l 678 833 b 400 944 572 940 438 944 b 89 696 210 944 89 833 b 399 439 89 571 147 485 b 633 257 579 406 633 343 b 394 78 633 157 525 78 b 100 219 257 78 157 144 l 56 140 b 392 -11 72 117 181 -11 b 722 251 585 -11 722 111 b 408 528 722 408 638 482 z "},"Š":{"ha":778,"x_min":0,"x_max":0,"o":"m 485 1200 l 389 1100 l 293 1200 l 189 1200 l 389 1011 l 589 1200 z m 408 528 b 178 701 249 560 178 604 b 399 856 178 801 278 856 b 636 757 507 856 590 807 l 678 833 b 400 944 572 940 438 944 b 89 696 210 944 89 833 b 399 439 89 571 147 485 b 633 257 579 406 633 343 b 394 78 633 157 525 78 b 100 219 257 78 157 144 l 56 140 b 392 -11 72 117 181 -11 b 722 251 585 -11 722 111 b 408 528 722 408 638 482 z "},"Ş":{"ha":778,"x_min":0,"x_max":0,"o":"m 722 251 b 408 528 722 408 638 482 b 178 701 249 560 178 604 b 399 856 178 801 278 856 b 636 757 507 856 590 807 l 678 833 b 400 944 572 940 438 944 b 89 696 210 944 89 833 b 399 439 89 571 147 485 b 633 257 579 406 633 343 b 394 78 633 157 525 78 b 100 219 257 78 157 144 l 56 140 b 339 -8 71 118 163 11 l 263 -89 l 307 -156 b 400 -122 329 -137 360 -122 b 511 -221 467 -122 511 -165 b 378 -344 511 -285 458 -344 b 261 -278 314 -344 276 -310 l 200 -335 b 368 -422 231 -381 283 -422 b 578 -222 493 -422 578 -336 b 369 -71 578 -118 485 -43 l 426 -10 b 722 251 601 4 722 119 z "},"Ș":{"ha":778,"x_min":0,"x_max":0,"o":"m 408 528 b 178 701 249 560 178 604 b 399 856 178 801 278 856 b 636 757 507 856 590 807 l 678 833 b 400 944 572 940 438 944 b 89 696 210 944 89 833 b 399 439 89 571 147 485 b 633 257 579 406 633 343 b 394 78 633 157 525 78 b 100 219 257 78 157 144 l 56 140 b 392 -11 72 117 181 -11 b 722 251 585 -11 722 111 b 408 528 722 408 638 482 z m 289 -244 l 344 -244 l 444 -89 l 333 -89 z "},"T":{"ha":689,"x_min":0,"x_max":0,"o":"m 56 933 l 56 844 l 300 844 l 300 0 l 389 0 l 389 844 l 633 844 l 633 933 z "},"Ŧ":{"ha":689,"x_min":0,"x_max":0,"o":"m 633 844 l 633 933 l 56 933 l 56 844 l 300 844 l 300 461 l 211 461 l 211 406 l 300 406 l 300 0 l 389 0 l 389 406 l 478 406 l 478 461 l 389 461 l 389 844 z "},"Ť":{"ha":689,"x_min":0,"x_max":0,"o":"m 440 1200 l 344 1100 l 249 1200 l 144 1200 l 344 1011 l 544 1200 z m 56 933 l 56 844 l 300 844 l 300 0 l 389 0 l 389 844 l 633 844 l 633 933 z "},"Ţ":{"ha":689,"x_min":0,"x_max":0,"o":"m 389 844 l 633 844 l 633 933 l 56 933 l 56 844 l 300 844 l 300 0 l 218 -89 l 263 -156 b 356 -122 285 -137 315 -122 b 467 -221 422 -122 467 -165 b 333 -344 467 -285 414 -344 b 217 -278 269 -344 232 -310 l 156 -335 b 324 -422 186 -381 239 -422 b 533 -222 449 -422 533 -336 b 325 -71 533 -118 440 -43 l 389 0 z "},"Ț":{"ha":689,"x_min":0,"x_max":0,"o":"m 56 933 l 56 844 l 300 844 l 300 0 l 389 0 l 389 844 l 633 844 l 633 933 z m 244 -244 l 300 -244 l 400 -89 l 289 -89 z "},"U":{"ha":822,"x_min":0,"x_max":0,"o":"m 656 933 l 656 378 b 411 78 656 178 561 78 b 167 378 260 78 167 178 l 167 933 l 78 933 l 78 389 b 411 -11 78 132 194 -11 b 744 389 622 -11 744 132 l 744 933 z "},"Ú":{"ha":822,"x_min":0,"x_max":0,"o":"m 333 1022 l 400 1022 l 556 1200 l 444 1200 z m 656 933 l 656 378 b 411 78 656 178 561 78 b 167 378 260 78 167 178 l 167 933 l 78 933 l 78 389 b 411 -11 78 132 194 -11 b 744 389 622 -11 744 132 l 744 933 z "},"Û":{"ha":822,"x_min":0,"x_max":0,"o":"m 507 1022 l 611 1022 l 411 1211 l 211 1022 l 315 1022 l 411 1122 z m 656 933 l 656 378 b 411 78 656 178 561 78 b 167 378 260 78 167 178 l 167 933 l 78 933 l 78 389 b 411 -11 78 132 194 -11 b 744 389 622 -11 744 132 l 744 933 z "},"Ü":{"ha":822,"x_min":0,"x_max":0,"o":"m 300 1022 b 367 1089 338 1022 367 1051 b 300 1156 367 1126 338 1156 b 233 1089 263 1156 233 1126 b 300 1022 233 1051 263 1022 z m 522 1022 b 589 1089 560 1022 589 1051 b 522 1156 589 1126 560 1156 b 456 1089 485 1156 456 1126 b 522 1022 456 1051 485 1022 z m 656 933 l 656 378 b 411 78 656 178 561 78 b 167 378 260 78 167 178 l 167 933 l 78 933 l 78 389 b 411 -11 78 132 194 -11 b 744 389 622 -11 744 132 l 744 933 z "},"Ù":{"ha":822,"x_min":0,"x_max":0,"o":"m 489 1022 l 378 1200 l 267 1200 l 422 1022 z m 656 933 l 656 378 b 411 78 656 178 561 78 b 167 378 260 78 167 178 l 167 933 l 78 933 l 78 389 b 411 -11 78 132 194 -11 b 744 389 622 -11 744 132 l 744 933 z "},"Ű":{"ha":822,"x_min":0,"x_max":0,"o":"m 200 1022 l 267 1022 l 367 1178 l 244 1178 z m 511 1022 l 578 1022 l 678 1178 l 556 1178 z m 656 933 l 656 378 b 411 78 656 178 561 78 b 167 378 260 78 167 178 l 167 933 l 78 933 l 78 389 b 411 -11 78 132 194 -11 b 744 389 622 -11 744 132 l 744 933 z "},"Ū":{"ha":822,"x_min":0,"x_max":0,"o":"m 589 1044 l 589 1111 l 233 1111 l 233 1044 z m 656 933 l 656 378 b 411 78 656 178 561 78 b 167 378 260 78 167 178 l 167 933 l 78 933 l 78 389 b 411 -11 78 132 194 -11 b 744 389 622 -11 744 132 l 744 933 z "},"Ų":{"ha":822,"x_min":0,"x_max":0,"o":"m 656 933 l 656 378 b 411 78 656 178 561 78 b 167 378 260 78 167 178 l 167 933 l 78 933 l 78 389 b 354 -7 78 156 174 15 b 311 -122 331 -35 311 -75 b 469 -289 311 -221 371 -289 b 544 -267 494 -289 525 -281 l 522 -208 b 378 -122 460 -240 378 -208 b 447 -10 378 -65 411 -14 b 744 389 636 7 744 147 l 744 933 z "},"Ů":{"ha":822,"x_min":0,"x_max":0,"o":"m 411 1289 b 267 1144 331 1289 267 1225 b 411 1000 267 1064 331 1000 b 556 1144 492 1000 556 1064 b 411 1289 556 1225 492 1289 z m 411 1067 b 333 1144 368 1067 333 1101 b 411 1222 333 1188 368 1222 b 489 1144 454 1222 489 1188 b 411 1067 489 1101 454 1067 z m 656 933 l 656 378 b 411 78 656 178 561 78 b 167 378 260 78 167 178 l 167 933 l 78 933 l 78 389 b 411 -11 78 132 194 -11 b 744 389 622 -11 744 132 l 744 933 z "},"V":{"ha":867,"x_min":0,"x_max":0,"o":"m 433 -22 l 856 933 l 756 933 l 433 189 l 111 933 l 11 933 z "},"W":{"ha":1333,"x_min":0,"x_max":0,"o":"m 1211 933 l 925 222 l 667 956 l 408 222 l 122 933 l 22 933 l 411 -22 l 667 706 l 922 -22 l 1311 933 z "},"Ẃ":{"ha":1333,"x_min":0,"x_max":0,"o":"m 589 1022 l 656 1022 l 811 1200 l 700 1200 z m 1211 933 l 925 222 l 667 956 l 408 222 l 122 933 l 22 933 l 411 -22 l 667 706 l 922 -22 l 1311 933 z "},"Ŵ":{"ha":1333,"x_min":0,"x_max":0,"o":"m 763 1022 l 867 1022 l 667 1211 l 467 1022 l 571 1022 l 667 1122 z m 1211 933 l 925 222 l 667 956 l 408 222 l 122 933 l 22 933 l 411 -22 l 667 706 l 922 -22 l 1311 933 z "},"Ẅ":{"ha":1333,"x_min":0,"x_max":0,"o":"m 556 1022 b 622 1089 593 1022 622 1051 b 556 1156 622 1126 593 1156 b 489 1089 518 1156 489 1126 b 556 1022 489 1051 518 1022 z m 778 1022 b 844 1089 815 1022 844 1051 b 778 1156 844 1126 815 1156 b 711 1089 740 1156 711 1126 b 778 1022 711 1051 740 1022 z m 1211 933 l 925 222 l 667 956 l 408 222 l 122 933 l 22 933 l 411 -22 l 667 706 l 922 -22 l 1311 933 z "},"Ẁ":{"ha":1333,"x_min":0,"x_max":0,"o":"m 744 1022 l 633 1200 l 522 1200 l 678 1022 z m 1211 933 l 925 222 l 667 956 l 408 222 l 122 933 l 22 933 l 411 -22 l 667 706 l 922 -22 l 1311 933 z "},"X":{"ha":867,"x_min":0,"x_max":0,"o":"m 833 0 l 489 482 l 811 933 l 697 933 l 433 556 l 169 933 l 56 933 l 378 482 l 33 0 l 149 0 l 433 406 l 718 0 z "},"Y":{"ha":778,"x_min":0,"x_max":0,"o":"m 667 933 l 389 506 l 111 933 l 11 933 l 344 422 l 344 0 l 433 0 l 433 422 l 767 933 z "},"Ý":{"ha":778,"x_min":0,"x_max":0,"o":"m 322 1022 l 389 1022 l 544 1200 l 433 1200 z m 667 933 l 389 506 l 111 933 l 11 933 l 344 422 l 344 0 l 433 0 l 433 422 l 767 933 z "},"Ŷ":{"ha":778,"x_min":0,"x_max":0,"o":"m 485 1022 l 589 1022 l 389 1211 l 189 1022 l 293 1022 l 389 1122 z m 667 933 l 389 506 l 111 933 l 11 933 l 344 422 l 344 0 l 433 0 l 433 422 l 767 933 z "},"Ÿ":{"ha":778,"x_min":0,"x_max":0,"o":"m 278 1022 b 344 1089 315 1022 344 1051 b 278 1156 344 1126 315 1156 b 211 1089 240 1156 211 1126 b 278 1022 211 1051 240 1022 z m 500 1022 b 567 1089 538 1022 567 1051 b 500 1156 567 1126 538 1156 b 433 1089 463 1156 433 1126 b 500 1022 433 1051 463 1022 z m 667 933 l 389 506 l 111 933 l 11 933 l 344 422 l 344 0 l 433 0 l 433 422 l 767 933 z "},"Ỳ":{"ha":778,"x_min":0,"x_max":0,"o":"m 456 1022 l 344 1200 l 233 1200 l 389 1022 z m 667 933 l 389 506 l 111 933 l 11 933 l 344 422 l 344 0 l 433 0 l 433 422 l 767 933 z "},"Z":{"ha":778,"x_min":0,"x_max":0,"o":"m 700 0 l 700 89 l 208 89 l 722 933 l 78 933 l 78 844 l 569 844 l 56 0 z "},"Ź":{"ha":778,"x_min":0,"x_max":0,"o":"m 322 1022 l 389 1022 l 544 1200 l 433 1200 z m 700 0 l 700 89 l 208 89 l 722 933 l 78 933 l 78 844 l 569 844 l 56 0 z "},"Ž":{"ha":778,"x_min":0,"x_max":0,"o":"m 485 1200 l 389 1100 l 293 1200 l 189 1200 l 389 1011 l 589 1200 z m 700 0 l 700 89 l 208 89 l 722 933 l 78 933 l 78 844 l 569 844 l 56 0 z "},"Ż":{"ha":778,"x_min":0,"x_max":0,"o":"m 389 1000 b 478 1089 439 1000 478 1039 b 389 1178 478 1139 439 1178 b 300 1089 339 1178 300 1139 b 389 1000 300 1039 339 1000 z m 700 0 l 700 89 l 208 89 l 722 933 l 78 933 l 78 844 l 569 844 l 56 0 z "},"a":{"ha":844,"x_min":0,"x_max":0,"o":"m 656 667 l 656 549 b 400 678 599 626 508 678 b 56 333 210 678 56 524 b 400 -11 56 143 210 -11 b 656 118 508 -11 599 40 l 656 0 l 744 0 l 744 667 z m 400 78 b 144 333 258 78 144 192 b 400 589 144 475 258 589 b 656 333 542 589 656 475 b 400 78 656 192 542 78 z "},"á":{"ha":844,"x_min":0,"x_max":0,"o":"m 378 756 l 444 756 l 600 933 l 489 933 z m 656 667 l 656 549 b 400 678 599 626 508 678 b 56 333 210 678 56 524 b 400 -11 56 143 210 -11 b 656 118 508 -11 599 40 l 656 0 l 744 0 l 744 667 z m 400 78 b 144 333 258 78 144 192 b 400 589 144 475 258 589 b 656 333 542 589 656 475 b 400 78 656 192 542 78 z "},"ă":{"ha":844,"x_min":0,"x_max":0,"o":"m 544 928 b 439 822 544 869 497 822 b 333 928 381 822 333 869 l 267 928 b 439 756 267 832 343 756 b 611 928 535 756 611 832 z m 656 667 l 656 549 b 400 678 599 626 508 678 b 56 333 210 678 56 524 b 400 -11 56 143 210 -11 b 656 118 508 -11 599 40 l 656 0 l 744 0 l 744 667 z m 400 78 b 144 333 258 78 144 192 b 400 589 144 475 258 589 b 656 333 542 589 656 475 b 400 78 656 192 542 78 z "},"â":{"ha":844,"x_min":0,"x_max":0,"o":"m 540 756 l 644 756 l 444 944 l 244 756 l 349 756 l 444 856 z m 656 667 l 656 549 b 400 678 599 626 508 678 b 56 333 210 678 56 524 b 400 -11 56 143 210 -11 b 656 118 508 -11 599 40 l 656 0 l 744 0 l 744 667 z m 400 78 b 144 333 258 78 144 192 b 400 589 144 475 258 589 b 656 333 542 589 656 475 b 400 78 656 192 542 78 z "},"ä":{"ha":844,"x_min":0,"x_max":0,"o":"m 333 756 b 400 822 371 756 400 785 b 333 889 400 860 371 889 b 267 822 296 889 267 860 b 333 756 267 785 296 756 z m 556 756 b 622 822 593 756 622 785 b 556 889 622 860 593 889 b 489 822 518 889 489 860 b 556 756 489 785 518 756 z m 656 667 l 656 549 b 400 678 599 626 508 678 b 56 333 210 678 56 524 b 400 -11 56 143 210 -11 b 656 118 508 -11 599 40 l 656 0 l 744 0 l 744 667 z m 400 78 b 144 333 258 78 144 192 b 400 589 144 475 258 589 b 656 333 542 589 656 475 b 400 78 656 192 542 78 z "},"à":{"ha":844,"x_min":0,"x_max":0,"o":"m 578 756 l 467 933 l 356 933 l 511 756 z m 656 667 l 656 549 b 400 678 599 626 508 678 b 56 333 210 678 56 524 b 400 -11 56 143 210 -11 b 656 118 508 -11 599 40 l 656 0 l 744 0 l 744 667 z m 400 78 b 144 333 258 78 144 192 b 400 589 144 475 258 589 b 656 333 542 589 656 475 b 400 78 656 192 542 78 z "},"ā":{"ha":844,"x_min":0,"x_max":0,"o":"m 622 778 l 622 844 l 267 844 l 267 778 z m 656 667 l 656 549 b 400 678 599 626 508 678 b 56 333 210 678 56 524 b 400 -11 56 143 210 -11 b 656 118 508 -11 599 40 l 656 0 l 744 0 l 744 667 z m 400 78 b 144 333 258 78 144 192 b 400 589 144 475 258 589 b 656 333 542 589 656 475 b 400 78 656 192 542 78 z "},"ą":{"ha":844,"x_min":0,"x_max":0,"o":"m 778 -208 b 633 -122 715 -240 633 -208 b 744 0 633 -44 696 0 l 744 667 l 656 667 l 656 549 b 400 678 599 626 508 678 b 56 333 210 678 56 524 b 400 -11 56 143 210 -11 b 656 118 508 -11 599 40 l 656 33 b 567 -122 621 11 567 -42 b 725 -289 567 -221 626 -289 b 800 -267 750 -289 781 -281 z m 400 78 b 144 333 258 78 144 192 b 400 589 144 475 258 589 b 656 333 542 589 656 475 b 400 78 656 192 542 78 z "},"å":{"ha":844,"x_min":0,"x_max":0,"o":"m 456 1000 b 311 856 375 1000 311 936 b 456 711 311 775 375 711 b 600 856 536 711 600 775 b 456 1000 600 936 536 1000 z m 456 778 b 378 856 413 778 378 813 b 456 933 378 899 413 933 b 533 856 499 933 533 899 b 456 778 533 813 499 778 z m 656 667 l 656 549 b 400 678 599 626 508 678 b 56 333 210 678 56 524 b 400 -11 56 143 210 -11 b 656 118 508 -11 599 40 l 656 0 l 744 0 l 744 667 z m 400 78 b 144 333 258 78 144 192 b 400 589 144 475 258 589 b 656 333 542 589 656 475 b 400 78 656 192 542 78 z "},"ǻ":{"ha":844,"x_min":0,"x_max":0,"o":"m 378 1044 l 444 1044 l 600 1222 l 489 1222 z m 456 1000 b 311 856 375 1000 311 936 b 456 711 311 775 375 711 b 600 856 536 711 600 775 b 456 1000 600 936 536 1000 z m 456 778 b 378 856 413 778 378 813 b 456 933 378 899 413 933 b 533 856 499 933 533 899 b 456 778 533 813 499 778 z m 656 667 l 656 549 b 400 678 599 626 508 678 b 56 333 210 678 56 524 b 400 -11 56 143 210 -11 b 656 118 508 -11 599 40 l 656 0 l 744 0 l 744 667 z m 400 78 b 144 333 258 78 144 192 b 400 589 144 475 258 589 b 656 333 542 589 656 475 b 400 78 656 192 542 78 z "},"ã":{"ha":844,"x_min":0,"x_max":0,"o":"m 596 871 b 453 847 567 814 519 818 b 364 871 424 858 399 871 b 222 779 315 871 261 851 l 293 756 b 433 781 322 806 368 808 b 528 756 463 769 493 756 b 667 850 575 756 629 774 z m 656 667 l 656 549 b 400 678 599 626 508 678 b 56 333 210 678 56 524 b 400 -11 56 143 210 -11 b 656 118 508 -11 599 40 l 656 0 l 744 0 l 744 667 z m 400 78 b 144 333 258 78 144 192 b 400 589 144 475 258 589 b 656 333 542 589 656 475 b 400 78 656 192 542 78 z "},"æ":{"ha":1267,"x_min":0,"x_max":0,"o":"m 1211 336 b 899 678 1211 550 1075 678 b 619 531 772 678 676 619 b 367 678 581 611 479 678 b 83 589 201 678 106 606 l 129 514 b 353 589 171 551 264 589 b 567 389 460 589 567 522 b 201 390 476 410 301 425 b 56 200 96 354 56 275 b 306 -11 56 67 156 -11 b 567 90 422 -11 524 38 l 567 0 l 656 0 l 656 94 b 917 -11 715 29 804 -11 b 1167 69 1061 -11 1149 54 l 1133 150 b 919 78 1078 107 1006 78 b 658 289 778 78 672 163 l 1207 289 b 1211 336 1210 304 1211 322 z m 658 378 b 894 589 663 472 736 589 b 1121 378 1051 589 1117 469 z m 567 244 b 308 78 567 169 431 78 b 144 203 244 78 144 103 b 356 322 144 289 226 322 b 567 300 415 322 494 317 z "},"ǽ":{"ha":1267,"x_min":0,"x_max":0,"o":"m 544 756 l 611 756 l 767 933 l 656 933 z m 1211 336 b 899 678 1211 550 1075 678 b 619 531 772 678 676 619 b 367 678 581 611 479 678 b 83 589 201 678 106 606 l 129 514 b 353 589 171 551 264 589 b 567 389 460 589 567 522 b 201 390 476 410 301 425 b 56 200 96 354 56 275 b 306 -11 56 67 156 -11 b 567 90 422 -11 524 38 l 567 0 l 656 0 l 656 94 b 917 -11 715 29 804 -11 b 1167 69 1061 -11 1149 54 l 1133 150 b 919 78 1078 107 1006 78 b 658 289 778 78 672 163 l 1207 289 b 1211 336 1210 304 1211 322 z m 658 378 b 894 589 663 472 736 589 b 1121 378 1051 589 1117 469 z m 567 244 b 308 78 567 169 431 78 b 144 203 244 78 144 103 b 356 322 144 289 226 322 b 567 300 415 322 494 317 z "},"b":{"ha":844,"x_min":0,"x_max":0,"o":"m 189 978 l 100 978 l 100 0 l 189 0 l 189 118 b 444 -11 246 40 336 -11 b 789 333 635 -11 789 143 b 444 678 789 524 635 678 b 189 549 336 678 246 626 z m 444 78 b 189 333 303 78 189 192 b 444 589 189 475 303 589 b 700 333 586 589 700 475 b 444 78 700 192 586 78 z "},"c":{"ha":689,"x_min":0,"x_max":0,"o":"m 596 144 b 414 78 549 103 485 78 b 144 333 246 78 144 192 b 414 589 144 474 249 589 b 594 528 492 589 550 567 l 633 608 b 415 678 575 656 503 678 b 56 333 190 678 56 524 b 415 -11 56 143 188 -11 b 633 64 496 -11 581 15 z "},"ć":{"ha":689,"x_min":0,"x_max":0,"o":"m 333 756 l 400 756 l 556 933 l 444 933 z m 596 144 b 414 78 549 103 485 78 b 144 333 246 78 144 192 b 414 589 144 474 249 589 b 594 528 492 589 550 567 l 633 608 b 415 678 575 656 503 678 b 56 333 190 678 56 524 b 415 -11 56 143 188 -11 b 633 64 496 -11 581 15 z "},"č":{"ha":689,"x_min":0,"x_max":0,"o":"m 496 933 l 400 833 l 304 933 l 200 933 l 400 744 l 600 933 z m 596 144 b 414 78 549 103 485 78 b 144 333 246 78 144 192 b 414 589 144 474 249 589 b 594 528 492 589 550 567 l 633 608 b 415 678 575 656 503 678 b 56 333 190 678 56 524 b 415 -11 56 143 188 -11 b 633 64 496 -11 581 15 z "},"ç":{"ha":689,"x_min":0,"x_max":0,"o":"m 633 64 l 596 144 b 414 78 549 103 485 78 b 144 333 246 78 144 192 b 414 589 144 474 249 589 b 594 528 492 589 550 567 l 633 608 b 415 678 575 656 503 678 b 56 333 190 678 56 524 b 350 -7 56 163 163 19 l 274 -89 l 318 -156 b 411 -122 340 -137 371 -122 b 522 -221 478 -122 522 -165 b 389 -344 522 -285 469 -344 b 272 -278 325 -344 288 -310 l 211 -335 b 379 -422 242 -381 294 -422 b 589 -222 504 -422 589 -336 b 381 -71 589 -118 496 -43 l 436 -11 b 633 64 510 -7 585 19 z "},"ċ":{"ha":689,"x_min":0,"x_max":0,"o":"m 400 733 b 489 822 450 733 489 772 b 400 911 489 872 450 911 b 311 822 350 911 311 872 b 400 733 311 772 350 733 z m 596 144 b 414 78 549 103 485 78 b 144 333 246 78 144 192 b 414 589 144 474 249 589 b 594 528 492 589 550 567 l 633 608 b 415 678 575 656 503 678 b 56 333 190 678 56 524 b 415 -11 56 143 188 -11 b 633 64 496 -11 581 15 z "},"d":{"ha":844,"x_min":0,"x_max":0,"o":"m 656 978 l 656 549 b 400 678 599 626 508 678 b 56 333 210 678 56 524 b 400 -11 56 143 210 -11 b 656 118 508 -11 599 40 l 656 0 l 744 0 l 744 978 z m 400 78 b 144 333 258 78 144 192 b 400 589 144 475 258 589 b 656 333 542 589 656 475 b 400 78 656 192 542 78 z "},"ð":{"ha":800,"x_min":0,"x_max":0,"o":"m 396 844 l 589 911 l 589 979 l 336 892 l 192 1000 l 122 949 l 243 856 l 78 799 l 78 732 l 301 810 b 476 667 336 783 419 728 b 400 678 453 675 424 678 b 56 333 210 678 56 524 b 400 -11 56 143 210 -11 b 744 333 590 -11 744 143 b 396 844 744 464 685 625 z m 400 78 b 144 333 261 78 144 194 b 400 589 144 472 261 589 b 656 333 539 589 656 472 b 400 78 656 194 539 78 z "},"ď":{"ha":1000,"x_min":0,"x_max":0,"o":"m 656 978 l 656 549 b 400 678 599 626 508 678 b 56 333 210 678 56 524 b 400 -11 56 143 210 -11 b 656 118 508 -11 599 40 l 656 0 l 744 0 l 744 978 z m 789 778 l 844 778 l 944 933 l 833 933 z m 400 78 b 144 333 258 78 144 192 b 400 589 144 475 258 589 b 656 333 542 589 656 475 b 400 78 656 192 542 78 z "},"đ":{"ha":867,"x_min":0,"x_max":0,"o":"m 833 839 l 744 839 l 744 978 l 656 978 l 656 839 l 567 839 l 567 783 l 656 783 l 656 549 b 400 678 599 626 508 678 b 56 333 210 678 56 524 b 400 -11 56 143 210 -11 b 656 118 508 -11 599 40 l 656 0 l 744 0 l 744 783 l 833 783 z m 400 78 b 144 333 258 78 144 192 b 400 589 144 475 258 589 b 656 333 542 589 656 475 b 400 78 656 192 542 78 z "},"e":{"ha":756,"x_min":0,"x_max":0,"o":"m 700 336 b 388 678 700 550 564 678 b 56 333 183 678 56 526 b 406 -11 56 146 186 -11 b 656 69 550 -11 638 54 l 622 150 b 408 78 567 107 494 78 b 147 289 267 78 161 163 l 696 289 b 700 336 699 304 700 322 z m 147 378 b 383 589 151 472 225 589 b 610 378 540 589 606 469 z "},"é":{"ha":756,"x_min":0,"x_max":0,"o":"m 322 756 l 389 756 l 544 933 l 433 933 z m 700 336 b 388 678 700 550 564 678 b 56 333 183 678 56 526 b 406 -11 56 146 186 -11 b 656 69 550 -11 638 54 l 622 150 b 408 78 567 107 494 78 b 147 289 267 78 161 163 l 696 289 b 700 336 699 304 700 322 z m 147 378 b 383 589 151 472 225 589 b 610 378 540 589 606 469 z "},"ě":{"ha":756,"x_min":0,"x_max":0,"o":"m 474 933 l 378 833 l 282 933 l 178 933 l 378 744 l 578 933 z m 700 336 b 388 678 700 550 564 678 b 56 333 183 678 56 526 b 406 -11 56 146 186 -11 b 656 69 550 -11 638 54 l 622 150 b 408 78 567 107 494 78 b 147 289 267 78 161 163 l 696 289 b 700 336 699 304 700 322 z m 147 378 b 383 589 151 472 225 589 b 610 378 540 589 606 469 z "},"ê":{"ha":756,"x_min":0,"x_max":0,"o":"m 474 756 l 578 756 l 378 944 l 178 756 l 282 756 l 378 856 z m 700 336 b 388 678 700 550 564 678 b 56 333 183 678 56 526 b 406 -11 56 146 186 -11 b 656 69 550 -11 638 54 l 622 150 b 408 78 567 107 494 78 b 147 289 267 78 161 163 l 696 289 b 700 336 699 304 700 322 z m 147 378 b 383 589 151 472 225 589 b 610 378 540 589 606 469 z "},"ë":{"ha":756,"x_min":0,"x_max":0,"o":"m 267 756 b 333 822 304 756 333 785 b 267 889 333 860 304 889 b 200 822 229 889 200 860 b 267 756 200 785 229 756 z m 489 756 b 556 822 526 756 556 785 b 489 889 556 860 526 889 b 422 822 451 889 422 860 b 489 756 422 785 451 756 z m 700 336 b 388 678 700 550 564 678 b 56 333 183 678 56 526 b 406 -11 56 146 186 -11 b 656 69 550 -11 638 54 l 622 150 b 408 78 567 107 494 78 b 147 289 267 78 161 163 l 696 289 b 700 336 699 304 700 322 z m 147 378 b 383 589 151 472 225 589 b 610 378 540 589 606 469 z "},"ė":{"ha":756,"x_min":0,"x_max":0,"o":"m 386 733 b 475 822 436 733 475 772 b 386 911 475 872 436 911 b 297 822 336 911 297 872 b 386 733 297 772 336 733 z m 700 336 b 388 678 700 550 564 678 b 56 333 183 678 56 526 b 406 -11 56 146 186 -11 b 656 69 550 -11 638 54 l 622 150 b 408 78 567 107 494 78 b 147 289 267 78 161 163 l 696 289 b 700 336 699 304 700 322 z m 147 378 b 383 589 151 472 225 589 b 610 378 540 589 606 469 z "},"è":{"ha":756,"x_min":0,"x_max":0,"o":"m 467 756 l 356 933 l 244 933 l 400 756 z m 700 336 b 388 678 700 550 564 678 b 56 333 183 678 56 526 b 406 -11 56 146 186 -11 b 656 69 550 -11 638 54 l 622 150 b 408 78 567 107 494 78 b 147 289 267 78 161 163 l 696 289 b 700 336 699 304 700 322 z m 147 378 b 383 589 151 472 225 589 b 610 378 540 589 606 469 z "},"ē":{"ha":756,"x_min":0,"x_max":0,"o":"m 556 778 l 556 844 l 200 844 l 200 778 z m 700 336 b 388 678 700 550 564 678 b 56 333 183 678 56 526 b 406 -11 56 146 186 -11 b 656 69 550 -11 638 54 l 622 150 b 408 78 567 107 494 78 b 147 289 267 78 161 163 l 696 289 b 700 336 699 304 700 322 z m 147 378 b 383 589 151 472 225 589 b 610 378 540 589 606 469 z "},"ę":{"ha":756,"x_min":0,"x_max":0,"o":"m 700 336 b 388 678 700 550 564 678 b 56 333 183 678 56 526 b 354 -8 56 161 165 15 b 311 -122 331 -35 311 -76 b 469 -289 311 -221 371 -289 b 544 -267 494 -289 525 -281 l 522 -208 b 378 -122 460 -240 378 -208 b 457 -8 378 -61 414 -12 b 656 69 571 4 640 56 l 622 150 b 408 78 567 107 494 78 b 147 289 267 78 161 163 l 696 289 b 700 336 699 304 700 322 z m 147 378 b 383 589 151 472 225 589 b 610 378 540 589 606 469 z "},"f":{"ha":467,"x_min":0,"x_max":0,"o":"m 56 667 l 56 578 l 144 578 l 144 0 l 233 0 l 233 578 l 389 578 l 389 667 l 233 667 l 233 776 b 317 900 233 867 257 900 b 389 883 347 900 369 893 l 389 969 b 303 989 361 982 336 989 b 144 736 185 989 144 910 l 144 667 z "},"g":{"ha":844,"x_min":0,"x_max":0,"o":"m 656 667 l 656 549 b 400 678 599 626 508 678 b 56 333 210 678 56 524 b 400 -11 56 143 210 -11 b 656 118 508 -11 599 40 l 656 22 b 394 -278 656 -186 550 -278 b 122 -178 271 -278 182 -226 l 78 -256 b 394 -367 107 -279 222 -367 b 744 42 613 -367 744 -236 l 744 667 z m 400 78 b 144 333 258 78 144 192 b 400 589 144 475 258 589 b 656 333 542 589 656 475 b 400 78 656 192 542 78 z "},"ğ":{"ha":844,"x_min":0,"x_max":0,"o":"m 544 928 b 439 822 544 869 497 822 b 333 928 381 822 333 869 l 267 928 b 439 756 267 832 343 756 b 611 928 535 756 611 832 z m 656 667 l 656 549 b 400 678 599 626 508 678 b 56 333 210 678 56 524 b 400 -11 56 143 210 -11 b 656 118 508 -11 599 40 l 656 22 b 394 -278 656 -186 550 -278 b 122 -178 271 -278 182 -226 l 78 -256 b 394 -367 107 -279 222 -367 b 744 42 613 -367 744 -236 l 744 667 z m 400 78 b 144 333 258 78 144 192 b 400 589 144 475 258 589 b 656 333 542 589 656 475 b 400 78 656 192 542 78 z "},"ģ":{"ha":844,"x_min":0,"x_max":0,"o":"m 544 911 l 489 911 l 389 756 l 500 756 z m 656 667 l 656 549 b 400 678 599 626 508 678 b 56 333 210 678 56 524 b 400 -11 56 143 210 -11 b 656 118 508 -11 599 40 l 656 22 b 394 -278 656 -186 550 -278 b 122 -178 271 -278 182 -226 l 78 -256 b 394 -367 107 -279 222 -367 b 744 42 613 -367 744 -236 l 744 667 z m 400 78 b 144 333 258 78 144 192 b 400 589 144 475 258 589 b 656 333 542 589 656 475 b 400 78 656 192 542 78 z "},"ġ":{"ha":844,"x_min":0,"x_max":0,"o":"m 422 733 b 511 822 472 733 511 772 b 422 911 511 872 472 911 b 333 822 372 911 333 872 b 422 733 333 772 372 733 z m 656 667 l 656 549 b 400 678 599 626 508 678 b 56 333 210 678 56 524 b 400 -11 56 143 210 -11 b 656 118 508 -11 599 40 l 656 22 b 394 -278 656 -186 550 -278 b 122 -178 271 -278 182 -226 l 78 -256 b 394 -367 107 -279 222 -367 b 744 42 613 -367 744 -236 l 744 667 z m 400 78 b 144 333 258 78 144 192 b 400 589 144 475 258 589 b 656 333 542 589 656 475 b 400 78 656 192 542 78 z "},"h":{"ha":756,"x_min":0,"x_max":0,"o":"m 408 678 b 189 564 315 678 224 619 l 189 978 l 100 978 l 100 0 l 189 0 l 189 389 b 411 589 189 514 308 589 b 589 394 547 589 589 501 l 589 0 l 678 0 l 678 372 b 408 678 678 569 600 678 z "},"ħ":{"ha":778,"x_min":0,"x_max":0,"o":"m 431 678 b 211 564 338 678 246 619 l 211 783 l 300 783 l 300 839 l 211 839 l 211 978 l 122 978 l 122 839 l 33 839 l 33 783 l 122 783 l 122 0 l 211 0 l 211 389 b 433 589 211 514 331 589 b 611 394 569 589 611 501 l 611 0 l 700 0 l 700 372 b 431 678 700 569 622 678 z "},"i":{"ha":289,"x_min":0,"x_max":0,"o":"m 144 778 b 222 856 188 778 222 813 b 144 933 222 899 188 933 b 67 856 101 933 67 899 b 144 778 67 813 101 778 z m 100 0 l 189 0 l 189 667 l 100 667 z "},"ı":{"ha":289,"x_min":0,"x_max":0,"o":"m 100 0 l 189 0 l 189 667 l 100 667 z "},"í":{"ha":289,"x_min":0,"x_max":0,"o":"m 100 756 l 167 756 l 322 933 l 211 933 z m 100 0 l 189 0 l 189 667 l 100 667 z "},"î":{"ha":289,"x_min":0,"x_max":0,"o":"m 240 756 l 344 756 l 144 944 l -56 756 l 49 756 l 144 856 z m 100 0 l 189 0 l 189 667 l 100 667 z "},"ï":{"ha":289,"x_min":0,"x_max":0,"o":"m 33 756 b 100 822 71 756 100 785 b 33 889 100 860 71 889 b -33 822 -4 889 -33 860 b 33 756 -33 785 -4 756 z m 256 756 b 322 822 293 756 322 785 b 256 889 322 860 293 889 b 189 822 218 889 189 860 b 256 756 189 785 218 756 z m 100 0 l 189 0 l 189 667 l 100 667 z "},"ì":{"ha":289,"x_min":0,"x_max":0,"o":"m 189 756 l 78 933 l -33 933 l 122 756 z m 100 0 l 189 0 l 189 667 l 100 667 z "},"ĳ":{"ha":578,"x_min":0,"x_max":0,"o":"m 144 778 b 222 856 188 778 222 813 b 144 933 222 899 188 933 b 67 856 101 933 67 899 b 144 778 67 813 101 778 z m 433 778 b 511 856 476 778 511 813 b 433 933 511 899 476 933 b 356 856 390 933 356 899 b 433 778 356 813 390 778 z m 100 0 l 189 0 l 189 667 l 100 667 z m 389 -61 b 256 -286 389 -208 349 -267 l 278 -367 b 478 -47 360 -354 478 -326 l 478 667 l 389 667 z "},"ī":{"ha":289,"x_min":0,"x_max":0,"o":"m 322 778 l 322 844 l -33 844 l -33 778 z m 100 0 l 189 0 l 189 667 l 100 667 z "},"į":{"ha":289,"x_min":0,"x_max":0,"o":"m 144 778 b 222 856 188 778 222 813 b 144 933 222 899 188 933 b 67 856 101 933 67 899 b 144 778 67 813 101 778 z m 222 -208 b 78 -122 160 -240 78 -208 b 189 0 78 -44 140 0 l 189 667 l 100 667 l 100 33 b 11 -122 65 11 11 -42 b 169 -289 11 -221 71 -289 b 244 -267 194 -289 225 -281 z "},"j":{"ha":289,"x_min":0,"x_max":0,"o":"m 144 778 b 222 856 188 778 222 813 b 144 933 222 899 188 933 b 67 856 101 933 67 899 b 144 778 67 813 101 778 z m 100 -61 b -33 -286 100 -208 60 -267 l -11 -367 b 189 -47 71 -354 189 -326 l 189 667 l 100 667 z "},"k":{"ha":667,"x_min":0,"x_max":0,"o":"m 278 344 l 633 667 l 511 667 l 189 375 l 189 978 l 100 978 l 100 0 l 189 0 l 189 308 l 533 0 l 656 0 z "},"ķ":{"ha":667,"x_min":0,"x_max":0,"o":"m 278 344 l 633 667 l 511 667 l 189 375 l 189 978 l 100 978 l 100 0 l 189 0 l 189 308 l 533 0 l 656 0 z m 233 -244 l 289 -244 l 389 -89 l 278 -89 z "},"l":{"ha":289,"x_min":0,"x_max":0,"o":"m 100 978 l 100 0 l 189 0 l 189 978 z "},"ĺ":{"ha":289,"x_min":0,"x_max":0,"o":"m 100 1067 l 167 1067 l 322 1244 l 211 1244 z m 100 978 l 100 0 l 189 0 l 189 978 z "},"ľ":{"ha":422,"x_min":0,"x_max":0,"o":"m 100 978 l 100 0 l 189 0 l 189 978 z m 233 778 l 289 778 l 389 933 l 278 933 z "},"ļ":{"ha":289,"x_min":0,"x_max":0,"o":"m 100 978 l 100 0 l 189 0 l 189 978 z m 44 -244 l 100 -244 l 200 -89 l 89 -89 z "},"ŀ":{"ha":467,"x_min":0,"x_max":0,"o":"m 100 978 l 100 0 l 189 0 l 189 978 z m 344 433 b 433 522 394 433 433 472 b 344 611 433 572 394 611 b 256 522 294 611 256 572 b 344 433 256 472 294 433 z "},"ł":{"ha":333,"x_min":0,"x_max":0,"o":"m 300 540 l 211 515 l 211 978 l 122 978 l 122 492 l 33 467 l 33 411 l 122 436 l 122 0 l 211 0 l 211 460 l 300 485 z "},"m":{"ha":1111,"x_min":0,"x_max":0,"o":"m 797 678 b 578 561 703 678 635 638 b 375 678 538 644 461 678 b 189 578 274 678 222 622 l 189 667 l 100 667 l 100 0 l 189 0 l 189 411 b 372 589 189 525 292 589 b 522 417 464 589 522 524 l 522 0 l 611 0 l 611 411 b 794 589 611 525 714 589 b 944 406 897 589 944 524 l 944 0 l 1033 0 l 1033 394 b 797 678 1033 603 944 678 z "},"n":{"ha":756,"x_min":0,"x_max":0,"o":"m 408 678 b 189 564 315 678 224 619 l 189 667 l 100 667 l 100 0 l 189 0 l 189 389 b 411 589 189 514 308 589 b 589 394 547 589 589 501 l 589 0 l 678 0 l 678 372 b 408 678 678 569 600 678 z "},"ń":{"ha":756,"x_min":0,"x_max":0,"o":"m 289 756 l 356 756 l 511 933 l 400 933 z m 408 678 b 189 564 315 678 224 619 l 189 667 l 100 667 l 100 0 l 189 0 l 189 389 b 411 589 189 514 308 589 b 589 394 547 589 589 501 l 589 0 l 678 0 l 678 372 b 408 678 678 569 600 678 z "},"ň":{"ha":756,"x_min":0,"x_max":0,"o":"m 463 933 l 367 833 l 271 933 l 167 933 l 367 744 l 567 933 z m 408 678 b 189 564 315 678 224 619 l 189 667 l 100 667 l 100 0 l 189 0 l 189 389 b 411 589 189 514 308 589 b 589 394 547 589 589 501 l 589 0 l 678 0 l 678 372 b 408 678 678 569 600 678 z "},"ņ":{"ha":756,"x_min":0,"x_max":0,"o":"m 408 678 b 189 564 315 678 224 619 l 189 667 l 100 667 l 100 0 l 189 0 l 189 389 b 411 589 189 514 308 589 b 589 394 547 589 589 501 l 589 0 l 678 0 l 678 372 b 408 678 678 569 600 678 z m 278 -244 l 333 -244 l 433 -89 l 322 -89 z "},"ŋ":{"ha":756,"x_min":0,"x_max":0,"o":"m 408 678 b 189 564 315 678 224 619 l 189 667 l 100 667 l 100 0 l 189 0 l 189 389 b 411 589 189 514 308 589 b 589 394 547 589 589 501 l 589 -61 b 456 -286 589 -208 549 -267 l 478 -367 b 678 -47 560 -354 678 -326 l 678 372 b 408 678 678 569 600 678 z "},"ñ":{"ha":756,"x_min":0,"x_max":0,"o":"m 529 871 b 386 847 500 814 453 818 b 297 871 357 858 332 871 b 156 779 249 871 194 851 l 226 756 b 367 781 256 806 301 808 b 461 756 396 769 426 756 b 600 850 508 756 563 774 z m 408 678 b 189 564 315 678 224 619 l 189 667 l 100 667 l 100 0 l 189 0 l 189 389 b 411 589 189 514 308 589 b 589 394 547 589 589 501 l 589 0 l 678 0 l 678 372 b 408 678 678 569 600 678 z "},"o":{"ha":800,"x_min":0,"x_max":0,"o":"m 400 678 b 56 333 210 678 56 524 b 400 -11 56 143 210 -11 b 744 333 590 -11 744 143 b 400 678 744 524 590 678 z m 400 78 b 144 333 261 78 144 194 b 400 589 144 472 261 589 b 656 333 539 589 656 472 b 400 78 656 194 539 78 z "},"ó":{"ha":800,"x_min":0,"x_max":0,"o":"m 333 756 l 400 756 l 556 933 l 444 933 z m 400 678 b 56 333 210 678 56 524 b 400 -11 56 143 210 -11 b 744 333 590 -11 744 143 b 400 678 744 524 590 678 z m 400 78 b 144 333 261 78 144 194 b 400 589 144 472 261 589 b 656 333 539 589 656 472 b 400 78 656 194 539 78 z "},"ô":{"ha":800,"x_min":0,"x_max":0,"o":"m 496 756 l 600 756 l 400 944 l 200 756 l 304 756 l 400 856 z m 400 678 b 56 333 210 678 56 524 b 400 -11 56 143 210 -11 b 744 333 590 -11 744 143 b 400 678 744 524 590 678 z m 400 78 b 144 333 261 78 144 194 b 400 589 144 472 261 589 b 656 333 539 589 656 472 b 400 78 656 194 539 78 z "},"ö":{"ha":800,"x_min":0,"x_max":0,"o":"m 289 756 b 356 822 326 756 356 785 b 289 889 356 860 326 889 b 222 822 251 889 222 860 b 289 756 222 785 251 756 z m 511 756 b 578 822 549 756 578 785 b 511 889 578 860 549 889 b 444 822 474 889 444 860 b 511 756 444 785 474 756 z m 400 678 b 56 333 210 678 56 524 b 400 -11 56 143 210 -11 b 744 333 590 -11 744 143 b 400 678 744 524 590 678 z m 400 78 b 144 333 261 78 144 194 b 400 589 144 472 261 589 b 656 333 539 589 656 472 b 400 78 656 194 539 78 z "},"ò":{"ha":800,"x_min":0,"x_max":0,"o":"m 467 756 l 356 933 l 244 933 l 400 756 z m 400 678 b 56 333 210 678 56 524 b 400 -11 56 143 210 -11 b 744 333 590 -11 744 143 b 400 678 744 524 590 678 z m 400 78 b 144 333 261 78 144 194 b 400 589 144 472 261 589 b 656 333 539 589 656 472 b 400 78 656 194 539 78 z "},"ő":{"ha":800,"x_min":0,"x_max":0,"o":"m 200 756 l 267 756 l 367 911 l 244 911 z m 511 756 l 578 756 l 678 911 l 556 911 z m 400 678 b 56 333 210 678 56 524 b 400 -11 56 143 210 -11 b 744 333 590 -11 744 143 b 400 678 744 524 590 678 z m 400 78 b 144 333 261 78 144 194 b 400 589 144 472 261 589 b 656 333 539 589 656 472 b 400 78 656 194 539 78 z "},"ō":{"ha":800,"x_min":0,"x_max":0,"o":"m 578 778 l 578 844 l 222 844 l 222 778 z m 400 678 b 56 333 210 678 56 524 b 400 -11 56 143 210 -11 b 744 333 590 -11 744 143 b 400 678 744 524 590 678 z m 400 78 b 144 333 261 78 144 194 b 400 589 144 472 261 589 b 656 333 539 589 656 472 b 400 78 656 194 539 78 z "},"ø":{"ha":800,"x_min":0,"x_max":0,"o":"m 644 576 l 722 667 l 656 667 l 606 610 b 400 678 549 653 478 678 b 56 333 210 678 56 524 b 156 90 56 239 94 153 l 78 0 l 144 0 l 194 57 b 400 -11 251 14 322 -11 b 744 333 590 -11 744 143 b 644 576 744 428 706 514 z m 144 333 b 400 589 144 472 261 589 b 547 542 454 589 506 571 l 215 158 b 144 333 172 204 144 267 z m 400 78 b 253 125 346 78 294 96 l 585 508 b 656 333 628 463 656 400 b 400 78 656 194 539 78 z "},"õ":{"ha":800,"x_min":0,"x_max":0,"o":"m 551 871 b 408 847 522 814 475 818 b 319 871 379 858 354 871 b 178 779 271 871 217 851 l 249 756 b 389 781 278 806 324 808 b 483 756 418 769 449 756 b 622 850 531 756 585 774 z m 400 678 b 56 333 210 678 56 524 b 400 -11 56 143 210 -11 b 744 333 590 -11 744 143 b 400 678 744 524 590 678 z m 400 78 b 144 333 261 78 144 194 b 400 589 144 472 261 589 b 656 333 539 589 656 472 b 400 78 656 194 539 78 z "},"œ":{"ha":1356,"x_min":0,"x_max":0,"o":"m 1300 336 b 988 678 1300 550 1164 678 b 696 508 851 678 750 611 b 400 678 636 610 526 678 b 56 333 210 678 56 524 b 400 -11 56 143 210 -11 b 697 160 528 -11 638 58 b 1006 -11 753 58 860 -11 b 1256 69 1150 -11 1238 54 l 1222 150 b 1008 78 1167 107 1094 78 b 747 289 867 78 761 163 l 1296 289 b 1300 336 1299 304 1300 322 z m 400 78 b 144 333 261 78 144 194 b 400 589 144 472 261 589 b 656 333 539 589 656 472 b 400 78 656 194 539 78 z m 747 378 b 983 589 751 472 825 589 b 1210 378 1140 589 1206 469 z "},"p":{"ha":844,"x_min":0,"x_max":0,"o":"m 189 667 l 100 667 l 100 -356 l 189 -356 l 189 118 b 444 -11 246 40 336 -11 b 789 333 635 -11 789 143 b 444 678 789 524 635 678 b 189 549 336 678 246 626 z m 444 78 b 189 333 303 78 189 192 b 444 589 189 475 303 589 b 700 333 586 589 700 475 b 444 78 700 192 586 78 z "},"þ":{"ha":844,"x_min":0,"x_max":0,"o":"m 189 978 l 100 978 l 100 -356 l 189 -356 l 189 118 b 444 -11 246 40 336 -11 b 789 333 635 -11 789 143 b 444 678 789 524 635 678 b 189 549 336 678 246 626 z m 444 78 b 189 333 303 78 189 192 b 444 589 189 475 303 589 b 700 333 586 589 700 475 b 444 78 700 192 586 78 z "},"q":{"ha":844,"x_min":0,"x_max":0,"o":"m 656 667 l 656 549 b 400 678 599 626 508 678 b 56 333 210 678 56 524 b 400 -11 56 143 210 -11 b 656 118 508 -11 599 40 l 656 -356 l 744 -356 l 744 667 z m 400 78 b 144 333 258 78 144 192 b 400 589 144 475 258 589 b 656 333 542 589 656 475 b 400 78 656 192 542 78 z "},"r":{"ha":533,"x_min":0,"x_max":0,"o":"m 189 524 l 189 667 l 100 667 l 100 0 l 189 0 l 189 319 b 339 571 189 453 253 540 b 478 576 394 590 449 583 l 478 678 b 189 524 353 678 235 619 z "},"ŕ":{"ha":533,"x_min":0,"x_max":0,"o":"m 156 756 l 222 756 l 378 933 l 267 933 z m 189 524 l 189 667 l 100 667 l 100 0 l 189 0 l 189 319 b 339 571 189 453 253 540 b 478 576 394 590 449 583 l 478 678 b 189 524 353 678 235 619 z "},"ř":{"ha":533,"x_min":0,"x_max":0,"o":"m 374 933 l 278 833 l 182 933 l 78 933 l 278 744 l 478 933 z m 189 524 l 189 667 l 100 667 l 100 0 l 189 0 l 189 319 b 339 571 189 453 253 540 b 478 576 394 590 449 583 l 478 678 b 189 524 353 678 235 619 z "},"ŗ":{"ha":533,"x_min":0,"x_max":0,"o":"m 189 524 l 189 667 l 100 667 l 100 0 l 189 0 l 189 319 b 339 571 189 453 253 540 b 478 576 394 590 449 583 l 478 678 b 189 524 353 678 235 619 z m 56 -244 l 111 -244 l 211 -89 l 100 -89 z "},"s":{"ha":622,"x_min":0,"x_max":0,"o":"m 343 389 b 167 492 271 404 167 428 b 326 589 167 582 264 590 b 511 533 400 588 483 556 l 544 614 b 325 678 467 663 381 678 b 78 493 175 678 78 604 b 325 300 78 397 124 339 b 478 182 399 285 478 254 b 318 78 478 108 396 76 b 94 164 238 79 143 111 l 56 83 b 321 -11 83 54 186 -11 b 567 186 481 -11 567 85 b 343 389 567 279 522 351 z "},"ś":{"ha":622,"x_min":0,"x_max":0,"o":"m 256 756 l 322 756 l 478 933 l 367 933 z m 343 389 b 167 492 271 404 167 428 b 326 589 167 582 264 590 b 511 533 400 588 483 556 l 544 614 b 325 678 467 663 381 678 b 78 493 175 678 78 604 b 325 300 78 397 124 339 b 478 182 399 285 478 254 b 318 78 478 108 396 76 b 94 164 238 79 143 111 l 56 83 b 321 -11 83 54 186 -11 b 567 186 481 -11 567 85 b 343 389 567 279 522 351 z "},"š":{"ha":622,"x_min":0,"x_max":0,"o":"m 418 933 l 322 833 l 226 933 l 122 933 l 322 744 l 522 933 z m 343 389 b 167 492 271 404 167 428 b 326 589 167 582 264 590 b 511 533 400 588 483 556 l 544 614 b 325 678 467 663 381 678 b 78 493 175 678 78 604 b 325 300 78 397 124 339 b 478 182 399 285 478 254 b 318 78 478 108 396 76 b 94 164 238 79 143 111 l 56 83 b 321 -11 83 54 186 -11 b 567 186 481 -11 567 85 b 343 389 567 279 522 351 z "},"ş":{"ha":622,"x_min":0,"x_max":0,"o":"m 567 186 b 343 389 567 279 522 351 b 167 492 271 404 167 428 b 326 589 167 582 264 590 b 511 533 400 588 483 556 l 544 614 b 325 678 467 663 381 678 b 78 493 175 678 78 604 b 325 300 78 397 124 339 b 478 182 399 285 478 254 b 318 78 478 108 396 76 b 94 164 238 79 143 111 l 56 83 b 271 -8 79 58 161 4 l 196 -89 l 240 -156 b 333 -122 263 -137 293 -122 b 444 -221 400 -122 444 -165 b 311 -344 444 -285 392 -344 b 194 -278 247 -344 210 -310 l 133 -335 b 301 -422 164 -381 217 -422 b 511 -222 426 -422 511 -336 b 303 -71 511 -118 418 -43 l 361 -10 b 567 186 494 6 567 93 z "},"ș":{"ha":622,"x_min":0,"x_max":0,"o":"m 343 389 b 167 492 271 404 167 428 b 326 589 167 582 264 590 b 511 533 400 588 483 556 l 544 614 b 325 678 467 663 381 678 b 78 493 175 678 78 604 b 325 300 78 397 124 339 b 478 182 399 285 478 254 b 318 78 478 108 396 76 b 94 164 238 79 143 111 l 56 83 b 321 -11 83 54 186 -11 b 567 186 481 -11 567 85 b 343 389 567 279 522 351 z m 222 -244 l 278 -244 l 378 -89 l 267 -89 z "},"ß":{"ha":733,"x_min":0,"x_max":0,"o":"m 167 0 l 78 0 l 78 678 b 350 989 78 986 321 989 b 611 739 518 989 611 865 b 492 533 611 621 538 557 b 678 283 608 507 678 400 b 346 -11 678 133 581 -11 b 211 0 283 -11 238 -4 l 211 89 b 589 283 421 50 589 100 b 479 444 589 350 557 413 b 211 467 414 471 325 467 l 211 556 b 431 586 331 556 389 565 b 522 733 481 611 522 658 b 349 900 522 835 460 900 b 167 700 226 900 167 818 z "},"t":{"ha":444,"x_min":0,"x_max":0,"o":"m 144 218 b 290 -11 144 90 164 -11 b 367 3 328 -11 349 -4 l 367 93 b 260 96 336 78 292 72 b 233 211 233 115 233 164 l 233 578 l 367 578 l 367 667 l 233 667 l 233 933 l 144 933 l 144 667 l 56 667 l 56 578 l 144 578 z "},"ŧ":{"ha":444,"x_min":0,"x_max":0,"o":"m 367 578 l 367 667 l 233 667 l 233 933 l 144 933 l 144 667 l 56 667 l 56 578 l 144 578 l 144 406 l 56 406 l 56 350 l 144 350 l 144 218 b 290 -11 144 90 164 -11 b 367 3 328 -11 349 -4 l 367 93 b 260 96 336 78 292 72 b 233 211 233 115 233 164 l 233 350 l 367 350 l 367 406 l 233 406 l 233 578 z "},"ť":{"ha":622,"x_min":0,"x_max":0,"o":"m 144 218 b 290 -11 144 90 164 -11 b 367 3 328 -11 349 -4 l 367 93 b 260 96 336 78 292 72 b 233 211 233 115 233 164 l 233 578 l 367 578 l 367 667 l 233 667 l 233 933 l 144 933 l 144 667 l 56 667 l 56 578 l 144 578 z m 411 778 l 467 778 l 567 933 l 456 933 z "},"ţ":{"ha":444,"x_min":0,"x_max":0,"o":"m 214 -71 l 271 -10 b 290 -11 276 -11 283 -11 b 367 3 328 -11 349 -4 l 367 93 b 260 96 336 78 292 72 b 233 211 233 115 233 164 l 233 578 l 367 578 l 367 667 l 233 667 l 233 933 l 144 933 l 144 667 l 56 667 l 56 578 l 144 578 l 144 218 b 203 14 144 128 154 51 l 107 -89 l 151 -156 b 244 -122 174 -137 204 -122 b 356 -221 311 -122 356 -165 b 222 -344 356 -285 303 -344 b 106 -278 158 -344 121 -310 l 44 -335 b 213 -422 75 -381 128 -422 b 422 -222 338 -422 422 -336 b 214 -71 422 -118 329 -43 z "},"ț":{"ha":444,"x_min":0,"x_max":0,"o":"m 144 218 b 290 -11 144 90 164 -11 b 367 3 328 -11 349 -4 l 367 93 b 260 96 336 78 292 72 b 233 211 233 115 233 164 l 233 578 l 367 578 l 367 667 l 233 667 l 233 933 l 144 933 l 144 667 l 56 667 l 56 578 l 144 578 z m 144 -244 l 200 -244 l 300 -89 l 189 -89 z "},"u":{"ha":756,"x_min":0,"x_max":0,"o":"m 347 -11 b 567 103 440 -11 532 47 l 567 0 l 656 0 l 656 667 l 567 667 l 567 278 b 344 78 567 153 447 78 b 167 272 208 78 167 165 l 167 667 l 78 667 l 78 294 b 347 -11 78 97 156 -11 z "},"ú":{"ha":756,"x_min":0,"x_max":0,"o":"m 300 756 l 367 756 l 522 933 l 411 933 z m 347 -11 b 567 103 440 -11 532 47 l 567 0 l 656 0 l 656 667 l 567 667 l 567 278 b 344 78 567 153 447 78 b 167 272 208 78 167 165 l 167 667 l 78 667 l 78 294 b 347 -11 78 97 156 -11 z "},"û":{"ha":756,"x_min":0,"x_max":0,"o":"m 463 756 l 567 756 l 367 944 l 167 756 l 271 756 l 367 856 z m 347 -11 b 567 103 440 -11 532 47 l 567 0 l 656 0 l 656 667 l 567 667 l 567 278 b 344 78 567 153 447 78 b 167 272 208 78 167 165 l 167 667 l 78 667 l 78 294 b 347 -11 78 97 156 -11 z "},"ü":{"ha":756,"x_min":0,"x_max":0,"o":"m 256 756 b 322 822 293 756 322 785 b 256 889 322 860 293 889 b 189 822 218 889 189 860 b 256 756 189 785 218 756 z m 478 756 b 544 822 515 756 544 785 b 478 889 544 860 515 889 b 411 822 440 889 411 860 b 478 756 411 785 440 756 z m 347 -11 b 567 103 440 -11 532 47 l 567 0 l 656 0 l 656 667 l 567 667 l 567 278 b 344 78 567 153 447 78 b 167 272 208 78 167 165 l 167 667 l 78 667 l 78 294 b 347 -11 78 97 156 -11 z "},"ù":{"ha":756,"x_min":0,"x_max":0,"o":"m 433 756 l 322 933 l 211 933 l 367 756 z m 347 -11 b 567 103 440 -11 532 47 l 567 0 l 656 0 l 656 667 l 567 667 l 567 278 b 344 78 567 153 447 78 b 167 272 208 78 167 165 l 167 667 l 78 667 l 78 294 b 347 -11 78 97 156 -11 z "},"ű":{"ha":756,"x_min":0,"x_max":0,"o":"m 167 756 l 233 756 l 333 911 l 211 911 z m 478 756 l 544 756 l 644 911 l 522 911 z m 347 -11 b 567 103 440 -11 532 47 l 567 0 l 656 0 l 656 667 l 567 667 l 567 278 b 344 78 567 153 447 78 b 167 272 208 78 167 165 l 167 667 l 78 667 l 78 294 b 347 -11 78 97 156 -11 z "},"ū":{"ha":756,"x_min":0,"x_max":0,"o":"m 550 778 l 550 844 l 194 844 l 194 778 z m 347 -11 b 567 103 440 -11 532 47 l 567 0 l 656 0 l 656 667 l 567 667 l 567 278 b 344 78 567 153 447 78 b 167 272 208 78 167 165 l 167 667 l 78 667 l 78 294 b 347 -11 78 97 156 -11 z "},"ų":{"ha":756,"x_min":0,"x_max":0,"o":"m 689 -208 b 544 -122 626 -240 544 -208 b 656 0 544 -44 607 0 l 656 667 l 567 667 l 567 278 b 344 78 567 153 447 78 b 167 272 208 78 167 165 l 167 667 l 78 667 l 78 294 b 347 -11 78 97 156 -11 b 567 103 440 -11 532 47 l 567 33 b 478 -122 532 11 478 -42 b 636 -289 478 -221 538 -289 b 711 -267 661 -289 692 -281 z "},"ů":{"ha":756,"x_min":0,"x_max":0,"o":"m 372 1000 b 228 856 292 1000 228 936 b 372 711 228 775 292 711 b 517 856 453 711 517 775 b 372 1000 517 936 453 1000 z m 372 778 b 294 856 329 778 294 813 b 372 933 294 899 329 933 b 450 856 415 933 450 899 b 372 778 450 813 415 778 z m 347 -11 b 567 103 440 -11 532 47 l 567 0 l 656 0 l 656 667 l 567 667 l 567 278 b 344 78 567 153 447 78 b 167 272 208 78 167 165 l 167 667 l 78 667 l 78 294 b 347 -11 78 97 156 -11 z "},"v":{"ha":667,"x_min":0,"x_max":0,"o":"m 333 -22 l 656 667 l 556 667 l 333 178 l 111 667 l 11 667 z "},"w":{"ha":1044,"x_min":0,"x_max":0,"o":"m 922 667 l 722 197 l 522 689 l 322 197 l 122 667 l 22 667 l 322 -22 l 522 469 l 722 -22 l 1022 667 z "},"ẃ":{"ha":1044,"x_min":0,"x_max":0,"o":"m 456 756 l 522 756 l 678 933 l 567 933 z m 922 667 l 722 197 l 522 689 l 322 197 l 122 667 l 22 667 l 322 -22 l 522 469 l 722 -22 l 1022 667 z "},"ŵ":{"ha":1044,"x_min":0,"x_max":0,"o":"m 618 756 l 722 756 l 522 944 l 322 756 l 426 756 l 522 856 z m 922 667 l 722 197 l 522 689 l 322 197 l 122 667 l 22 667 l 322 -22 l 522 469 l 722 -22 l 1022 667 z "},"ẅ":{"ha":1044,"x_min":0,"x_max":0,"o":"m 411 756 b 478 822 449 756 478 785 b 411 889 478 860 449 889 b 344 822 374 889 344 860 b 411 756 344 785 374 756 z m 633 756 b 700 822 671 756 700 785 b 633 889 700 860 671 889 b 567 822 596 889 567 860 b 633 756 567 785 596 756 z m 922 667 l 722 197 l 522 689 l 322 197 l 122 667 l 22 667 l 322 -22 l 522 469 l 722 -22 l 1022 667 z "},"ẁ":{"ha":1044,"x_min":0,"x_max":0,"o":"m 589 756 l 478 933 l 367 933 l 522 756 z m 922 667 l 722 197 l 522 689 l 322 197 l 122 667 l 22 667 l 322 -22 l 522 469 l 722 -22 l 1022 667 z "},"x":{"ha":689,"x_min":0,"x_max":0,"o":"m 399 354 l 635 667 l 526 667 l 344 417 l 163 667 l 54 667 l 290 354 l 33 0 l 142 0 l 344 282 l 547 0 l 656 0 z "},"y":{"ha":667,"x_min":0,"x_max":0,"o":"m 551 667 l 333 156 l 115 667 l 11 667 l 281 42 l 103 -356 l 204 -356 l 656 667 z "},"ý":{"ha":667,"x_min":0,"x_max":0,"o":"m 267 756 l 333 756 l 489 933 l 378 933 z m 551 667 l 333 156 l 115 667 l 11 667 l 281 42 l 103 -356 l 204 -356 l 656 667 z "},"ŷ":{"ha":667,"x_min":0,"x_max":0,"o":"m 429 756 l 533 756 l 333 944 l 133 756 l 238 756 l 333 856 z m 551 667 l 333 156 l 115 667 l 11 667 l 281 42 l 103 -356 l 204 -356 l 656 667 z "},"ÿ":{"ha":667,"x_min":0,"x_max":0,"o":"m 222 756 b 289 822 260 756 289 785 b 222 889 289 860 260 889 b 156 822 185 889 156 860 b 222 756 156 785 185 756 z m 444 756 b 511 822 482 756 511 785 b 444 889 511 860 482 889 b 378 822 407 889 378 860 b 444 756 378 785 407 756 z m 551 667 l 333 156 l 115 667 l 11 667 l 281 42 l 103 -356 l 204 -356 l 656 667 z "},"ỳ":{"ha":667,"x_min":0,"x_max":0,"o":"m 400 756 l 289 933 l 178 933 l 333 756 z m 551 667 l 333 156 l 115 667 l 11 667 l 281 42 l 103 -356 l 204 -356 l 656 667 z "},"z":{"ha":644,"x_min":0,"x_max":0,"o":"m 567 0 l 567 89 l 214 89 l 589 667 l 78 667 l 78 578 l 428 578 l 56 0 z "},"ź":{"ha":644,"x_min":0,"x_max":0,"o":"m 267 756 l 333 756 l 489 933 l 378 933 z m 567 0 l 567 89 l 214 89 l 589 667 l 78 667 l 78 578 l 428 578 l 56 0 z "},"ž":{"ha":644,"x_min":0,"x_max":0,"o":"m 418 933 l 322 833 l 226 933 l 122 933 l 322 744 l 522 933 z m 567 0 l 567 89 l 214 89 l 589 667 l 78 667 l 78 578 l 428 578 l 56 0 z "},"ż":{"ha":644,"x_min":0,"x_max":0,"o":"m 322 733 b 411 822 372 733 411 772 b 322 911 411 872 372 911 b 233 822 272 911 233 872 b 322 733 233 772 272 733 z m 567 0 l 567 89 l 214 89 l 589 667 l 78 667 l 78 578 l 428 578 l 56 0 z "},"ª":{"ha":500,"x_min":0,"x_max":0,"o":"m 378 933 l 378 875 b 250 939 350 914 304 939 b 78 767 156 939 78 863 b 250 594 78 672 156 594 b 378 660 304 594 350 621 l 378 600 l 422 600 l 422 933 z m 250 639 b 122 767 179 639 122 696 b 250 894 122 838 179 894 b 378 767 321 894 378 838 b 250 639 378 696 321 639 z "},"º":{"ha":500,"x_min":0,"x_max":0,"o":"m 250 939 b 78 767 156 939 78 863 b 250 594 78 672 156 594 b 422 767 346 594 422 672 b 250 939 422 863 346 939 z m 250 639 b 122 767 181 639 122 697 b 250 894 122 836 181 894 b 378 767 319 894 378 836 b 250 639 378 697 319 639 z "},"А":{"ha":911,"x_min":0,"x_max":0,"o":"m 800 0 l 900 0 l 456 956 l 11 0 l 111 0 l 203 200 l 708 200 z m 243 289 l 456 756 l 668 289 z "},"Б":{"ha":800,"x_min":0,"x_max":0,"o":"m 417 578 l 189 578 l 189 844 l 656 844 l 656 933 l 100 933 l 100 0 l 417 0 b 744 290 615 0 744 125 b 417 578 744 454 625 578 z m 417 89 l 189 89 l 189 489 l 417 489 b 656 290 549 489 656 432 b 417 89 656 149 549 89 z "},"В":{"ha":778,"x_min":0,"x_max":0,"o":"m 567 501 b 678 689 628 525 678 607 b 346 933 678 850 547 933 l 100 933 l 100 0 l 422 0 b 722 281 610 0 722 119 b 567 501 722 374 663 482 z m 189 844 l 378 844 b 589 689 513 844 589 796 b 378 533 589 582 513 533 l 189 533 z m 400 89 l 189 89 l 189 444 l 400 444 b 633 265 542 444 633 388 b 400 89 633 144 542 89 z "},"Г":{"ha":667,"x_min":0,"x_max":0,"o":"m 611 844 l 611 933 l 100 933 l 100 0 l 189 0 l 189 844 z "},"Ѓ":{"ha":667,"x_min":0,"x_max":0,"o":"m 233 1022 l 300 1022 l 456 1200 l 344 1200 z m 611 844 l 611 933 l 100 933 l 100 0 l 189 0 l 189 844 z "},"Ґ":{"ha":667,"x_min":0,"x_max":0,"o":"m 522 1067 l 522 933 l 100 933 l 100 0 l 189 0 l 189 844 l 611 844 l 611 1067 z "},"Д":{"ha":1000,"x_min":0,"x_max":0,"o":"m 789 89 l 789 933 l 267 933 b 56 89 267 476 268 253 l 56 -178 l 144 -178 l 144 0 l 833 0 l 833 -178 l 922 -178 l 922 89 z m 188 89 b 356 844 324 250 356 449 l 700 844 l 700 89 z "},"Е":{"ha":689,"x_min":0,"x_max":0,"o":"m 611 844 l 611 933 l 100 933 l 100 0 l 611 0 l 611 89 l 189 89 l 189 422 l 544 422 l 544 511 l 189 511 l 189 844 z "},"Ё":{"ha":689,"x_min":0,"x_max":0,"o":"m 233 1022 b 300 1089 271 1022 300 1051 b 233 1156 300 1126 271 1156 b 167 1089 196 1156 167 1126 b 233 1022 167 1051 196 1022 z m 456 1022 b 522 1089 493 1022 522 1051 b 456 1156 522 1126 493 1156 b 389 1089 418 1156 389 1126 b 456 1022 389 1051 418 1022 z m 611 844 l 611 933 l 100 933 l 100 0 l 611 0 l 611 89 l 189 89 l 189 422 l 544 422 l 544 511 l 189 511 l 189 844 z "},"Ж":{"ha":1178,"x_min":0,"x_max":0,"o":"m 724 481 l 1122 933 l 1011 933 l 633 500 l 633 933 l 544 933 l 544 500 l 167 933 l 56 933 l 454 481 l 33 0 l 144 0 l 511 418 l 544 379 l 544 0 l 633 0 l 633 379 l 668 418 l 1033 0 l 1144 0 z "},"З":{"ha":756,"x_min":0,"x_max":0,"o":"m 300 422 b 611 256 472 422 611 394 b 361 78 611 144 500 78 b 106 192 219 78 144 146 l 56 117 b 364 -11 124 43 221 -11 b 700 267 557 -11 700 90 b 526 481 700 368 622 449 b 678 683 617 510 678 608 b 376 944 678 843 549 944 b 75 822 254 944 158 903 l 124 751 b 369 856 179 803 250 856 b 589 683 508 856 589 783 b 300 511 589 578 460 511 z "},"И":{"ha":933,"x_min":0,"x_max":0,"o":"m 100 -22 l 744 722 l 744 0 l 833 0 l 833 956 l 189 211 l 189 933 l 100 933 z "},"Й":{"ha":933,"x_min":0,"x_max":0,"o":"m 572 1194 b 467 1089 572 1136 525 1089 b 361 1194 408 1089 361 1136 l 294 1194 b 467 1022 294 1099 371 1022 b 639 1194 563 1022 639 1099 z m 100 -22 l 744 722 l 744 0 l 833 0 l 833 956 l 189 211 l 189 933 l 100 933 z "},"К":{"ha":733,"x_min":0,"x_max":0,"o":"m 267 471 l 678 933 l 556 933 l 189 511 l 189 933 l 100 933 l 100 0 l 189 0 l 189 422 l 578 0 l 700 0 z "},"Ќ":{"ha":733,"x_min":0,"x_max":0,"o":"m 244 1022 l 311 1022 l 467 1200 l 356 1200 z m 267 471 l 678 933 l 556 933 l 189 511 l 189 933 l 100 933 l 100 0 l 189 0 l 189 422 l 578 0 l 700 0 z "},"Л":{"ha":933,"x_min":0,"x_max":0,"o":"m 833 933 l 256 933 l 256 240 b 207 97 256 186 246 126 b 78 89 178 75 121 75 l 78 0 b 210 0 107 -12 163 -17 b 344 367 346 49 344 171 l 344 844 l 744 844 l 744 0 l 833 0 z "},"М":{"ha":1156,"x_min":0,"x_max":0,"o":"m 578 -22 l 903 664 l 1008 0 l 1100 0 l 942 956 l 578 172 l 214 956 l 56 0 l 147 0 l 253 664 z "},"Н":{"ha":867,"x_min":0,"x_max":0,"o":"m 678 933 l 678 511 l 189 511 l 189 933 l 100 933 l 100 0 l 189 0 l 189 422 l 678 422 l 678 0 l 767 0 l 767 933 z "},"О":{"ha":1067,"x_min":0,"x_max":0,"o":"m 533 944 b 56 467 269 944 56 731 b 533 -11 56 203 269 -11 b 1011 467 797 -11 1011 203 b 533 944 1011 731 797 944 z m 533 78 b 144 467 317 78 144 250 b 533 856 144 683 317 856 b 922 467 750 856 922 683 b 533 78 922 250 750 78 z "},"П":{"ha":867,"x_min":0,"x_max":0,"o":"m 767 933 l 100 933 l 100 0 l 189 0 l 189 844 l 678 844 l 678 0 l 767 0 z "},"Р":{"ha":778,"x_min":0,"x_max":0,"o":"m 367 933 l 100 933 l 100 0 l 189 0 l 189 333 l 411 333 b 722 640 608 333 722 465 b 367 933 722 817 610 933 z m 411 422 l 189 422 l 189 844 l 404 844 b 633 632 525 844 633 785 b 411 422 633 479 532 422 z "},"С":{"ha":889,"x_min":0,"x_max":0,"o":"m 533 78 b 144 467 318 78 144 251 b 533 856 144 682 318 856 b 797 754 640 856 728 818 l 833 835 b 539 944 757 906 640 944 b 56 467 272 944 56 731 b 539 -11 56 203 272 -11 b 833 99 640 -11 757 28 l 797 179 b 533 78 729 115 640 78 z "},"Т":{"ha":689,"x_min":0,"x_max":0,"o":"m 56 933 l 56 844 l 300 844 l 300 0 l 389 0 l 389 844 l 633 844 l 633 933 z "},"У":{"ha":800,"x_min":0,"x_max":0,"o":"m 689 933 l 410 432 l 133 933 l 33 933 l 358 350 l 156 0 l 256 0 l 789 933 z "},"Ў":{"ha":800,"x_min":0,"x_max":0,"o":"m 517 1194 b 411 1089 517 1136 469 1089 b 306 1194 353 1089 306 1136 l 239 1194 b 411 1022 239 1099 315 1022 b 583 1194 507 1022 583 1099 z m 689 933 l 410 432 l 133 933 l 33 933 l 358 350 l 156 0 l 256 0 l 789 933 z "},"Ф":{"ha":1044,"x_min":0,"x_max":0,"o":"m 989 489 b 567 889 989 724 821 889 l 567 978 l 478 978 l 478 889 b 56 489 224 889 56 724 b 478 89 56 260 218 89 l 478 0 l 567 0 l 567 89 b 989 489 826 89 989 260 z m 478 172 b 144 489 308 172 144 258 b 478 806 144 718 308 806 z m 567 172 l 567 806 b 900 489 740 806 900 718 b 567 172 900 258 740 172 z "},"Х":{"ha":867,"x_min":0,"x_max":0,"o":"m 833 0 l 489 482 l 811 933 l 697 933 l 433 556 l 169 933 l 56 933 l 378 482 l 33 0 l 149 0 l 433 406 l 718 0 z "},"Ч":{"ha":822,"x_min":0,"x_max":0,"o":"m 378 344 b 633 394 463 344 571 374 l 633 0 l 722 0 l 722 933 l 633 933 l 633 483 b 389 433 633 483 508 433 b 167 667 225 433 167 511 l 167 933 l 78 933 l 78 656 b 378 344 78 436 211 344 z "},"Ц":{"ha":978,"x_min":0,"x_max":0,"o":"m 767 89 l 767 933 l 678 933 l 678 89 l 189 89 l 189 933 l 100 933 l 100 0 l 811 0 l 811 -178 l 900 -178 l 900 89 z "},"Ш":{"ha":1222,"x_min":0,"x_max":0,"o":"m 1033 933 l 1033 89 l 656 89 l 656 933 l 567 933 l 567 89 l 189 89 l 189 933 l 100 933 l 100 0 l 1122 0 l 1122 933 z "},"Щ":{"ha":1333,"x_min":0,"x_max":0,"o":"m 1122 89 l 1122 933 l 1033 933 l 1033 89 l 656 89 l 656 933 l 567 933 l 567 89 l 189 89 l 189 933 l 100 933 l 100 0 l 1167 0 l 1167 -178 l 1256 -178 l 1256 89 z "},"Џ":{"ha":867,"x_min":0,"x_max":0,"o":"m 678 933 l 678 89 l 189 89 l 189 933 l 100 933 l 100 0 l 389 0 l 389 -178 l 478 -178 l 478 0 l 767 0 l 767 933 z "},"Я":{"ha":800,"x_min":0,"x_max":0,"o":"m 56 0 l 161 0 l 413 333 l 611 333 l 611 0 l 700 0 l 700 933 l 433 933 b 78 640 190 933 78 817 b 314 340 78 489 163 369 z m 611 844 l 611 422 l 389 422 b 167 632 268 422 167 479 b 396 844 167 785 275 844 z "},"Ь":{"ha":778,"x_min":0,"x_max":0,"o":"m 394 578 l 189 578 l 189 933 l 100 933 l 100 0 l 394 0 b 722 290 593 0 722 125 b 394 578 722 454 603 578 z m 394 89 l 189 89 l 189 489 l 394 489 b 633 290 526 489 633 432 b 394 89 633 149 526 89 z "},"Ъ":{"ha":911,"x_min":0,"x_max":0,"o":"m 528 578 l 322 578 l 322 933 l 56 933 l 56 844 l 233 844 l 233 0 l 528 0 b 856 290 726 0 856 125 b 528 578 856 454 736 578 z m 528 89 l 322 89 l 322 489 l 528 489 b 767 290 660 489 767 432 b 528 89 767 149 660 89 z "},"Ы":{"ha":1044,"x_min":0,"x_max":0,"o":"m 394 578 l 189 578 l 189 933 l 100 933 l 100 0 l 394 0 b 722 290 593 0 722 125 b 394 578 722 454 603 578 z m 944 0 l 944 933 l 856 933 l 856 0 z m 394 89 l 189 89 l 189 489 l 394 489 b 633 290 526 489 633 432 b 394 89 633 149 526 89 z "},"Љ":{"ha":1400,"x_min":0,"x_max":0,"o":"m 1017 511 l 833 511 l 833 933 l 256 933 l 256 240 b 207 97 256 186 246 126 b 78 89 178 75 121 75 l 78 0 b 210 0 107 -12 163 -17 b 344 367 346 49 344 171 l 344 844 l 744 844 l 744 0 l 1017 0 b 1344 257 1215 0 1344 92 b 1017 511 1344 421 1225 511 z m 1017 89 l 833 89 l 833 422 l 1017 422 b 1256 257 1138 422 1256 388 b 1017 89 1256 126 1138 89 z "},"Њ":{"ha":1333,"x_min":0,"x_max":0,"o":"m 950 511 l 767 511 l 767 933 l 678 933 l 678 511 l 189 511 l 189 933 l 100 933 l 100 0 l 189 0 l 189 422 l 678 422 l 678 0 l 950 0 b 1278 257 1149 0 1278 92 b 950 511 1278 421 1158 511 z m 950 89 l 767 89 l 767 422 l 950 422 b 1189 257 1071 422 1189 388 b 950 89 1189 126 1071 89 z "},"Ѕ":{"ha":778,"x_min":0,"x_max":0,"o":"m 408 528 b 178 701 249 560 178 604 b 399 856 178 801 278 856 b 636 757 507 856 590 807 l 678 833 b 400 944 572 940 438 944 b 89 696 210 944 89 833 b 399 439 89 571 147 485 b 633 257 579 406 633 343 b 394 78 633 157 525 78 b 100 219 257 78 157 144 l 56 140 b 392 -11 72 117 181 -11 b 722 251 585 -11 722 111 b 408 528 722 408 638 482 z "},"Є":{"ha":889,"x_min":0,"x_max":0,"o":"m 533 78 b 146 428 331 78 165 231 l 611 428 l 611 506 l 146 506 b 533 856 165 703 331 856 b 797 754 640 856 728 818 l 833 835 b 539 944 757 906 640 944 b 56 467 272 944 56 731 b 539 -11 56 203 272 -11 b 833 99 640 -11 757 28 l 797 179 b 533 78 729 115 640 78 z "},"Э":{"ha":889,"x_min":0,"x_max":0,"o":"m 356 78 b 92 179 249 78 160 115 l 56 99 b 350 -11 132 28 249 -11 b 833 467 617 -11 833 203 b 350 944 833 731 617 944 b 56 835 249 944 132 906 l 92 754 b 356 856 161 818 249 856 b 743 506 558 856 724 703 l 278 506 l 278 428 l 743 428 b 356 78 724 231 558 78 z "},"І":{"ha":289,"x_min":0,"x_max":0,"o":"m 189 0 l 189 933 l 100 933 l 100 0 z "},"Ї":{"ha":289,"x_min":0,"x_max":0,"o":"m 33 1022 b 100 1089 71 1022 100 1051 b 33 1156 100 1126 71 1156 b -33 1089 -4 1156 -33 1126 b 33 1022 -33 1051 -4 1022 z m 256 1022 b 322 1089 293 1022 322 1051 b 256 1156 322 1126 293 1156 b 189 1089 218 1156 189 1126 b 256 1022 189 1051 218 1022 z m 189 0 l 189 933 l 100 933 l 100 0 z "},"Ј":{"ha":622,"x_min":0,"x_max":0,"o":"m 456 933 l 456 344 b 256 78 456 178 403 78 b 111 147 190 78 136 108 l 56 75 b 256 -11 89 32 175 -11 b 544 356 436 -11 544 101 l 544 933 z "},"Ћ":{"ha":911,"x_min":0,"x_max":0,"o":"m 556 556 b 322 500 482 556 372 526 l 322 844 l 589 844 l 589 933 l 56 933 l 56 844 l 233 844 l 233 0 l 322 0 l 322 411 b 544 467 360 433 458 467 b 744 278 664 467 744 438 l 744 0 l 833 0 l 833 278 b 556 556 833 475 750 556 z "},"Ю":{"ha":1356,"x_min":0,"x_max":0,"o":"m 822 944 b 346 511 574 944 369 754 l 189 511 l 189 933 l 100 933 l 100 0 l 189 0 l 189 422 l 346 422 b 822 -11 369 179 574 -11 b 1300 467 1086 -11 1300 203 b 822 944 1300 731 1086 944 z m 822 78 b 433 467 606 78 433 250 b 822 856 433 683 606 856 b 1211 467 1039 856 1211 683 b 822 78 1211 250 1039 78 z "},"Ђ":{"ha":911,"x_min":0,"x_max":0,"o":"m 556 556 b 322 500 482 556 372 526 l 322 844 l 589 844 l 589 933 l 56 933 l 56 844 l 233 844 l 233 0 l 322 0 l 322 411 b 544 467 360 433 458 467 b 744 278 664 467 744 438 l 744 172 b 611 -53 744 25 704 -33 l 633 -133 b 833 186 715 -121 833 -93 l 833 278 b 556 556 833 475 750 556 z "},"Ѣ":{"ha":822,"x_min":0,"x_max":0,"o":"m 439 578 l 233 578 l 233 739 l 456 739 l 456 817 l 233 817 l 233 978 l 144 978 l 144 817 l 33 817 l 33 739 l 144 739 l 144 0 l 439 0 b 767 290 638 0 767 125 b 439 578 767 454 647 578 z m 439 89 l 233 89 l 233 489 l 439 489 b 678 290 571 489 678 432 b 439 89 678 149 571 89 z "},"Ѳ":{"ha":1067,"x_min":0,"x_max":0,"o":"m 533 944 b 56 467 269 944 56 731 b 533 -11 56 203 269 -11 b 1011 467 797 -11 1011 203 b 533 944 1011 731 797 944 z m 533 856 b 919 515 733 856 896 708 b 538 497 846 458 686 460 b 350 522 485 511 406 522 b 144 483 282 522 213 518 b 533 856 154 692 322 856 z m 533 78 b 147 419 333 78 171 225 b 522 438 219 475 376 475 b 722 411 576 424 668 411 b 922 451 789 411 857 418 b 533 78 914 242 744 78 z "},"Ѵ":{"ha":933,"x_min":0,"x_max":0,"o":"m 806 935 b 660 713 744 906 713 833 l 433 189 l 111 933 l 11 933 l 433 -22 l 761 721 b 900 844 815 844 833 857 l 900 933 b 806 935 871 949 835 949 z "},"Ғ":{"ha":689,"x_min":0,"x_max":0,"o":"m 633 844 l 633 933 l 122 933 l 122 461 l 33 461 l 33 406 l 122 406 l 122 0 l 211 0 l 211 406 l 344 406 l 344 461 l 211 461 l 211 844 z "},"Җ":{"ha":1178,"x_min":0,"x_max":0,"o":"m 1067 89 l 724 481 l 1122 933 l 1011 933 l 633 500 l 633 933 l 544 933 l 544 500 l 167 933 l 56 933 l 454 481 l 33 0 l 144 0 l 511 418 l 544 379 l 544 0 l 633 0 l 633 379 l 668 418 l 1033 0 l 1056 0 l 1056 -133 l 1144 -133 l 1144 89 z "},"Қ":{"ha":733,"x_min":0,"x_max":0,"o":"m 618 89 l 267 471 l 678 933 l 556 933 l 189 511 l 189 933 l 100 933 l 100 0 l 189 0 l 189 422 l 578 0 l 611 0 l 611 -133 l 700 -133 l 700 89 z "},"Ң":{"ha":889,"x_min":0,"x_max":0,"o":"m 767 89 l 767 933 l 678 933 l 678 511 l 189 511 l 189 933 l 100 933 l 100 0 l 189 0 l 189 422 l 678 422 l 678 0 l 767 0 l 767 -133 l 856 -133 l 856 89 z "},"Ү":{"ha":778,"x_min":0,"x_max":0,"o":"m 667 933 l 389 506 l 111 933 l 11 933 l 344 422 l 344 0 l 433 0 l 433 422 l 767 933 z "},"Ұ":{"ha":778,"x_min":0,"x_max":0,"o":"m 433 422 l 767 933 l 667 933 l 389 506 l 111 933 l 11 933 l 344 422 l 344 328 l 256 328 l 256 272 l 344 272 l 344 0 l 433 0 l 433 272 l 522 272 l 522 328 l 433 328 z "},"Ҳ":{"ha":867,"x_min":0,"x_max":0,"o":"m 769 89 l 489 482 l 811 933 l 697 933 l 433 556 l 169 933 l 56 933 l 378 482 l 33 0 l 149 0 l 433 406 l 718 0 l 767 0 l 767 -133 l 856 -133 l 856 89 z "},"Ҷ":{"ha":844,"x_min":0,"x_max":0,"o":"m 722 89 l 722 933 l 633 933 l 633 483 b 389 433 633 483 508 433 b 167 667 225 433 167 511 l 167 933 l 78 933 l 78 656 b 378 344 78 436 211 344 b 633 394 463 344 571 374 l 633 0 l 722 0 l 722 -133 l 811 -133 l 811 89 z "},"Һ":{"ha":822,"x_min":0,"x_max":0,"o":"m 444 589 b 189 539 360 589 251 560 l 189 933 l 100 933 l 100 0 l 189 0 l 189 450 b 433 500 189 450 314 500 b 656 267 597 500 656 422 l 656 0 l 744 0 l 744 278 b 444 589 744 497 611 589 z "},"Ӏ":{"ha":289,"x_min":0,"x_max":0,"o":"m 189 0 l 189 933 l 100 933 l 100 0 z "},"Ә":{"ha":1067,"x_min":0,"x_max":0,"o":"m 56 467 b 533 -11 56 203 269 -11 b 1011 467 797 -11 1011 203 b 533 944 1011 731 797 944 b 96 660 339 944 171 828 l 181 632 b 533 856 242 764 376 856 b 919 506 736 856 901 703 l 57 506 b 56 467 56 493 56 479 z m 147 428 l 919 428 b 533 78 901 231 736 78 b 147 428 331 78 165 231 z "},"Ӣ":{"ha":933,"x_min":0,"x_max":0,"o":"m 644 1044 l 644 1111 l 289 1111 l 289 1044 z m 100 -22 l 744 722 l 744 0 l 833 0 l 833 956 l 189 211 l 189 933 l 100 933 z "},"Ө":{"ha":1067,"x_min":0,"x_max":0,"o":"m 533 944 b 56 467 269 944 56 731 b 533 -11 56 203 269 -11 b 1011 467 797 -11 1011 203 b 533 944 1011 731 797 944 z m 533 856 b 921 494 740 856 907 697 l 146 494 b 533 856 160 697 326 856 z m 533 78 b 146 439 326 78 160 236 l 921 439 b 533 78 907 236 740 78 z "},"Ӯ":{"ha":800,"x_min":0,"x_max":0,"o":"m 589 1044 l 589 1111 l 233 1111 l 233 1044 z m 689 933 l 410 432 l 133 933 l 33 933 l 358 350 l 156 0 l 256 0 l 789 933 z "},"а":{"ha":844,"x_min":0,"x_max":0,"o":"m 656 667 l 656 549 b 400 678 599 626 508 678 b 56 333 210 678 56 524 b 400 -11 56 143 210 -11 b 656 118 508 -11 599 40 l 656 0 l 744 0 l 744 667 z m 400 78 b 144 333 258 78 144 192 b 400 589 144 475 258 589 b 656 333 542 589 656 475 b 400 78 656 192 542 78 z "},"б":{"ha":800,"x_min":0,"x_max":0,"o":"m 400 678 b 282 653 363 678 319 671 b 463 782 324 694 407 746 b 611 978 542 832 599 894 l 511 978 b 321 785 485 897 424 857 b 56 335 139 657 56 513 b 400 -11 56 142 200 -11 b 744 333 590 -11 744 143 b 400 678 744 524 590 678 z m 400 78 b 144 333 261 78 144 194 b 400 589 144 472 261 589 b 656 333 539 589 656 472 b 400 78 656 194 539 78 z "},"в":{"ha":711,"x_min":0,"x_max":0,"o":"m 522 349 b 611 481 578 369 611 428 b 356 667 611 589 553 667 l 100 667 l 100 0 l 378 0 b 633 203 558 0 633 72 b 522 349 633 274 578 333 z m 189 578 l 393 578 b 522 478 456 578 522 557 b 393 383 522 404 444 383 l 189 383 z m 413 89 l 189 89 l 189 294 l 413 294 b 544 194 471 294 544 265 b 413 89 544 114 488 89 z "},"г":{"ha":511,"x_min":0,"x_max":0,"o":"m 189 578 l 456 578 l 456 667 l 100 667 l 100 0 l 189 0 z "},"ѓ":{"ha":511,"x_min":0,"x_max":0,"o":"m 178 756 l 244 756 l 400 933 l 289 933 z m 189 578 l 456 578 l 456 667 l 100 667 l 100 0 l 189 0 z "},"ґ":{"ha":511,"x_min":0,"x_max":0,"o":"m 367 800 l 367 667 l 100 667 l 100 0 l 189 0 l 189 578 l 456 578 l 456 800 z "},"д":{"ha":889,"x_min":0,"x_max":0,"o":"m 700 89 l 700 667 l 256 667 b 56 89 256 371 256 190 l 56 -178 l 144 -178 l 144 0 l 722 0 l 722 -178 l 811 -178 l 811 89 z m 199 89 b 344 578 318 188 344 346 l 611 578 l 611 89 z "},"е":{"ha":756,"x_min":0,"x_max":0,"o":"m 700 336 b 388 678 700 550 564 678 b 56 333 183 678 56 526 b 406 -11 56 146 186 -11 b 656 69 550 -11 638 54 l 622 150 b 408 78 567 107 494 78 b 147 289 267 78 161 163 l 696 289 b 700 336 699 304 700 322 z m 147 378 b 383 589 151 472 225 589 b 610 378 540 589 606 469 z "},"ё":{"ha":756,"x_min":0,"x_max":0,"o":"m 267 756 b 333 822 304 756 333 785 b 267 889 333 860 304 889 b 200 822 229 889 200 860 b 267 756 200 785 229 756 z m 489 756 b 556 822 526 756 556 785 b 489 889 556 860 526 889 b 422 822 451 889 422 860 b 489 756 422 785 451 756 z m 700 336 b 388 678 700 550 564 678 b 56 333 183 678 56 526 b 406 -11 56 146 186 -11 b 656 69 550 -11 638 54 l 622 150 b 408 78 567 107 494 78 b 147 289 267 78 161 163 l 696 289 b 700 336 699 304 700 322 z m 147 378 b 383 589 151 472 225 589 b 610 378 540 589 606 469 z "},"ж":{"ha":956,"x_min":0,"x_max":0,"o":"m 617 356 l 900 667 l 783 667 l 522 378 l 522 667 l 433 667 l 433 378 l 172 667 l 56 667 l 339 356 l 33 0 l 147 0 l 397 293 l 433 254 l 433 0 l 522 0 l 522 254 l 558 293 l 808 0 l 922 0 z "},"з":{"ha":644,"x_min":0,"x_max":0,"o":"m 294 78 b 100 146 211 81 143 107 l 56 74 b 304 -11 117 19 196 -11 b 567 194 449 -11 567 50 b 457 344 567 260 524 318 b 556 483 522 369 556 426 b 308 678 556 615 446 678 b 61 592 211 678 124 646 l 106 519 b 294 589 153 557 197 586 b 467 490 403 592 467 546 b 233 372 467 418 385 372 l 233 294 b 478 182 385 294 478 263 b 294 78 478 104 385 75 z "},"и":{"ha":778,"x_min":0,"x_max":0,"o":"m 189 667 l 100 667 l 100 -22 l 589 481 l 589 0 l 678 0 l 678 689 l 189 186 z "},"й":{"ha":778,"x_min":0,"x_max":0,"o":"m 494 928 b 389 822 494 869 447 822 b 283 928 331 822 283 869 l 217 928 b 389 756 217 832 293 756 b 561 928 485 756 561 832 z m 189 667 l 100 667 l 100 -22 l 589 481 l 589 0 l 678 0 l 678 689 l 189 186 z "},"к":{"ha":667,"x_min":0,"x_max":0,"o":"m 278 344 l 633 667 l 511 667 l 189 375 l 189 667 l 100 667 l 100 0 l 189 0 l 189 308 l 533 0 l 656 0 z "},"ќ":{"ha":667,"x_min":0,"x_max":0,"o":"m 233 756 l 300 756 l 456 933 l 344 933 z m 278 344 l 633 667 l 511 667 l 189 375 l 189 667 l 100 667 l 100 0 l 189 0 l 189 308 l 533 0 l 656 0 z "},"л":{"ha":778,"x_min":0,"x_max":0,"o":"m 589 0 l 678 0 l 678 667 l 211 667 l 211 194 b 78 89 211 79 160 64 l 78 0 b 149 -11 94 -7 122 -11 b 300 207 249 -11 300 51 l 300 578 l 589 578 z "},"м":{"ha":889,"x_min":0,"x_max":0,"o":"m 761 0 l 856 0 l 707 689 l 444 179 l 182 689 l 33 0 l 128 0 l 219 425 l 444 0 l 669 425 z "},"н":{"ha":756,"x_min":0,"x_max":0,"o":"m 567 667 l 567 378 l 189 378 l 189 667 l 100 667 l 100 0 l 189 0 l 189 289 l 567 289 l 567 0 l 656 0 l 656 667 z "},"о":{"ha":800,"x_min":0,"x_max":0,"o":"m 400 678 b 56 333 210 678 56 524 b 400 -11 56 143 210 -11 b 744 333 590 -11 744 143 b 400 678 744 524 590 678 z m 400 78 b 144 333 261 78 144 194 b 400 589 144 472 261 589 b 656 333 539 589 656 472 b 400 78 656 194 539 78 z "},"п":{"ha":756,"x_min":0,"x_max":0,"o":"m 656 667 l 100 667 l 100 0 l 189 0 l 189 578 l 567 578 l 567 0 l 656 0 z "},"р":{"ha":844,"x_min":0,"x_max":0,"o":"m 189 667 l 100 667 l 100 -356 l 189 -356 l 189 118 b 444 -11 246 40 336 -11 b 789 333 635 -11 789 143 b 444 678 789 524 635 678 b 189 549 336 678 246 626 z m 444 78 b 189 333 303 78 189 192 b 444 589 189 475 303 589 b 700 333 586 589 700 475 b 444 78 700 192 586 78 z "},"с":{"ha":689,"x_min":0,"x_max":0,"o":"m 596 144 b 414 78 549 103 485 78 b 144 333 246 78 144 192 b 414 589 144 474 249 589 b 594 528 492 589 550 567 l 633 608 b 415 678 575 656 503 678 b 56 333 190 678 56 524 b 415 -11 56 143 188 -11 b 633 64 496 -11 581 15 z "},"т":{"ha":600,"x_min":0,"x_max":0,"o":"m 56 667 l 56 578 l 256 578 l 256 0 l 344 0 l 344 578 l 544 578 l 544 667 z "},"у":{"ha":667,"x_min":0,"x_max":0,"o":"m 551 667 l 333 156 l 115 667 l 11 667 l 281 42 l 103 -356 l 204 -356 l 656 667 z "},"ў":{"ha":667,"x_min":0,"x_max":0,"o":"m 439 928 b 333 822 439 869 392 822 b 228 928 275 822 228 869 l 161 928 b 333 756 161 832 238 756 b 506 928 429 756 506 832 z m 551 667 l 333 156 l 115 667 l 11 667 l 281 42 l 103 -356 l 204 -356 l 656 667 z "},"ф":{"ha":1067,"x_min":0,"x_max":0,"o":"m 719 678 b 578 633 640 678 600 649 l 578 978 l 489 978 l 489 633 b 347 678 467 649 426 678 b 56 344 185 678 56 536 b 347 -11 56 142 185 -11 b 489 33 426 -11 467 15 l 489 -311 l 578 -311 l 578 33 b 719 -11 600 15 640 -11 b 1011 344 882 -11 1011 142 b 719 678 1011 536 882 678 z m 347 78 b 144 347 229 78 144 190 b 347 589 144 490 229 589 b 489 478 414 589 489 557 l 489 210 b 347 78 489 103 414 78 z m 719 78 b 578 210 653 78 578 103 l 578 478 b 719 589 578 557 653 589 b 922 347 838 589 922 490 b 719 78 922 190 838 78 z "},"х":{"ha":689,"x_min":0,"x_max":0,"o":"m 399 354 l 635 667 l 526 667 l 344 417 l 163 667 l 54 667 l 290 354 l 33 0 l 142 0 l 344 282 l 547 0 l 656 0 z "},"ч":{"ha":711,"x_min":0,"x_max":0,"o":"m 328 244 b 522 278 396 244 482 263 l 522 0 l 611 0 l 611 667 l 522 667 l 522 360 b 339 333 486 346 400 332 b 167 503 236 336 167 369 l 167 667 l 78 667 l 78 482 b 328 244 78 317 197 244 z "},"ц":{"ha":867,"x_min":0,"x_max":0,"o":"m 656 89 l 656 667 l 567 667 l 567 89 l 189 89 l 189 667 l 100 667 l 100 0 l 700 0 l 700 -178 l 789 -178 l 789 89 z "},"ш":{"ha":1044,"x_min":0,"x_max":0,"o":"m 856 667 l 856 89 l 567 89 l 567 667 l 478 667 l 478 89 l 189 89 l 189 667 l 100 667 l 100 0 l 944 0 l 944 667 z "},"щ":{"ha":1156,"x_min":0,"x_max":0,"o":"m 944 89 l 944 667 l 856 667 l 856 89 l 567 89 l 567 667 l 478 667 l 478 89 l 189 89 l 189 667 l 100 667 l 100 0 l 989 0 l 989 -178 l 1078 -178 l 1078 89 z "},"џ":{"ha":756,"x_min":0,"x_max":0,"o":"m 567 667 l 567 89 l 189 89 l 189 667 l 100 667 l 100 0 l 333 0 l 333 -178 l 422 -178 l 422 0 l 656 0 l 656 667 z "},"я":{"ha":711,"x_min":0,"x_max":0,"o":"m 378 667 b 78 428 181 667 78 586 b 276 218 78 303 185 226 l 56 0 l 181 0 l 385 213 l 522 213 l 522 0 l 611 0 l 611 667 z m 343 578 l 522 578 l 522 301 l 354 301 b 167 436 232 301 167 350 b 343 578 167 525 232 578 z "},"ь":{"ha":689,"x_min":0,"x_max":0,"o":"m 100 0 l 356 0 b 633 217 542 0 633 86 b 356 422 633 347 542 422 l 189 422 l 189 667 l 100 667 z m 381 89 l 189 89 l 189 333 l 381 333 b 539 211 471 333 539 304 b 381 89 539 121 471 89 z "},"ъ":{"ha":822,"x_min":0,"x_max":0,"o":"m 489 422 l 322 422 l 322 667 l 56 667 l 56 578 l 233 578 l 233 0 l 489 0 b 767 217 675 0 767 86 b 489 422 767 347 675 422 z m 514 89 l 322 89 l 322 333 l 514 333 b 672 211 604 333 672 304 b 514 89 672 121 604 89 z "},"ы":{"ha":956,"x_min":0,"x_max":0,"o":"m 100 0 l 356 0 b 633 217 542 0 633 86 b 356 422 633 347 542 422 l 189 422 l 189 667 l 100 667 z m 767 0 l 856 0 l 856 667 l 767 667 z m 381 89 l 189 89 l 189 333 l 381 333 b 539 211 471 333 539 304 b 381 89 539 121 471 89 z "},"љ":{"ha":1133,"x_min":0,"x_max":0,"o":"m 800 400 l 678 400 l 678 667 l 211 667 l 211 194 b 78 89 211 79 160 64 l 78 0 b 149 -11 94 -7 122 -11 b 300 207 249 -11 300 51 l 300 578 l 589 578 l 589 0 l 800 0 b 1078 206 986 0 1078 81 b 800 400 1078 331 986 400 z m 825 89 l 678 89 l 678 311 l 825 311 b 983 200 915 311 983 288 b 825 89 983 115 915 89 z "},"њ":{"ha":1111,"x_min":0,"x_max":0,"o":"m 778 400 l 656 400 l 656 667 l 567 667 l 567 400 l 189 400 l 189 667 l 100 667 l 100 0 l 189 0 l 189 311 l 567 311 l 567 0 l 778 0 b 1056 206 964 0 1056 81 b 778 400 1056 331 964 400 z m 803 89 l 656 89 l 656 311 l 803 311 b 961 200 893 311 961 288 b 803 89 961 115 893 89 z "},"ѕ":{"ha":622,"x_min":0,"x_max":0,"o":"m 343 389 b 167 492 271 404 167 428 b 326 589 167 582 264 590 b 511 533 400 588 483 556 l 544 614 b 325 678 467 663 381 678 b 78 493 175 678 78 604 b 325 300 78 397 124 339 b 478 182 399 285 478 254 b 318 78 478 108 396 76 b 94 164 238 79 143 111 l 56 83 b 321 -11 83 54 186 -11 b 567 186 481 -11 567 85 b 343 389 567 279 522 351 z "},"є":{"ha":689,"x_min":0,"x_max":0,"o":"m 414 78 b 146 300 260 78 161 174 l 478 300 l 478 367 l 146 367 b 414 589 161 492 263 589 b 594 528 492 589 550 567 l 633 608 b 415 678 575 656 503 678 b 56 333 190 678 56 524 b 415 -11 56 143 188 -11 b 633 64 496 -11 581 15 l 596 144 b 414 78 549 103 485 78 z "},"э":{"ha":689,"x_min":0,"x_max":0,"o":"m 275 78 b 93 144 204 78 140 103 l 56 64 b 274 -11 108 15 193 -11 b 633 333 501 -11 633 143 b 274 678 633 524 499 678 b 56 608 186 678 114 656 l 94 528 b 275 589 139 567 197 589 b 543 367 426 589 528 492 l 211 367 l 211 300 l 543 300 b 275 78 528 174 429 78 z "},"і":{"ha":289,"x_min":0,"x_max":0,"o":"m 144 778 b 222 856 188 778 222 813 b 144 933 222 899 188 933 b 67 856 101 933 67 899 b 144 778 67 813 101 778 z m 100 0 l 189 0 l 189 667 l 100 667 z "},"ї":{"ha":289,"x_min":0,"x_max":0,"o":"m 33 756 b 100 822 71 756 100 785 b 33 889 100 860 71 889 b -33 822 -4 889 -33 860 b 33 756 -33 785 -4 756 z m 256 756 b 322 822 293 756 322 785 b 256 889 322 860 293 889 b 189 822 218 889 189 860 b 256 756 189 785 218 756 z m 100 0 l 189 0 l 189 667 l 100 667 z "},"ј":{"ha":289,"x_min":0,"x_max":0,"o":"m 144 778 b 222 856 188 778 222 813 b 144 933 222 899 188 933 b 67 856 101 933 67 899 b 144 778 67 813 101 778 z m 100 -61 b -33 -286 100 -208 60 -267 l -11 -367 b 189 -47 71 -354 189 -326 l 189 667 l 100 667 z "},"ћ":{"ha":778,"x_min":0,"x_max":0,"o":"m 431 678 b 211 564 338 678 246 619 l 211 783 l 300 783 l 300 839 l 211 839 l 211 978 l 122 978 l 122 839 l 33 839 l 33 783 l 122 783 l 122 0 l 211 0 l 211 389 b 433 589 211 514 331 589 b 611 394 569 589 611 501 l 611 0 l 700 0 l 700 372 b 431 678 700 569 622 678 z "},"ю":{"ha":1089,"x_min":0,"x_max":0,"o":"m 689 678 b 346 367 510 678 363 542 l 189 367 l 189 667 l 100 667 l 100 0 l 189 0 l 189 300 l 346 300 b 689 -11 363 125 510 -11 b 1033 333 879 -11 1033 143 b 689 678 1033 524 879 678 z m 689 78 b 433 333 550 78 433 194 b 689 589 433 472 550 589 b 944 333 828 589 944 472 b 689 78 944 194 828 78 z "},"ђ":{"ha":778,"x_min":0,"x_max":0,"o":"m 431 678 b 211 564 338 678 246 619 l 211 783 l 300 783 l 300 839 l 211 839 l 211 978 l 122 978 l 122 839 l 33 839 l 33 783 l 122 783 l 122 0 l 211 0 l 211 389 b 433 589 211 514 331 589 b 611 394 569 589 611 501 l 611 -61 b 478 -286 611 -208 571 -267 l 500 -367 b 700 -47 582 -354 700 -326 l 700 372 b 431 678 700 569 622 678 z "},"ѣ":{"ha":711,"x_min":0,"x_max":0,"o":"m 378 422 l 211 422 l 211 561 l 300 561 l 300 617 l 211 617 l 211 711 l 122 711 l 122 617 l 33 617 l 33 561 l 122 561 l 122 0 l 378 0 b 656 217 564 0 656 86 b 378 422 656 347 564 422 z m 403 89 l 211 89 l 211 333 l 403 333 b 561 211 493 333 561 304 b 403 89 561 121 493 89 z "},"ѳ":{"ha":800,"x_min":0,"x_max":0,"o":"m 400 678 b 56 333 210 678 56 524 b 400 -11 56 143 210 -11 b 744 333 590 -11 744 143 b 400 678 744 524 590 678 z m 400 589 b 653 375 525 589 632 494 b 404 364 599 325 517 333 b 250 389 353 378 310 389 b 147 367 215 389 183 386 b 400 589 164 490 272 589 z m 400 78 b 147 293 275 78 168 172 b 392 304 200 342 281 333 b 556 278 444 290 493 278 b 653 300 588 278 619 281 b 400 78 636 176 528 78 z "},"ѵ":{"ha":733,"x_min":0,"x_max":0,"o":"m 647 678 b 424 375 547 678 489 518 l 333 178 l 111 667 l 11 667 l 333 -22 l 561 464 b 700 578 619 589 644 596 l 700 667 b 647 678 689 672 672 678 z "},"ғ":{"ha":533,"x_min":0,"x_max":0,"o":"m 478 578 l 478 667 l 122 667 l 122 328 l 33 328 l 33 272 l 122 272 l 122 0 l 211 0 l 211 272 l 344 272 l 344 328 l 211 328 l 211 578 z "},"җ":{"ha":956,"x_min":0,"x_max":0,"o":"m 846 89 l 617 356 l 900 667 l 783 667 l 522 378 l 522 667 l 433 667 l 433 378 l 172 667 l 56 667 l 339 356 l 33 0 l 147 0 l 397 293 l 433 254 l 433 0 l 522 0 l 522 254 l 558 293 l 808 0 l 833 0 l 833 -133 l 922 -133 l 922 89 z "},"қ":{"ha":689,"x_min":0,"x_max":0,"o":"m 558 89 l 278 344 l 633 667 l 511 667 l 189 375 l 189 667 l 100 667 l 100 0 l 189 0 l 189 308 l 533 0 l 567 0 l 567 -133 l 656 -133 l 656 89 z "},"ң":{"ha":778,"x_min":0,"x_max":0,"o":"m 656 89 l 656 667 l 567 667 l 567 378 l 189 378 l 189 667 l 100 667 l 100 0 l 189 0 l 189 289 l 567 289 l 567 0 l 656 0 l 656 -133 l 744 -133 l 744 89 z "},"ү":{"ha":689,"x_min":0,"x_max":0,"o":"m 678 667 l 578 667 l 344 200 l 111 667 l 11 667 l 300 99 l 300 -356 l 389 -356 l 389 99 z "},"ұ":{"ha":689,"x_min":0,"x_max":0,"o":"m 389 99 l 678 667 l 578 667 l 344 200 l 111 667 l 11 667 l 300 99 l 300 -50 l 189 -50 l 189 -106 l 300 -106 l 300 -356 l 389 -356 l 389 -106 l 500 -106 l 500 -50 l 389 -50 z "},"ҳ":{"ha":711,"x_min":0,"x_max":0,"o":"m 592 89 l 399 354 l 635 667 l 526 667 l 344 417 l 163 667 l 54 667 l 290 354 l 33 0 l 142 0 l 344 282 l 547 0 l 589 0 l 589 -133 l 678 -133 l 678 89 z "},"ҷ":{"ha":733,"x_min":0,"x_max":0,"o":"m 611 89 l 611 667 l 522 667 l 522 360 b 339 333 486 346 400 332 b 167 503 236 336 167 369 l 167 667 l 78 667 l 78 482 b 328 244 78 317 197 244 b 522 278 396 244 482 263 l 522 0 l 611 0 l 611 -133 l 700 -133 l 700 89 z "},"һ":{"ha":756,"x_min":0,"x_max":0,"o":"m 408 678 b 189 564 315 678 224 619 l 189 978 l 100 978 l 100 0 l 189 0 l 189 389 b 411 589 189 514 308 589 b 589 394 547 589 589 501 l 589 0 l 678 0 l 678 372 b 408 678 678 569 600 678 z "},"ӏ":{"ha":289,"x_min":0,"x_max":0,"o":"m 100 0 l 189 0 l 189 667 l 100 667 z "},"ә":{"ha":756,"x_min":0,"x_max":0,"o":"m 56 331 b 368 -11 56 117 192 -11 b 700 333 572 -11 700 140 b 374 678 700 526 571 678 b 103 531 201 678 118 560 l 181 494 b 368 589 215 544 276 589 b 608 378 515 589 594 500 l 60 378 b 56 331 57 363 56 344 z m 608 289 b 372 78 604 194 531 78 b 146 289 215 78 150 197 z "},"ӣ":{"ha":778,"x_min":0,"x_max":0,"o":"m 567 778 l 567 844 l 211 844 l 211 778 z m 189 667 l 100 667 l 100 -22 l 589 481 l 589 0 l 678 0 l 678 689 l 189 186 z "},"ө":{"ha":800,"x_min":0,"x_max":0,"o":"m 400 678 b 56 333 210 678 56 524 b 400 -11 56 143 210 -11 b 744 333 590 -11 744 143 b 400 678 744 524 590 678 z m 400 589 b 653 367 528 589 636 490 l 147 367 b 400 589 164 490 272 589 z m 400 78 b 147 300 272 78 164 176 l 653 300 b 400 78 636 176 528 78 z "},"ӯ":{"ha":667,"x_min":0,"x_max":0,"o":"m 511 778 l 511 844 l 156 844 l 156 778 z m 551 667 l 333 156 l 115 667 l 11 667 l 281 42 l 103 -356 l 204 -356 l 656 667 z "},"Α":{"ha":911,"x_min":0,"x_max":0,"o":"m 800 0 l 900 0 l 456 956 l 11 0 l 111 0 l 203 200 l 708 200 z m 243 289 l 456 756 l 668 289 z "},"Β":{"ha":778,"x_min":0,"x_max":0,"o":"m 567 501 b 678 689 628 525 678 607 b 346 933 678 850 547 933 l 100 933 l 100 0 l 422 0 b 722 281 610 0 722 119 b 567 501 722 374 663 482 z m 189 844 l 378 844 b 589 689 513 844 589 796 b 378 533 589 582 513 533 l 189 533 z m 400 89 l 189 89 l 189 444 l 400 444 b 633 265 542 444 633 388 b 400 89 633 144 542 89 z "},"Γ":{"ha":667,"x_min":0,"x_max":0,"o":"m 611 844 l 611 933 l 100 933 l 100 0 l 189 0 l 189 844 z "},"Δ":{"ha":911,"x_min":0,"x_max":0,"o":"m 456 956 l 11 0 l 900 0 z m 151 89 l 456 756 l 760 89 z "},"Ε":{"ha":689,"x_min":0,"x_max":0,"o":"m 611 844 l 611 933 l 100 933 l 100 0 l 611 0 l 611 89 l 189 89 l 189 422 l 544 422 l 544 511 l 189 511 l 189 844 z "},"Ζ":{"ha":778,"x_min":0,"x_max":0,"o":"m 700 0 l 700 89 l 208 89 l 722 933 l 78 933 l 78 844 l 569 844 l 56 0 z "},"Η":{"ha":867,"x_min":0,"x_max":0,"o":"m 678 933 l 678 511 l 189 511 l 189 933 l 100 933 l 100 0 l 189 0 l 189 422 l 678 422 l 678 0 l 767 0 l 767 933 z "},"Θ":{"ha":1067,"x_min":0,"x_max":0,"o":"m 533 944 b 56 467 269 944 56 731 b 533 -11 56 203 269 -11 b 1011 467 797 -11 1011 203 b 533 944 1011 731 797 944 z m 533 78 b 144 467 317 78 144 250 b 533 856 144 683 317 856 b 922 467 750 856 922 683 b 533 78 922 250 750 78 z m 211 439 l 856 439 l 856 494 l 211 494 z "},"Ι":{"ha":289,"x_min":0,"x_max":0,"o":"m 189 0 l 189 933 l 100 933 l 100 0 z "},"Κ":{"ha":733,"x_min":0,"x_max":0,"o":"m 267 471 l 678 933 l 556 933 l 189 511 l 189 933 l 100 933 l 100 0 l 189 0 l 189 422 l 578 0 l 700 0 z "},"Λ":{"ha":911,"x_min":0,"x_max":0,"o":"m 800 0 l 900 0 l 456 956 l 11 0 l 111 0 l 456 756 z "},"Μ":{"ha":1156,"x_min":0,"x_max":0,"o":"m 578 -22 l 903 664 l 1008 0 l 1100 0 l 942 956 l 578 172 l 214 956 l 56 0 l 147 0 l 253 664 z "},"Ν":{"ha":933,"x_min":0,"x_max":0,"o":"m 833 -22 l 833 933 l 744 933 l 744 211 l 100 956 l 100 0 l 189 0 l 189 722 z "},"Ξ":{"ha":778,"x_min":0,"x_max":0,"o":"m 78 844 l 700 844 l 700 933 l 78 933 z m 144 422 l 633 422 l 633 511 l 144 511 z m 78 0 l 700 0 l 700 89 l 78 89 z "},"Ο":{"ha":1067,"x_min":0,"x_max":0,"o":"m 533 944 b 56 467 269 944 56 731 b 533 -11 56 203 269 -11 b 1011 467 797 -11 1011 203 b 533 944 1011 731 797 944 z m 533 78 b 144 467 317 78 144 250 b 533 856 144 683 317 856 b 922 467 750 856 922 683 b 533 78 922 250 750 78 z "},"Π":{"ha":867,"x_min":0,"x_max":0,"o":"m 767 933 l 100 933 l 100 0 l 189 0 l 189 844 l 678 844 l 678 0 l 767 0 z "},"Ρ":{"ha":778,"x_min":0,"x_max":0,"o":"m 367 933 l 100 933 l 100 0 l 189 0 l 189 333 l 411 333 b 722 640 608 333 722 465 b 367 933 722 817 610 933 z m 411 422 l 189 422 l 189 844 l 404 844 b 633 632 525 844 633 785 b 411 422 633 479 532 422 z "},"Σ":{"ha":778,"x_min":0,"x_max":0,"o":"m 225 844 l 678 844 l 678 933 l 56 933 l 403 467 l 56 0 l 678 0 l 678 89 l 225 89 l 508 467 z "},"Τ":{"ha":689,"x_min":0,"x_max":0,"o":"m 56 933 l 56 844 l 300 844 l 300 0 l 389 0 l 389 844 l 633 844 l 633 933 z "},"Υ":{"ha":778,"x_min":0,"x_max":0,"o":"m 667 933 l 389 506 l 111 933 l 11 933 l 344 422 l 344 0 l 433 0 l 433 422 l 767 933 z "},"Φ":{"ha":956,"x_min":0,"x_max":0,"o":"m 900 489 b 522 889 900 746 699 878 l 522 978 l 433 978 l 433 889 b 56 489 257 878 56 746 b 433 89 56 238 251 100 l 433 0 l 522 0 l 522 89 b 900 489 704 100 900 238 z m 433 175 b 144 489 318 181 144 258 b 433 803 144 718 318 797 z m 522 175 l 522 803 b 811 489 639 797 811 718 b 522 175 811 258 639 181 z "},"Χ":{"ha":867,"x_min":0,"x_max":0,"o":"m 833 0 l 489 482 l 811 933 l 697 933 l 433 556 l 169 933 l 56 933 l 378 482 l 33 0 l 149 0 l 433 406 l 718 0 z "},"Ψ":{"ha":1000,"x_min":0,"x_max":0,"o":"m 811 933 l 811 594 b 544 300 811 379 700 306 l 544 933 l 456 933 l 456 300 b 189 594 300 306 189 379 l 189 933 l 100 933 l 100 603 b 456 211 100 313 254 228 l 456 0 l 544 0 l 544 211 b 900 603 746 228 900 313 l 900 933 z "},"Ω":{"ha":1000,"x_min":0,"x_max":0,"o":"m 922 544 b 500 944 922 736 782 944 b 78 544 218 944 78 736 b 374 89 78 343 222 196 l 78 89 l 78 0 l 456 0 l 456 133 b 167 533 342 210 167 339 b 500 856 167 735 310 856 b 833 533 690 856 833 735 b 544 133 833 339 658 210 l 544 0 l 922 0 l 922 89 l 626 89 b 922 544 778 196 922 343 z "},"Ά":{"ha":911,"x_min":0,"x_max":0,"o":"m 800 0 l 900 0 l 456 956 l 11 0 l 111 0 l 203 200 l 708 200 z m 56 778 l 111 778 l 211 933 l 100 933 z m 243 289 l 456 756 l 668 289 z "},"Έ":{"ha":844,"x_min":0,"x_max":0,"o":"m 56 778 l 111 778 l 211 933 l 100 933 z m 767 844 l 767 933 l 256 933 l 256 0 l 767 0 l 767 89 l 344 89 l 344 422 l 700 422 l 700 511 l 344 511 l 344 844 z "},"Ή":{"ha":1022,"x_min":0,"x_max":0,"o":"m 56 778 l 111 778 l 211 933 l 100 933 z m 833 933 l 833 511 l 344 511 l 344 933 l 256 933 l 256 0 l 344 0 l 344 422 l 833 422 l 833 0 l 922 0 l 922 933 z "},"Ί":{"ha":444,"x_min":0,"x_max":0,"o":"m 56 778 l 111 778 l 211 933 l 100 933 z m 344 0 l 344 933 l 256 933 l 256 0 z "},"Ό":{"ha":1156,"x_min":0,"x_max":0,"o":"m 622 944 b 144 467 358 944 144 731 b 622 -11 144 203 358 -11 b 1100 467 886 -11 1100 203 b 622 944 1100 731 886 944 z m 56 778 l 111 778 l 211 933 l 100 933 z m 622 78 b 233 467 406 78 233 250 b 622 856 233 683 406 856 b 1011 467 839 856 1011 683 b 622 78 1011 250 839 78 z "},"Ύ":{"ha":1022,"x_min":0,"x_max":0,"o":"m 56 778 l 111 778 l 211 933 l 100 933 z m 911 933 l 633 506 l 356 933 l 256 933 l 589 422 l 589 0 l 678 0 l 678 422 l 1011 933 z "},"Ώ":{"ha":1089,"x_min":0,"x_max":0,"o":"m 1011 544 b 589 944 1011 736 871 944 b 167 544 307 944 167 736 b 463 89 167 343 311 196 l 167 89 l 167 0 l 544 0 l 544 133 b 256 533 431 210 256 339 b 589 856 256 735 399 856 b 922 533 779 856 922 735 b 633 133 922 339 747 210 l 633 0 l 1011 0 l 1011 89 l 715 89 b 1011 544 867 196 1011 343 z m 56 778 l 111 778 l 211 933 l 100 933 z "},"Ϊ":{"ha":289,"x_min":0,"x_max":0,"o":"m 33 1022 b 100 1089 71 1022 100 1051 b 33 1156 100 1126 71 1156 b -33 1089 -4 1156 -33 1126 b 33 1022 -33 1051 -4 1022 z m 256 1022 b 322 1089 293 1022 322 1051 b 256 1156 322 1126 293 1156 b 189 1089 218 1156 189 1126 b 256 1022 189 1051 218 1022 z m 189 0 l 189 933 l 100 933 l 100 0 z "},"Ϋ":{"ha":778,"x_min":0,"x_max":0,"o":"m 278 1022 b 344 1089 315 1022 344 1051 b 278 1156 344 1126 315 1156 b 211 1089 240 1156 211 1126 b 278 1022 211 1051 240 1022 z m 500 1022 b 567 1089 538 1022 567 1051 b 500 1156 567 1126 538 1156 b 433 1089 463 1156 433 1126 b 500 1022 433 1051 463 1022 z m 667 933 l 389 506 l 111 933 l 11 933 l 344 422 l 344 0 l 433 0 l 433 422 l 767 933 z "},"α":{"ha":889,"x_min":0,"x_max":0,"o":"m 744 174 l 744 667 l 656 667 l 656 549 b 400 678 599 626 508 678 b 56 333 210 678 56 524 b 400 -11 56 143 210 -11 b 656 118 508 -11 599 42 b 768 -11 661 35 707 -11 b 833 0 799 -11 818 -6 l 833 89 b 744 174 765 69 744 88 z m 400 78 b 144 333 258 78 144 192 b 400 589 144 475 258 589 b 656 333 542 589 656 475 b 400 78 656 192 542 78 z "},"β":{"ha":733,"x_min":0,"x_max":0,"o":"m 492 533 b 611 739 538 557 611 621 b 350 989 611 865 518 989 b 78 678 321 989 78 986 l 78 -356 l 167 -356 l 167 33 b 346 -11 207 13 272 -11 b 678 283 581 -11 678 133 b 492 533 678 400 608 507 z m 167 128 l 167 700 b 349 900 167 818 226 900 b 522 733 460 900 522 835 b 431 586 522 658 481 611 b 211 556 389 565 331 556 l 211 467 b 479 444 325 467 414 471 b 589 283 557 413 589 350 b 167 128 589 89 363 24 z "},"γ":{"ha":689,"x_min":0,"x_max":0,"o":"m 678 667 l 578 667 l 344 200 l 111 667 l 11 667 l 300 99 l 300 -356 l 389 -356 l 389 99 z "},"δ":{"ha":800,"x_min":0,"x_max":0,"o":"m 594 618 b 351 725 518 672 413 696 b 347 900 251 774 263 867 b 583 872 404 922 493 915 l 611 956 b 432 1000 569 976 507 1000 b 190 826 264 1000 196 910 b 300 663 186 772 213 703 b 56 333 158 621 56 489 b 400 -11 56 143 210 -11 b 744 333 590 -11 744 143 b 594 618 744 451 683 556 z m 400 78 b 144 333 261 78 144 194 b 400 589 144 472 261 589 b 656 333 539 589 656 472 b 400 78 656 194 539 78 z "},"ε":{"ha":644,"x_min":0,"x_max":0,"o":"m 350 78 b 167 182 260 75 167 104 b 411 294 167 263 260 294 l 411 372 b 178 490 260 372 178 418 b 350 589 178 546 242 592 b 539 519 447 586 492 557 l 583 592 b 336 678 521 646 433 678 b 89 483 199 678 89 615 b 188 344 89 426 122 369 b 78 194 121 318 78 260 b 340 -11 78 50 196 -11 b 589 74 449 -11 528 19 l 544 146 b 350 78 501 107 433 81 z "},"ζ":{"ha":667,"x_min":0,"x_max":0,"o":"m 611 844 l 611 933 l 144 933 l 144 844 l 471 844 b 78 267 268 686 78 456 b 447 -11 78 33 214 -11 b 522 -133 532 -11 556 -49 l 611 -133 b 633 -42 625 -106 633 -81 b 449 78 633 54 551 74 b 167 272 304 83 167 76 b 611 844 167 439 385 706 z "},"η":{"ha":756,"x_min":0,"x_max":0,"o":"m 408 678 b 189 564 315 678 224 619 l 189 667 l 100 667 l 100 0 l 189 0 l 189 389 b 411 589 189 514 308 589 b 589 394 547 589 589 501 l 589 -356 l 678 -356 l 678 372 b 408 678 678 569 600 678 z "},"θ":{"ha":778,"x_min":0,"x_max":0,"o":"m 389 944 b 78 467 190 944 78 744 b 389 -11 78 189 189 -11 b 700 467 586 -11 700 189 b 389 944 700 744 586 944 z m 389 856 b 611 494 518 856 604 708 l 167 494 b 389 856 174 708 260 856 z m 389 78 b 167 439 260 78 174 225 l 611 439 b 389 78 604 225 518 78 z "},"ι":{"ha":333,"x_min":0,"x_max":0,"o":"m 189 667 l 100 667 l 100 163 b 213 -11 100 40 132 -11 b 278 0 240 -11 258 -6 l 278 89 b 189 174 207 72 189 83 z "},"κ":{"ha":667,"x_min":0,"x_max":0,"o":"m 278 344 l 633 667 l 511 667 l 189 375 l 189 667 l 100 667 l 100 0 l 189 0 l 189 308 l 533 0 l 656 0 z "},"λ":{"ha":778,"x_min":0,"x_max":0,"o":"m 569 186 l 367 706 b 138 1000 308 854 264 1000 b 78 989 113 1000 96 996 l 78 900 b 235 790 150 928 192 900 l 301 621 l 56 0 l 157 0 l 347 501 l 439 257 b 656 -11 504 83 531 -11 b 722 0 683 -11 704 -6 l 722 89 b 569 186 650 71 613 76 z "},"μ":{"ha":778,"x_min":0,"x_max":0,"o":"m 589 667 l 589 278 b 367 78 589 153 469 78 b 189 272 231 78 189 165 l 189 667 l 100 667 l 100 -356 l 189 -356 l 189 42 b 369 -11 232 7 292 -11 b 589 103 463 -11 554 47 l 589 0 l 678 0 l 678 667 z "},"ν":{"ha":667,"x_min":0,"x_max":0,"o":"m 333 -22 l 656 667 l 556 667 l 333 178 l 111 667 l 11 667 z "},"ξ":{"ha":689,"x_min":0,"x_max":0,"o":"m 167 240 b 522 439 167 358 306 439 l 522 517 b 189 725 306 517 189 604 b 400 911 189 833 257 911 b 575 833 472 911 532 879 l 611 911 b 400 1000 569 956 493 1000 b 100 722 225 1000 104 889 b 258 483 97 622 149 539 b 78 240 163 435 78 354 b 421 -11 78 79 176 -11 b 544 -133 565 -11 576 -49 l 633 -133 b 656 -54 644 -115 656 -86 b 376 78 656 89 456 71 b 167 240 268 88 167 115 z "},"ο":{"ha":800,"x_min":0,"x_max":0,"o":"m 400 678 b 56 333 210 678 56 524 b 400 -11 56 143 210 -11 b 744 333 590 -11 744 143 b 400 678 744 524 590 678 z m 400 78 b 144 333 261 78 144 194 b 400 589 144 472 261 589 b 656 333 539 589 656 472 b 400 78 656 194 539 78 z "},"π":{"ha":800,"x_min":0,"x_max":0,"o":"m 722 578 l 722 667 l 56 667 l 56 578 l 144 578 l 144 0 l 233 0 l 233 578 l 522 578 l 522 163 b 635 -11 522 40 554 -11 b 700 0 663 -11 681 -6 l 700 89 b 611 174 629 72 611 83 l 611 578 z "},"ρ":{"ha":844,"x_min":0,"x_max":0,"o":"m 444 678 b 100 333 254 678 100 524 l 100 -356 l 189 -356 l 189 119 b 444 -11 249 36 343 -11 b 789 333 635 -11 789 143 b 444 678 789 524 635 678 z m 444 78 b 189 333 306 78 189 194 b 444 589 189 472 306 589 b 700 333 583 589 700 472 b 444 78 700 194 583 78 z "},"ς":{"ha":733,"x_min":0,"x_max":0,"o":"m 414 78 b 144 333 239 85 144 192 b 414 589 144 474 249 589 b 594 528 492 589 550 567 l 633 608 b 415 678 575 656 503 678 b 56 333 190 678 56 524 b 415 -11 56 143 188 -11 b 589 -133 607 -11 621 -49 l 678 -133 b 700 -54 689 -115 700 -86 b 414 78 700 68 543 72 z "},"σ":{"ha":844,"x_min":0,"x_max":0,"o":"m 789 667 l 400 667 b 56 328 210 667 56 515 b 400 -11 56 140 210 -11 b 744 328 590 -11 744 140 b 611 578 744 432 686 532 l 789 578 z m 656 328 b 400 78 656 192 539 78 b 144 328 261 78 144 192 b 400 578 144 464 261 578 b 656 328 539 578 656 464 z "},"τ":{"ha":600,"x_min":0,"x_max":0,"o":"m 544 578 l 544 667 l 56 667 l 56 578 l 256 578 l 256 163 b 368 -11 256 40 288 -11 b 433 0 396 -11 414 -6 l 433 89 b 344 174 363 72 344 83 l 344 578 z "},"υ":{"ha":711,"x_min":0,"x_max":0,"o":"m 567 667 l 478 667 b 544 336 514 561 544 468 b 343 78 544 204 481 78 b 167 286 233 78 167 143 l 167 667 l 78 667 l 78 300 b 344 -11 78 81 189 -11 b 633 350 518 -11 633 131 b 567 667 633 471 597 579 z "},"φ":{"ha":867,"x_min":0,"x_max":0,"o":"m 478 711 l 478 978 l 389 978 l 389 711 b 56 350 196 689 56 550 b 389 -11 56 150 196 11 l 389 -356 l 478 -356 l 478 -11 b 811 350 671 11 811 150 b 478 711 811 550 671 689 z m 389 75 b 144 350 253 93 144 186 b 389 625 144 514 253 607 z m 722 350 b 478 75 722 186 614 93 l 478 625 b 722 350 614 607 722 514 z "},"χ":{"ha":689,"x_min":0,"x_max":0,"o":"m 399 354 l 635 667 l 526 667 l 344 417 l 163 667 l 54 667 l 290 354 l 33 0 l 142 0 l 344 282 l 547 0 l 656 0 z "},"ψ":{"ha":911,"x_min":0,"x_max":0,"o":"m 744 667 l 744 325 b 500 78 744 132 593 89 l 500 667 l 411 667 l 411 78 b 167 325 318 89 167 132 l 167 667 l 78 667 l 78 353 b 411 -11 78 114 201 11 l 411 -356 l 500 -356 l 500 -11 b 833 353 710 11 833 114 l 833 667 z "},"ω":{"ha":956,"x_min":0,"x_max":0,"o":"m 788 667 l 704 667 b 789 308 757 568 789 444 b 644 78 789 165 738 78 b 522 231 596 78 522 115 l 522 578 l 433 578 l 433 231 b 311 78 433 115 360 78 b 167 308 218 78 167 165 b 251 667 167 444 199 568 l 168 667 b 78 317 117 581 78 438 b 311 -11 78 75 188 -11 b 478 74 396 -11 446 28 b 644 -11 510 28 560 -11 b 878 317 768 -11 878 75 b 788 667 878 438 839 581 z "},"ί":{"ha":333,"x_min":0,"x_max":0,"o":"m 111 756 l 167 756 l 267 911 l 156 911 z m 189 667 l 100 667 l 100 163 b 213 -11 100 40 132 -11 b 278 0 240 -11 258 -6 l 278 89 b 189 174 207 72 189 83 z "},"ϊ":{"ha":333,"x_min":0,"x_max":0,"o":"m 33 756 b 100 822 71 756 100 785 b 33 889 100 860 71 889 b -33 822 -4 889 -33 860 b 33 756 -33 785 -4 756 z m 256 756 b 322 822 293 756 322 785 b 256 889 322 860 293 889 b 189 822 218 889 189 860 b 256 756 189 785 218 756 z m 189 667 l 100 667 l 100 163 b 213 -11 100 40 132 -11 b 278 0 240 -11 258 -6 l 278 89 b 189 174 207 72 189 83 z "},"ΐ":{"ha":333,"x_min":0,"x_max":0,"o":"m 111 756 l 167 756 l 267 911 l 156 911 z m -11 756 b 56 822 26 756 56 785 b -11 889 56 860 26 889 b -78 822 -49 889 -78 860 b -11 756 -78 785 -49 756 z m 344 756 b 411 822 382 756 411 785 b 344 889 411 860 382 889 b 278 822 307 889 278 860 b 344 756 278 785 307 756 z m 189 667 l 100 667 l 100 163 b 213 -11 100 40 132 -11 b 278 0 240 -11 258 -6 l 278 89 b 189 174 207 72 189 83 z "},"ύ":{"ha":711,"x_min":0,"x_max":0,"o":"m 267 756 l 322 756 l 422 911 l 311 911 z m 567 667 l 478 667 b 544 336 514 561 544 468 b 343 78 544 204 481 78 b 167 286 233 78 167 143 l 167 667 l 78 667 l 78 300 b 344 -11 78 81 189 -11 b 633 350 518 -11 633 131 b 567 667 633 471 597 579 z "},"ϋ":{"ha":711,"x_min":0,"x_max":0,"o":"m 211 756 b 278 822 249 756 278 785 b 211 889 278 860 249 889 b 144 822 174 889 144 860 b 211 756 144 785 174 756 z m 433 756 b 500 822 471 756 500 785 b 433 889 500 860 471 889 b 367 822 396 889 367 860 b 433 756 367 785 396 756 z m 567 667 l 478 667 b 544 336 514 561 544 468 b 343 78 544 204 481 78 b 167 286 233 78 167 143 l 167 667 l 78 667 l 78 300 b 344 -11 78 81 189 -11 b 633 350 518 -11 633 131 b 567 667 633 471 597 579 z "},"ΰ":{"ha":711,"x_min":0,"x_max":0,"o":"m 267 756 l 322 756 l 422 911 l 311 911 z m 144 756 b 211 822 182 756 211 785 b 144 889 211 860 182 889 b 78 822 107 889 78 860 b 144 756 78 785 107 756 z m 500 756 b 567 822 538 756 567 785 b 500 889 567 860 538 889 b 433 822 463 889 433 860 b 500 756 433 785 463 756 z m 567 667 l 478 667 b 544 336 514 561 544 468 b 343 78 544 204 481 78 b 167 286 233 78 167 143 l 167 667 l 78 667 l 78 300 b 344 -11 78 81 189 -11 b 633 350 518 -11 633 131 b 567 667 633 471 597 579 z "},"ό":{"ha":800,"x_min":0,"x_max":0,"o":"m 356 756 l 411 756 l 511 911 l 400 911 z m 400 678 b 56 333 210 678 56 524 b 400 -11 56 143 210 -11 b 744 333 590 -11 744 143 b 400 678 744 524 590 678 z m 400 78 b 144 333 261 78 144 194 b 400 589 144 472 261 589 b 656 333 539 589 656 472 b 400 78 656 194 539 78 z "},"ώ":{"ha":956,"x_min":0,"x_max":0,"o":"m 433 756 l 489 756 l 589 911 l 478 911 z m 788 667 l 704 667 b 789 308 757 568 789 444 b 644 78 789 165 738 78 b 522 231 596 78 522 115 l 522 578 l 433 578 l 433 231 b 311 78 433 115 360 78 b 167 308 218 78 167 165 b 251 667 167 444 199 568 l 168 667 b 78 317 117 581 78 438 b 311 -11 78 75 188 -11 b 478 74 396 -11 446 28 b 644 -11 510 28 560 -11 b 878 317 768 -11 878 75 b 788 667 878 438 839 581 z "},"ά":{"ha":889,"x_min":0,"x_max":0,"o":"m 400 756 l 456 756 l 556 911 l 444 911 z m 744 174 l 744 667 l 656 667 l 656 549 b 400 678 599 626 508 678 b 56 333 210 678 56 524 b 400 -11 56 143 210 -11 b 656 118 508 -11 599 42 b 768 -11 661 35 707 -11 b 833 0 799 -11 818 -6 l 833 89 b 744 174 765 69 744 88 z m 400 78 b 144 333 258 78 144 192 b 400 589 144 475 258 589 b 656 333 542 589 656 475 b 400 78 656 192 542 78 z "},"έ":{"ha":644,"x_min":0,"x_max":0,"o":"m 278 756 l 333 756 l 433 911 l 322 911 z m 350 78 b 167 182 260 75 167 104 b 411 294 167 263 260 294 l 411 372 b 178 490 260 372 178 418 b 350 589 178 546 242 592 b 539 519 447 586 492 557 l 583 592 b 336 678 521 646 433 678 b 89 483 199 678 89 615 b 188 344 89 426 122 369 b 78 194 121 318 78 260 b 340 -11 78 50 196 -11 b 589 74 449 -11 528 19 l 544 146 b 350 78 501 107 433 81 z "},"ή":{"ha":756,"x_min":0,"x_max":0,"o":"m 300 756 l 356 756 l 456 911 l 344 911 z m 408 678 b 189 564 315 678 224 619 l 189 667 l 100 667 l 100 0 l 189 0 l 189 389 b 411 589 189 514 308 589 b 589 394 547 589 589 501 l 589 -356 l 678 -356 l 678 372 b 408 678 678 569 600 678 z "},"⁄":{"ha":317,"x_min":0,"x_max":0,"o":"m -133 0 l 517 933 l 450 933 l -200 0 z "},"½":{"ha":1239,"x_min":0,"x_max":0,"o":"m 144 894 l 144 851 l 222 881 l 222 467 l 267 467 l 267 944 z m 300 0 l 950 933 l 883 933 l 233 0 z m 839 328 l 883 319 b 989 428 889 381 922 428 b 1094 324 1051 428 1094 388 b 1015 185 1094 275 1061 231 l 828 0 l 1161 0 l 1161 44 l 932 44 l 1039 147 b 1139 328 1106 211 1139 254 b 989 472 1139 417 1075 472 b 839 328 897 472 844 403 z "},"¼":{"ha":1217,"x_min":0,"x_max":0,"o":"m 144 894 l 144 851 l 222 881 l 222 467 l 267 467 l 267 944 z m 300 0 l 950 933 l 883 933 l 233 0 z m 1083 133 l 1083 478 l 783 89 l 1039 89 l 1039 0 l 1083 0 l 1083 89 l 1139 89 l 1139 133 z m 1039 133 l 869 133 l 1039 356 z "},"¾":{"ha":1261,"x_min":0,"x_max":0,"o":"m 311 713 b 389 817 367 732 389 776 b 239 939 389 869 344 939 b 89 800 144 939 94 878 l 131 792 b 243 894 135 836 151 894 b 344 811 300 894 344 864 b 211 731 344 750 263 732 l 211 686 b 356 600 293 686 356 663 b 243 506 356 558 319 506 b 121 614 153 506 126 568 l 78 606 b 239 461 85 522 142 461 b 400 604 346 461 400 535 b 311 713 400 658 363 703 z m 344 0 l 994 933 l 928 933 l 278 0 z m 1128 133 l 1128 478 l 828 89 l 1083 89 l 1083 0 l 1128 0 l 1128 89 l 1183 89 l 1183 133 z m 1083 133 l 914 133 l 1083 356 z "},"⅛":{"ha":1239,"x_min":0,"x_max":0,"o":"m 144 894 l 144 851 l 222 881 l 222 467 l 267 467 l 267 944 z m 300 0 l 950 933 l 883 933 l 233 0 z m 1088 257 b 1140 347 1121 276 1140 314 b 994 472 1140 422 1075 472 b 850 347 914 472 850 422 b 901 257 850 314 868 276 b 828 142 863 239 828 189 b 994 -6 828 51 903 -6 b 1161 142 1086 -6 1161 51 b 1088 257 1161 189 1128 240 z m 994 428 b 1094 349 1050 428 1094 394 b 994 276 1094 303 1050 276 b 894 349 939 276 894 303 b 994 428 894 394 939 428 z m 994 39 b 872 139 928 39 872 82 b 994 235 872 197 928 235 b 1117 139 1063 235 1117 197 b 994 39 1117 82 1063 39 z "},"⅜":{"ha":1283,"x_min":0,"x_max":0,"o":"m 311 713 b 389 817 367 732 389 776 b 239 939 389 869 344 939 b 89 800 144 939 94 878 l 131 792 b 243 894 135 836 151 894 b 344 811 300 894 344 864 b 211 731 344 750 263 732 l 211 686 b 356 600 293 686 356 663 b 243 506 356 558 319 506 b 121 614 153 506 126 568 l 78 606 b 239 461 85 522 142 461 b 400 604 346 461 400 535 b 311 713 400 658 363 703 z m 344 0 l 994 933 l 928 933 l 278 0 z m 1132 257 b 1185 347 1165 276 1185 314 b 1039 472 1185 422 1119 472 b 894 347 958 472 894 422 b 946 257 894 314 913 276 b 872 142 907 239 872 189 b 1039 -6 872 51 947 -6 b 1206 142 1131 -6 1206 51 b 1132 257 1206 189 1172 240 z m 1039 428 b 1139 349 1094 428 1139 394 b 1039 276 1139 303 1094 276 b 939 349 983 276 939 303 b 1039 428 939 394 983 428 z m 1039 39 b 917 139 972 39 917 82 b 1039 235 917 197 972 235 b 1161 139 1107 235 1161 197 b 1039 39 1161 82 1107 39 z "},"⅝":{"ha":1283,"x_min":0,"x_max":0,"o":"m 253 778 b 139 728 192 778 154 747 l 163 889 l 356 889 l 356 933 l 129 933 l 89 656 l 135 656 b 250 733 158 700 192 733 b 356 622 314 733 356 686 b 239 506 356 553 307 506 b 124 606 169 506 128 551 l 78 600 b 239 461 83 521 150 461 b 400 625 325 461 400 528 b 253 778 400 724 329 778 z m 344 0 l 994 933 l 928 933 l 278 0 z m 1132 257 b 1185 347 1165 276 1185 314 b 1039 472 1185 422 1119 472 b 894 347 958 472 894 422 b 946 257 894 314 913 276 b 872 142 907 239 872 189 b 1039 -6 872 51 947 -6 b 1206 142 1131 -6 1206 51 b 1132 257 1206 189 1172 240 z m 1039 428 b 1139 349 1094 428 1139 394 b 1039 276 1139 303 1094 276 b 939 349 983 276 939 303 b 1039 428 939 394 983 428 z m 1039 39 b 917 139 972 39 917 82 b 1039 235 917 197 972 235 b 1161 139 1107 235 1161 197 b 1039 39 1161 82 1107 39 z "},"⅞":{"ha":1250,"x_min":0,"x_max":0,"o":"m 100 933 l 100 889 l 344 889 l 156 467 l 206 467 l 411 933 z m 311 0 l 961 933 l 894 933 l 244 0 z m 1099 257 b 1151 347 1132 276 1151 314 b 1006 472 1151 422 1086 472 b 861 347 925 472 861 422 b 913 257 861 314 879 276 b 839 142 874 239 839 189 b 1006 -6 839 51 914 -6 b 1172 142 1097 -6 1172 51 b 1099 257 1172 189 1139 240 z m 1006 428 b 1106 349 1061 428 1106 394 b 1006 276 1106 303 1061 276 b 906 349 950 276 906 303 b 1006 428 906 394 950 428 z m 1006 39 b 883 139 939 39 883 82 b 1006 235 883 197 939 235 b 1128 139 1074 235 1128 197 b 1006 39 1128 82 1074 39 z "},"⁰":{"ha":489,"x_min":0,"x_max":0,"o":"m 244 1050 b 78 811 146 1050 78 950 b 244 572 78 672 144 572 b 411 811 343 572 411 672 b 244 1050 411 950 343 1050 z m 244 617 b 122 811 178 617 122 697 b 244 1006 122 926 178 1006 b 367 811 313 1006 367 926 b 244 617 367 697 313 617 z "},"¹":{"ha":433,"x_min":0,"x_max":0,"o":"m 144 1017 l 144 974 l 222 1003 l 222 589 l 267 589 l 267 1067 z "},"²":{"ha":489,"x_min":0,"x_max":0,"o":"m 89 906 l 133 897 b 239 1006 139 958 172 1006 b 344 901 301 1006 344 965 b 265 763 344 853 311 808 l 78 578 l 411 578 l 411 622 l 182 622 l 289 725 b 389 906 356 789 389 832 b 239 1050 389 994 325 1050 b 89 906 147 1050 94 981 z "},"³":{"ha":478,"x_min":0,"x_max":0,"o":"m 311 824 b 389 928 367 843 389 888 b 239 1050 389 981 344 1050 b 89 911 144 1050 94 989 l 131 903 b 243 1006 135 947 151 1006 b 344 922 300 1006 344 975 b 211 842 344 861 263 843 l 211 797 b 356 711 293 797 356 774 b 243 617 356 669 319 617 b 121 725 153 617 126 679 l 78 717 b 239 572 85 633 142 572 b 400 715 346 572 400 646 b 311 824 400 769 363 814 z "},"⁴":{"ha":467,"x_min":0,"x_max":0,"o":"m 333 711 l 333 1056 l 33 667 l 289 667 l 289 578 l 333 578 l 333 667 l 389 667 l 389 711 z m 289 711 l 119 711 l 289 933 z "},"⁵":{"ha":478,"x_min":0,"x_max":0,"o":"m 253 889 b 139 839 192 889 154 858 l 163 1000 l 356 1000 l 356 1044 l 129 1044 l 89 767 l 135 767 b 250 844 158 811 192 844 b 356 733 314 844 356 797 b 239 617 356 664 307 617 b 124 717 169 617 128 663 l 78 711 b 239 572 83 632 150 572 b 400 736 325 572 400 639 b 253 889 400 835 329 889 z "},"⁶":{"ha":489,"x_min":0,"x_max":0,"o":"m 251 900 b 139 860 188 900 156 874 b 350 1044 189 1010 350 1044 l 254 1044 b 78 753 126 985 78 857 b 244 572 78 643 147 572 b 411 749 342 572 411 644 b 251 900 411 831 344 900 z m 244 617 b 122 740 172 617 122 672 b 244 856 122 807 174 856 b 367 740 321 856 367 808 b 244 617 367 672 317 617 z "},"⁷":{"ha":444,"x_min":0,"x_max":0,"o":"m 100 1044 l 100 1000 l 344 1000 l 156 578 l 206 578 l 411 1044 z "},"⁸":{"ha":489,"x_min":0,"x_max":0,"o":"m 338 835 b 390 925 371 854 390 892 b 244 1050 390 1000 325 1050 b 100 925 164 1050 100 1000 b 151 835 100 892 118 854 b 78 719 113 817 78 767 b 244 572 78 629 153 572 b 411 719 336 572 411 629 b 338 835 411 767 378 818 z m 244 1006 b 344 926 300 1006 344 972 b 244 854 344 881 300 854 b 144 926 189 854 144 881 b 244 1006 144 972 189 1006 z m 244 617 b 122 717 178 617 122 660 b 244 813 122 775 178 813 b 367 717 313 813 367 775 b 244 617 367 660 313 617 z "},"⁹":{"ha":489,"x_min":0,"x_max":0,"o":"m 238 722 b 350 764 303 722 335 750 b 139 578 300 614 139 578 l 235 578 b 411 869 364 639 411 765 b 244 1050 411 981 342 1050 b 78 875 149 1050 78 979 b 238 722 78 792 144 722 z m 244 1006 b 367 883 317 1006 367 951 b 244 767 367 817 315 767 b 122 883 169 767 122 815 b 244 1006 122 951 172 1006 z "},"*":{"ha":617,"x_min":0,"x_max":0,"o":"m 349 806 l 351 978 l 265 978 l 268 806 l 110 871 l 78 790 l 242 731 l 136 592 l 210 540 l 308 682 l 411 540 l 483 592 l 375 731 l 539 790 l 507 871 z "},"\\":{"ha":689,"x_min":0,"x_max":0,"o":"m 522 -111 l 611 -111 l 167 1044 l 78 1044 z "},"·":{"ha":333,"x_min":0,"x_max":0,"o":"m 167 378 b 256 467 217 378 256 417 b 167 556 256 517 217 556 b 78 467 117 556 78 517 b 167 378 78 417 117 378 z "},"•":{"ha":1044,"x_min":0,"x_max":0,"o":"m 522 600 b 389 467 447 600 389 542 b 522 333 389 392 447 333 b 656 467 597 333 656 392 b 522 600 656 542 597 600 z "},":":{"ha":333,"x_min":0,"x_max":0,"o":"m 167 500 b 256 589 217 500 256 539 b 167 678 256 639 217 678 b 78 589 117 678 78 639 b 167 500 78 539 117 500 z m 167 -11 b 256 78 217 -11 256 28 b 167 167 256 128 217 167 b 78 78 117 167 78 128 b 167 -11 78 28 117 -11 z "},",":{"ha":322,"x_min":0,"x_max":0,"o":"m 56 -133 l 122 -133 l 244 133 l 111 133 z "},"…":{"ha":1089,"x_min":0,"x_max":0,"o":"m 167 -11 b 256 78 217 -11 256 28 b 167 167 256 128 217 167 b 78 78 117 167 78 128 b 167 -11 78 28 117 -11 z m 544 -11 b 633 78 594 -11 633 28 b 544 167 633 128 594 167 b 456 78 494 167 456 128 b 544 -11 456 28 494 -11 z m 922 -11 b 1011 78 972 -11 1011 28 b 922 167 1011 128 972 167 b 833 78 872 167 833 128 b 922 -11 833 28 872 -11 z "},"!":{"ha":378,"x_min":0,"x_max":0,"o":"m 156 267 l 222 267 l 256 933 l 122 933 z m 189 -11 b 278 78 239 -11 278 28 b 189 167 278 128 239 167 b 100 78 139 167 100 128 b 189 -11 100 28 139 -11 z "},"¡":{"ha":378,"x_min":0,"x_max":0,"o":"m 189 678 b 100 589 139 678 100 639 b 189 500 100 539 139 500 b 278 589 239 500 278 539 b 189 678 278 639 239 678 z m 156 400 l 122 -267 l 256 -267 l 222 400 z "},"#":{"ha":956,"x_min":0,"x_max":0,"o":"m 878 600 l 878 667 l 722 667 l 767 933 l 689 933 l 644 667 l 381 667 l 425 933 l 347 933 l 303 667 l 133 667 l 133 600 l 292 600 l 243 311 l 78 311 l 78 244 l 232 244 l 192 0 l 269 0 l 311 244 l 575 244 l 533 0 l 611 0 l 651 244 l 822 244 l 822 311 l 663 311 l 711 600 z m 585 311 l 321 311 l 369 600 l 633 600 z "},".":{"ha":333,"x_min":0,"x_max":0,"o":"m 167 -11 b 256 78 217 -11 256 28 b 167 167 256 128 217 167 b 78 78 117 167 78 128 b 167 -11 78 28 117 -11 z "},"?":{"ha":711,"x_min":0,"x_max":0,"o":"m 344 944 b 78 800 231 944 136 889 l 142 736 b 346 856 169 789 233 856 b 544 678 471 856 544 774 b 381 464 544 565 454 524 b 303 267 310 406 301 326 l 388 267 b 461 428 389 340 396 379 b 633 678 536 483 633 556 b 344 944 633 799 549 944 z m 344 167 b 256 78 294 167 256 128 b 344 -11 256 28 294 -11 b 433 78 394 -11 433 28 b 344 167 433 128 394 167 z "},"¿":{"ha":711,"x_min":0,"x_max":0,"o":"m 367 500 b 456 589 417 500 456 539 b 367 678 456 639 417 678 b 278 589 317 678 278 639 b 367 500 278 539 317 500 z m 367 -278 b 633 -133 481 -278 575 -222 l 569 -69 b 365 -189 542 -122 478 -189 b 167 -11 240 -189 167 -107 b 331 203 167 101 257 143 b 408 400 401 261 410 340 l 324 400 b 250 239 322 326 315 288 b 78 -11 175 183 78 111 b 367 -278 78 -132 163 -278 z "},"\"":{"ha":556,"x_min":0,"x_max":0,"o":"m 178 689 l 200 933 l 78 933 l 100 689 z m 456 689 l 478 933 l 356 933 l 378 689 z "},"'":{"ha":278,"x_min":0,"x_max":0,"o":"m 178 689 l 200 933 l 78 933 l 100 689 z "},";":{"ha":344,"x_min":0,"x_max":0,"o":"m 178 500 b 267 589 228 500 267 539 b 178 678 267 639 228 678 b 89 589 128 678 89 639 b 178 500 89 539 128 500 z m 56 -133 l 122 -133 l 244 133 l 111 133 z "},"/":{"ha":689,"x_min":0,"x_max":0,"o":"m 167 -111 l 611 1044 l 522 1044 l 78 -111 z "},"_":{"ha":756,"x_min":0,"x_max":0,"o":"m 700 -133 l 700 -44 l 56 -44 l 56 -133 z "},"{":{"ha":467,"x_min":0,"x_max":0,"o":"m 300 -81 l 300 219 b 207 422 300 325 272 394 b 300 625 272 450 300 519 l 300 925 b 389 1072 300 992 311 1054 l 356 1156 b 211 903 213 1108 211 1022 l 211 578 b 78 422 211 497 128 436 b 211 267 128 408 211 347 l 211 -58 b 356 -311 211 -178 213 -264 l 389 -228 b 300 -81 311 -210 300 -147 z "},"}":{"ha":467,"x_min":0,"x_max":0,"o":"m 167 -81 b 78 -228 167 -147 156 -210 l 111 -311 b 256 -58 254 -264 256 -178 l 256 267 b 389 422 256 347 339 408 b 256 578 339 436 256 497 l 256 903 b 111 1156 256 1022 254 1108 l 78 1072 b 167 925 156 1054 167 992 l 167 625 b 260 422 167 519 194 450 b 167 219 194 394 167 325 z "},"[":{"ha":422,"x_min":0,"x_max":0,"o":"m 189 1067 l 322 1067 l 322 1156 l 100 1156 l 100 -289 l 322 -289 l 322 -200 l 189 -200 z "},"]":{"ha":422,"x_min":0,"x_max":0,"o":"m 233 1067 l 233 -200 l 100 -200 l 100 -289 l 322 -289 l 322 1156 l 100 1156 l 100 1067 z "},"(":{"ha":389,"x_min":0,"x_max":0,"o":"m 333 1028 l 256 1067 b 78 422 151 906 78 671 b 256 -222 78 174 151 -61 l 333 -183 b 167 422 231 -19 167 189 b 333 1028 167 656 231 864 z "},")":{"ha":389,"x_min":0,"x_max":0,"o":"m 56 1028 b 222 422 158 864 222 656 b 56 -183 222 189 158 -19 l 133 -222 b 311 422 238 -61 311 174 b 133 1067 311 671 238 906 z "},"—":{"ha":822,"x_min":0,"x_max":0,"o":"m 744 322 l 744 411 l 78 411 l 78 322 z "},"–":{"ha":689,"x_min":0,"x_max":0,"o":"m 611 322 l 611 411 l 78 411 l 78 322 z "},"-":{"ha":511,"x_min":0,"x_max":0,"o":"m 433 322 l 433 411 l 78 411 l 78 322 z "},"«":{"ha":822,"x_min":0,"x_max":0,"o":"m 389 667 l 300 667 l 78 367 l 300 67 l 389 67 l 167 367 z m 700 667 l 611 667 l 389 367 l 611 67 l 700 67 l 478 367 z "},"»":{"ha":822,"x_min":0,"x_max":0,"o":"m 122 667 l 344 367 l 122 67 l 211 67 l 433 367 l 211 667 z m 433 667 l 656 367 l 433 67 l 522 67 l 744 367 l 522 667 z "},"‹":{"ha":511,"x_min":0,"x_max":0,"o":"m 389 667 l 300 667 l 78 367 l 300 67 l 389 67 l 167 367 z "},"›":{"ha":511,"x_min":0,"x_max":0,"o":"m 122 667 l 344 367 l 122 67 l 211 67 l 433 367 l 211 667 z "},"„":{"ha":611,"x_min":0,"x_max":0,"o":"m 56 -44 l 122 -44 l 244 178 l 111 178 z m 367 -44 l 433 -44 l 556 178 l 422 178 z "},"“":{"ha":611,"x_min":0,"x_max":0,"o":"m 244 933 l 178 933 l 56 711 l 189 711 z m 556 933 l 489 933 l 367 711 l 500 711 z "},"”":{"ha":611,"x_min":0,"x_max":0,"o":"m 56 711 l 122 711 l 244 933 l 111 933 z m 367 711 l 433 711 l 556 933 l 422 933 z "},"‘":{"ha":300,"x_min":0,"x_max":0,"o":"m 244 933 l 178 933 l 56 711 l 189 711 z "},"’":{"ha":300,"x_min":0,"x_max":0,"o":"m 56 711 l 122 711 l 244 933 l 111 933 z "},"‚":{"ha":300,"x_min":0,"x_max":0,"o":"m 56 -44 l 122 -44 l 244 178 l 111 178 z "},"¢":{"ha":689,"x_min":0,"x_max":0,"o":"m 596 144 b 414 78 549 103 485 78 b 144 333 246 78 144 192 b 414 589 144 474 249 589 b 594 528 492 589 550 567 l 633 608 b 428 678 578 653 510 675 l 428 778 l 372 778 l 372 676 b 56 333 174 657 56 511 b 372 -10 56 156 171 8 l 372 -111 l 428 -111 l 428 -11 b 633 64 504 -8 583 18 z "},"¤":{"ha":692,"x_min":0,"x_max":0,"o":"m 535 444 b 500 554 535 486 522 524 l 614 669 l 568 713 l 458 597 b 347 633 426 619 389 633 b 235 599 306 633 267 621 l 124 713 l 78 669 l 190 553 b 157 444 169 522 157 485 b 190 336 157 404 169 367 l 78 222 l 121 176 l 235 292 b 347 256 265 269 304 256 b 456 289 388 256 425 268 l 571 176 l 614 222 l 500 335 b 535 444 522 365 535 403 z m 346 567 b 468 444 411 567 468 510 b 346 322 468 379 411 322 b 224 444 281 322 224 379 b 346 567 224 510 281 567 z "},"$":{"ha":778,"x_min":0,"x_max":0,"o":"m 722 251 b 408 528 722 408 638 482 b 178 701 249 560 178 604 b 399 856 178 801 278 856 b 636 757 507 856 590 807 l 678 833 b 428 943 590 922 483 940 l 428 1044 l 372 1044 l 372 943 b 89 696 199 933 89 826 b 399 439 89 571 147 485 b 633 257 579 406 633 343 b 394 78 633 157 525 78 b 100 219 257 78 157 144 l 56 140 b 372 -11 72 118 174 -3 l 372 -111 l 428 -111 l 428 -10 b 722 251 601 4 722 119 z "},"€":{"ha":978,"x_min":0,"x_max":0,"o":"m 622 78 b 247 361 443 78 293 197 l 526 361 l 546 417 l 236 417 b 233 467 235 433 233 450 b 236 517 233 483 235 500 l 579 517 l 600 572 l 247 572 b 622 856 293 736 443 856 b 886 754 729 856 817 818 l 922 835 b 628 944 846 906 729 944 b 157 572 397 944 206 785 l 56 572 l 56 517 l 147 517 b 144 467 146 500 144 483 b 147 417 144 450 146 433 l 56 417 l 56 361 l 157 361 b 628 -11 206 149 397 -11 b 922 99 729 -11 846 28 l 886 179 b 622 78 818 115 729 78 z "},"£":{"ha":778,"x_min":0,"x_max":0,"o":"m 649 167 b 518 78 617 100 575 78 b 169 117 439 78 336 175 b 264 433 292 214 279 358 l 500 433 l 500 500 l 244 500 b 211 679 236 538 211 613 b 424 856 211 804 322 856 b 631 764 515 856 575 819 l 678 833 b 411 944 594 911 526 944 b 122 678 228 944 122 813 b 153 500 122 621 136 561 l 56 500 l 56 433 l 172 433 b 124 189 182 374 204 258 b 56 111 93 163 67 142 l 156 0 b 389 21 197 67 318 53 b 518 -11 433 1 467 -11 b 722 122 578 -11 665 1 z "},"¥":{"ha":867,"x_min":0,"x_max":0,"o":"m 811 933 l 711 933 l 433 506 l 156 933 l 56 933 l 389 422 l 233 422 l 233 367 l 389 367 l 389 267 l 233 267 l 233 211 l 389 211 l 389 0 l 478 0 l 478 211 l 633 211 l 633 267 l 478 267 l 478 367 l 633 367 l 633 422 l 478 422 z "},"≈":{"ha":667,"x_min":0,"x_max":0,"o":"m 508 617 b 354 579 474 547 421 554 b 236 617 318 593 276 617 b 78 511 181 617 122 599 l 158 478 b 313 514 193 547 246 539 b 431 478 350 499 389 478 b 589 583 488 478 544 494 z m 508 383 b 354 346 474 314 421 321 b 236 383 318 360 276 383 b 78 278 181 383 122 365 l 158 244 b 313 281 193 314 246 306 b 431 244 350 265 389 244 b 589 350 488 244 544 261 z "},"~":{"ha":678,"x_min":0,"x_max":0,"o":"m 522 467 b 382 425 493 407 450 400 b 235 467 346 438 276 467 b 78 371 176 467 122 454 l 156 333 b 296 375 185 393 228 399 b 443 333 332 361 400 333 b 600 429 501 333 556 346 z "},"÷":{"ha":644,"x_min":0,"x_max":0,"o":"m 322 578 b 411 667 372 578 411 617 b 322 756 411 717 372 756 b 233 667 272 756 233 717 b 322 578 233 617 272 578 z m 78 456 l 78 389 l 567 389 l 567 456 z m 322 89 b 411 178 372 89 411 128 b 322 267 411 228 372 267 b 233 178 272 267 233 228 b 322 89 233 128 272 89 z "},"∅":{"ha":900,"x_min":0,"x_max":0,"o":""},"=":{"ha":689,"x_min":0,"x_max":0,"o":"m 78 556 l 78 489 l 611 489 l 611 556 z m 78 356 l 78 289 l 611 289 l 611 356 z "},">":{"ha":711,"x_min":0,"x_max":0,"o":"m 78 133 l 633 389 l 633 456 l 78 711 l 78 633 l 544 422 l 78 211 z "},"≥":{"ha":711,"x_min":0,"x_max":0,"o":"m 78 156 l 633 411 l 633 478 l 78 733 l 78 656 l 544 444 l 78 233 z m 78 67 l 78 0 l 633 0 l 633 67 z "},"∞":{"ha":844,"x_min":0,"x_max":0,"o":"m 579 589 b 422 508 514 589 457 557 b 268 589 389 557 332 589 b 78 400 161 589 78 506 b 268 211 78 294 161 211 b 422 292 332 211 389 243 b 579 211 457 243 514 211 b 767 400 683 211 767 294 b 579 589 767 506 683 589 z m 267 278 b 144 400 201 278 144 335 b 267 522 144 465 201 522 b 389 400 332 522 389 465 b 267 278 389 335 332 278 z m 578 278 b 456 400 513 278 456 335 b 578 522 456 465 513 522 b 700 400 643 522 700 465 b 578 278 700 335 643 278 z "},"∫":{"ha":422,"x_min":0,"x_max":0,"o":"m 167 694 l 167 -157 b 78 -278 167 -224 142 -278 l 78 -367 b 256 -117 199 -367 256 -306 l 256 735 b 344 856 256 801 281 856 l 344 944 b 167 694 224 944 167 883 z "},"<":{"ha":711,"x_min":0,"x_max":0,"o":"m 633 133 l 633 211 l 167 422 l 633 633 l 633 711 l 78 456 l 78 389 z "},"≤":{"ha":711,"x_min":0,"x_max":0,"o":"m 633 156 l 633 233 l 167 444 l 633 656 l 633 733 l 78 478 l 78 411 z m 633 67 l 78 67 l 78 0 l 633 0 z "},"¬":{"ha":822,"x_min":0,"x_max":0,"o":"m 744 456 l 78 456 l 78 389 l 678 389 l 678 156 l 744 156 z "},"−":{"ha":644,"x_min":0,"x_max":0,"o":"m 78 456 l 78 389 l 567 389 l 567 456 z "},"×":{"ha":592,"x_min":0,"x_max":0,"o":"m 78 593 l 250 422 l 78 251 l 125 204 l 296 376 l 467 204 l 514 251 l 342 422 l 514 593 l 467 640 l 296 468 l 125 640 z "},"≠":{"ha":689,"x_min":0,"x_max":0,"o":"m 611 489 l 611 556 l 410 556 l 478 844 l 411 844 l 343 556 l 78 556 l 78 489 l 326 489 l 296 356 l 78 356 l 78 289 l 279 289 l 211 0 l 278 0 l 346 289 l 611 289 l 611 356 l 363 356 l 393 489 z "},"∂":{"ha":844,"x_min":0,"x_max":0,"o":"m 232 1111 l 189 1022 b 649 588 383 992 576 842 b 422 678 594 649 511 678 b 78 333 232 678 78 524 b 422 -11 78 143 232 -11 b 767 333 613 -11 767 143 b 232 1111 767 710 582 1031 z m 422 78 b 167 333 283 78 167 194 b 422 589 167 472 283 589 b 678 333 561 589 678 472 b 422 78 678 194 561 78 z "},"%":{"ha":1044,"x_min":0,"x_max":0,"o":"m 268 567 b 456 756 372 567 456 650 b 268 944 456 861 372 944 b 78 756 161 944 78 861 b 268 567 78 650 161 567 z m 231 0 l 881 933 l 814 933 l 164 0 z m 267 633 b 144 756 201 633 144 690 b 267 878 144 821 201 878 b 389 756 332 878 389 821 b 267 633 389 690 332 633 z m 779 -11 b 967 178 883 -11 967 72 b 779 367 967 283 883 367 b 589 178 672 367 589 283 b 779 -11 589 72 672 -11 z m 778 56 b 656 178 713 56 656 113 b 778 300 656 243 713 300 b 900 178 843 300 900 243 b 778 56 900 113 843 56 z "},"‰":{"ha":1533,"x_min":0,"x_max":0,"o":"m 268 567 b 456 756 372 567 456 650 b 268 944 456 861 372 944 b 78 756 161 944 78 861 b 268 567 78 650 161 567 z m 231 0 l 881 933 l 814 933 l 164 0 z m 267 633 b 144 756 201 633 144 690 b 267 878 144 821 201 878 b 389 756 332 878 389 821 b 267 633 389 690 332 633 z m 779 -11 b 967 178 883 -11 967 72 b 779 367 967 283 883 367 b 589 178 672 367 589 283 b 779 -11 589 72 672 -11 z m 1268 -11 b 1456 178 1372 -11 1456 72 b 1268 367 1456 283 1372 367 b 1078 178 1161 367 1078 283 b 1268 -11 1078 72 1161 -11 z m 778 56 b 656 178 713 56 656 113 b 778 300 656 243 713 300 b 900 178 843 300 900 243 b 778 56 900 113 843 56 z m 1267 56 b 1144 178 1201 56 1144 113 b 1267 300 1144 243 1201 300 b 1389 178 1332 300 1389 243 b 1267 56 1389 113 1332 56 z "},"+":{"ha":644,"x_min":0,"x_max":0,"o":"m 567 456 l 356 456 l 356 667 l 289 667 l 289 456 l 78 456 l 78 389 l 289 389 l 289 178 l 356 178 l 356 389 l 567 389 z "},"±":{"ha":644,"x_min":0,"x_max":0,"o":"m 567 622 l 356 622 l 356 833 l 289 833 l 289 622 l 78 622 l 78 556 l 289 556 l 289 344 l 356 344 l 356 556 l 567 556 z m 78 144 l 78 78 l 567 78 l 567 144 z "},"∏":{"ha":800,"x_min":0,"x_max":0,"o":"m 700 978 l 100 978 l 100 -356 l 189 -356 l 189 889 l 611 889 l 611 -356 l 700 -356 z "},"√":{"ha":1289,"x_min":0,"x_max":0,"o":"m 1233 933 l 724 933 l 378 178 l 156 667 l 56 667 l 378 -22 l 782 844 l 1233 844 z "},"∑":{"ha":911,"x_min":0,"x_max":0,"o":"m 211 933 l 811 933 l 811 1022 l 100 1022 l 100 933 l 522 333 l 100 -267 l 100 -356 l 811 -356 l 811 -267 l 211 -267 l 633 333 z "},"◊":{"ha":911,"x_min":0,"x_max":0,"o":"m 833 467 l 456 956 l 78 467 l 456 -22 z m 744 467 l 456 101 l 169 467 l 456 832 z "},"|":{"ha":267,"x_min":0,"x_max":0,"o":"m 167 -356 l 167 1067 l 100 1067 l 100 -356 z "},"¦":{"ha":267,"x_min":0,"x_max":0,"o":"m 167 578 l 167 1067 l 100 1067 l 100 578 z m 167 -356 l 167 133 l 100 133 l 100 -356 z "},"@":{"ha":1511,"x_min":0,"x_max":0,"o":"m 1433 458 b 767 1089 1433 803 1121 1089 b 78 400 386 1089 78 781 b 767 -289 78 19 386 -289 b 1018 -242 867 -289 946 -274 l 986 -158 b 768 -200 931 -185 854 -201 b 167 400 461 -194 167 69 b 768 1000 167 736 461 1000 b 1344 461 1057 1000 1344 764 b 1129 178 1344 239 1210 178 b 994 361 1015 178 985 264 l 1026 689 l 940 689 l 933 608 b 746 708 900 668 825 708 b 457 413 586 708 469 579 b 711 114 444 254 543 114 b 921 226 808 114 879 167 b 1124 89 942 167 996 89 b 1433 458 1306 89 1433 251 z m 913 413 b 717 203 904 303 833 203 b 544 415 589 203 536 306 b 742 619 553 526 629 619 b 913 413 875 619 919 496 z "},"&":{"ha":1001,"x_min":0,"x_max":0,"o":"m 922 444 l 806 444 l 644 264 l 426 471 b 656 713 503 503 656 564 b 399 944 656 840 557 944 b 133 717 228 944 133 843 b 275 496 133 635 214 551 b 78 244 182 457 78 381 b 351 -11 78 104 189 -11 b 650 138 476 -11 565 50 l 794 0 l 924 0 l 708 204 z m 361 532 b 222 722 311 579 222 651 b 399 856 222 800 283 856 b 567 715 499 856 567 797 b 361 532 567 615 472 579 z m 354 78 b 167 249 244 78 167 163 b 340 435 167 346 269 407 l 586 200 b 354 78 542 153 457 78 z "},"¶":{"ha":844,"x_min":0,"x_max":0,"o":"m 767 867 l 767 933 l 278 933 b 78 726 161 933 78 840 b 278 515 78 610 161 515 l 278 -317 l 344 -317 l 344 867 l 567 867 l 567 -317 l 633 -317 l 633 867 z "},"©":{"ha":922,"x_min":0,"x_max":0,"o":"m 461 228 b 844 611 678 228 844 394 b 461 994 844 828 678 994 b 78 611 244 994 78 828 b 461 228 78 400 244 228 z m 461 267 b 117 611 269 267 117 419 b 461 956 117 803 269 956 b 806 611 653 956 806 803 b 461 267 806 419 653 267 z m 479 439 b 307 611 385 439 307 517 b 479 783 307 706 385 783 b 596 738 526 783 565 767 l 611 774 b 482 822 578 806 526 822 b 268 611 364 822 268 728 b 482 400 268 494 364 400 b 611 449 526 400 578 417 l 596 485 b 479 439 565 456 526 439 z "},"®":{"ha":967,"x_min":0,"x_max":0,"o":"m 483 228 b 867 611 700 228 867 394 b 483 994 867 828 700 994 b 100 611 267 994 100 828 b 483 228 100 400 267 228 z m 483 267 b 139 611 292 267 139 419 b 483 956 139 803 292 956 b 828 611 675 956 828 803 b 483 267 828 419 675 267 z m 642 403 l 526 554 b 631 689 593 568 631 621 b 472 819 631 768 581 819 l 353 819 l 353 403 l 393 403 l 393 551 l 482 551 l 594 403 z m 393 779 l 489 779 b 592 685 543 779 592 753 b 492 592 592 617 546 592 l 393 592 z "},"§":{"ha":822,"x_min":0,"x_max":0,"o":"m 667 214 b 744 385 715 261 744 321 b 431 661 744 542 660 615 b 200 835 271 693 200 738 b 421 989 200 935 300 989 b 658 890 529 989 613 940 l 700 967 b 422 1078 594 1074 460 1078 b 111 829 232 1078 111 967 b 197 651 111 757 131 697 b 111 474 142 606 111 543 b 421 217 111 349 169 263 b 656 35 601 183 656 121 b 417 -144 656 -65 547 -144 b 122 -3 279 -144 179 -78 l 78 -82 b 414 -233 94 -106 203 -233 b 744 29 607 -233 744 -111 b 667 214 744 111 721 169 z m 200 479 b 288 606 200 538 235 581 b 421 572 325 593 368 582 b 656 390 601 539 656 476 b 583 263 656 340 628 294 b 431 306 542 279 492 293 b 200 479 271 338 200 382 z "},"™":{"ha":900,"x_min":0,"x_max":0,"o":"m 592 507 l 735 811 l 782 517 l 822 517 l 753 940 l 592 593 l 431 940 l 360 517 l 400 517 l 447 811 z m 78 933 l 78 893 l 188 893 l 188 517 l 226 517 l 226 893 l 336 893 l 336 933 z "},"°":{"ha":533,"x_min":0,"x_max":0,"o":"m 268 567 b 456 756 372 567 456 650 b 268 944 456 861 372 944 b 78 756 161 944 78 861 b 268 567 78 650 161 567 z m 267 633 b 144 756 201 633 144 690 b 267 878 144 821 201 878 b 389 756 332 878 389 821 b 267 633 389 690 332 633 z "},"^":{"ha":711,"x_min":0,"x_max":0,"o":"m 78 622 l 167 622 l 356 900 l 544 622 l 633 622 l 389 978 l 322 978 z "},"†":{"ha":911,"x_min":0,"x_max":0,"o":"m 833 600 l 833 667 l 500 667 l 500 1067 l 411 1067 l 411 667 l 78 667 l 78 600 l 411 600 l 456 -378 l 500 600 z "},"‡":{"ha":911,"x_min":0,"x_max":0,"o":"m 833 600 l 833 667 l 500 667 l 500 1067 l 411 1067 l 411 667 l 78 667 l 78 600 l 411 600 l 411 333 l 78 333 l 78 267 l 414 267 l 456 -378 l 497 267 l 833 267 l 833 333 l 500 333 l 500 600 z "},"´":{"ha":1133,"x_min":0,"x_max":0,"o":"m 478 1022 l 544 1022 l 700 1200 l 589 1200 z "},"˘":{"ha":1133,"x_min":0,"x_max":0,"o":"m 672 1194 b 567 1089 672 1136 625 1089 b 461 1194 508 1089 461 1136 l 394 1194 b 567 1022 394 1099 471 1022 b 739 1194 663 1022 739 1099 z "},"ˇ":{"ha":1133,"x_min":0,"x_max":0,"o":"m 663 1200 l 567 1100 l 471 1200 l 367 1200 l 567 1011 l 767 1200 z "},"¸":{"ha":1133,"x_min":0,"x_max":0,"o":"m 522 0 l 440 -89 l 485 -156 b 578 -122 507 -137 538 -122 b 689 -221 644 -122 689 -165 b 556 -344 689 -285 636 -344 b 439 -278 492 -344 454 -310 l 378 -335 b 546 -422 408 -381 461 -422 b 756 -222 671 -422 756 -336 b 547 -71 756 -118 663 -43 l 611 0 z "},"ˆ":{"ha":1133,"x_min":0,"x_max":0,"o":"m 663 1022 l 767 1022 l 567 1211 l 367 1022 l 471 1022 l 567 1122 z "},"¨":{"ha":1133,"x_min":0,"x_max":0,"o":"m 456 1022 b 522 1089 493 1022 522 1051 b 456 1156 522 1126 493 1156 b 389 1089 418 1156 389 1126 b 456 1022 389 1051 418 1022 z m 678 1022 b 744 1089 715 1022 744 1051 b 678 1156 744 1126 715 1156 b 611 1089 640 1156 611 1126 b 678 1022 611 1051 640 1022 z "},"˙":{"ha":1133,"x_min":0,"x_max":0,"o":"m 567 1000 b 656 1089 617 1000 656 1039 b 567 1178 656 1139 617 1178 b 478 1089 517 1178 478 1139 b 567 1000 478 1039 517 1000 z "},"`":{"ha":1133,"x_min":0,"x_max":0,"o":"m 656 1022 l 544 1200 l 433 1200 l 589 1022 z "},"˝":{"ha":1133,"x_min":0,"x_max":0,"o":"m 344 1022 l 411 1022 l 511 1178 l 389 1178 z m 656 1022 l 722 1022 l 822 1178 l 700 1178 z "},"¯":{"ha":1133,"x_min":0,"x_max":0,"o":"m 744 1044 l 744 1111 l 389 1111 l 389 1044 z "},"˛":{"ha":1133,"x_min":0,"x_max":0,"o":"m 650 0 l 522 0 b 472 -122 496 -26 472 -71 b 631 -289 472 -221 532 -289 b 706 -267 656 -289 686 -281 l 683 -208 b 539 -122 621 -240 539 -208 b 650 0 539 -44 601 0 z "},"˚":{"ha":1133,"x_min":0,"x_max":0,"o":"m 567 1289 b 422 1144 486 1289 422 1225 b 567 1000 422 1064 486 1000 b 711 1144 647 1000 711 1064 b 567 1289 711 1225 647 1289 z m 567 1067 b 489 1144 524 1067 489 1101 b 567 1222 489 1188 524 1222 b 644 1144 610 1222 644 1188 b 567 1067 644 1101 610 1067 z "},"˜":{"ha":1133,"x_min":0,"x_max":0,"o":"m 718 1138 b 575 1114 689 1081 642 1085 b 486 1138 546 1125 521 1138 b 344 1046 438 1138 383 1118 l 415 1022 b 556 1047 444 1072 490 1075 b 650 1022 585 1036 615 1022 b 789 1117 697 1022 751 1040 z "}}}
